<?xml version="1.0" encoding="UTF-8"?>
<svg xmlns="http://www.w3.org/2000/svg" version="1.1" xmlns:xlink="http://www.w3.org/1999/xlink" viewBox="0 0 950 244">
  <!-- Generator: Adobe Illustrator 29.1.0, SVG Export Plug-In . SVG Version: 2.1.0 Build 142)  -->
  <defs>
    <style>
      .st0 {
        fill: url(#linear-gradient75);
      }

      .st1 {
        fill: url(#linear-gradient2);
      }

      .st2 {
        fill: url(#linear-gradient81);
      }

      .st3 {
        fill: url(#linear-gradient36);
      }

      .st4 {
        fill: url(#linear-gradient39);
      }

      .st5 {
        fill: url(#linear-gradient34);
      }

      .st6 {
        fill: url(#linear-gradient58);
      }

      .st7 {
        fill: url(#linear-gradient73);
      }

      .st8 {
        fill: url(#linear-gradient83);
      }

      .st9 {
        fill: url(#linear-gradient59);
      }

      .st9, .st10 {
        mix-blend-mode: hard-light;
      }

      .st11 {
        fill: url(#linear-gradient33);
      }

      .st12 {
        fill: url(#linear-gradient10);
      }

      .st13 {
        fill: url(#linear-gradient63);
      }

      .st14 {
        fill: url(#linear-gradient82);
      }

      .st15 {
        fill: url(#linear-gradient71);
      }

      .st16 {
        fill: url(#linear-gradient32);
      }

      .st17 {
        fill: url(#linear-gradient21);
      }

      .st18 {
        fill: url(#linear-gradient85);
      }

      .st19 {
        fill: url(#linear-gradient37);
      }

      .st20 {
        fill: url(#linear-gradient56);
      }

      .st21 {
        fill: url(#linear-gradient27);
      }

      .st22 {
        fill: url(#radial-gradient);
        mix-blend-mode: multiply;
      }

      .st23 {
        fill: url(#linear-gradient53);
      }

      .st24 {
        fill: url(#linear-gradient57);
      }

      .st25 {
        fill: url(#linear-gradient35);
      }

      .st26 {
        fill: url(#linear-gradient26);
      }

      .st27 {
        fill: url(#linear-gradient1);
      }

      .st28 {
        fill: url(#linear-gradient9);
      }

      .st29 {
        fill: url(#linear-gradient18);
      }

      .st30 {
        fill: url(#linear-gradient61);
      }

      .st31 {
        fill: url(#linear-gradient101);
      }

      .st32 {
        fill: url(#linear-gradient23);
      }

      .st33 {
        fill: url(#linear-gradient72);
      }

      .st34 {
        fill: url(#linear-gradient43);
      }

      .st35 {
        fill: url(#linear-gradient78);
      }

      .st36 {
        fill: url(#linear-gradient69);
      }

      .st37 {
        fill: url(#linear-gradient8);
      }

      .st38 {
        fill: url(#linear-gradient11);
      }

      .st39 {
        fill: none;
      }

      .st40 {
        fill: url(#linear-gradient104);
      }

      .st41 {
        fill: url(#linear-gradient16);
      }

      .st42 {
        fill: url(#linear-gradient24);
      }

      .st43 {
        fill: url(#linear-gradient95);
      }

      .st44 {
        fill: url(#linear-gradient30);
      }

      .st45 {
        fill: url(#radial-gradient1);
      }

      .st46 {
        fill: url(#linear-gradient46);
      }

      .st47 {
        fill: url(#linear-gradient94);
      }

      .st48 {
        fill: url(#linear-gradient22);
      }

      .st49 {
        isolation: isolate;
      }

      .st50 {
        fill: url(#linear-gradient29);
      }

      .st51 {
        fill: url(#linear-gradient68);
      }

      .st52 {
        fill: url(#linear-gradient49);
      }

      .st53 {
        fill: url(#linear-gradient93);
      }

      .st54 {
        fill: url(#linear-gradient19);
      }

      .st55 {
        fill: url(#linear-gradient12);
      }

      .st56 {
        fill: url(#linear-gradient65);
      }

      .st57 {
        fill: url(#linear-gradient80);
      }

      .st58 {
        fill: url(#linear-gradient42);
      }

      .st59 {
        fill: url(#linear-gradient28);
      }

      .st60 {
        fill: url(#linear-gradient100);
      }

      .st61 {
        fill: url(#linear-gradient67);
      }

      .st62 {
        fill: url(#linear-gradient40);
      }

      .st63 {
        fill: url(#linear-gradient66);
      }

      .st64 {
        fill: url(#linear-gradient84);
      }

      .st65 {
        fill: url(#linear-gradient62);
      }

      .st66 {
        fill: url(#linear-gradient91);
      }

      .st67 {
        fill: url(#linear-gradient20);
      }

      .st68 {
        fill: url(#linear-gradient4);
      }

      .st69 {
        fill: url(#linear-gradient31);
      }

      .st70 {
        fill: url(#linear-gradient96);
      }

      .st71 {
        fill: url(#linear-gradient79);
      }

      .st72 {
        fill: url(#linear-gradient98);
      }

      .st73 {
        fill: url(#linear-gradient14);
      }

      .st74 {
        fill: url(#linear-gradient5);
      }

      .st75 {
        fill: url(#linear-gradient74);
      }

      .st76 {
        fill: url(#linear-gradient3);
      }

      .st77 {
        fill: url(#linear-gradient102);
      }

      .st78 {
        fill: url(#linear-gradient87);
      }

      .st79 {
        fill: url(#linear-gradient55);
      }

      .st80 {
        fill: url(#linear-gradient38);
      }

      .st81 {
        fill: url(#linear-gradient25);
      }

      .st82 {
        fill: url(#linear-gradient99);
      }

      .st83 {
        fill: url(#linear-gradient52);
      }

      .st84 {
        fill: url(#linear-gradient15);
      }

      .st85 {
        fill: url(#linear-gradient88);
      }

      .st86 {
        fill: url(#linear-gradient17);
      }

      .st87 {
        fill: url(#radial-gradient2);
      }

      .st88 {
        fill: url(#linear-gradient54);
      }

      .st89 {
        fill: url(#linear-gradient50);
      }

      .st90 {
        fill: url(#linear-gradient103);
      }

      .st91 {
        fill: url(#linear-gradient89);
      }

      .st92 {
        fill: url(#linear-gradient51);
      }

      .st93 {
        fill: url(#linear-gradient6);
      }

      .st94 {
        fill: url(#linear-gradient92);
      }

      .st95 {
        fill: #27911f;
      }

      .st96 {
        fill: url(#linear-gradient77);
      }

      .st97 {
        fill: url(#linear-gradient86);
      }

      .st98 {
        fill: url(#linear-gradient64);
      }

      .st99 {
        fill: url(#linear-gradient90);
      }

      .st100 {
        fill: url(#linear-gradient70);
      }

      .st101 {
        fill: url(#linear-gradient76);
      }

      .st102 {
        fill: url(#linear-gradient48);
      }

      .st103 {
        fill: url(#linear-gradient13);
      }

      .st104 {
        fill: url(#linear-gradient45);
      }

      .st105 {
        fill: url(#linear-gradient97);
      }

      .st106 {
        fill: url(#linear-gradient47);
      }

      .st107 {
        fill: url(#linear-gradient60);
      }

      .st108 {
        fill: url(#linear-gradient);
      }

      .st109 {
        fill: url(#linear-gradient44);
      }

      .st110 {
        clip-path: url(#clippath);
      }

      .st111 {
        fill: url(#linear-gradient41);
      }

      .st10 {
        fill: url(#linear-gradient7);
      }
    </style>
    <radialGradient id="radial-gradient" cx="587.57" cy="5655.77" fx="587.57" fy="5655.77" r="219.68" gradientTransform="translate(-3653.47 -2459.23) scale(7.06 .47)" gradientUnits="userSpaceOnUse">
      <stop offset="0" stop-color="#000"/>
      <stop offset=".02" stop-color="#2d2d2d"/>
      <stop offset=".04" stop-color="#5e5e5e"/>
      <stop offset=".07" stop-color="#898989"/>
      <stop offset=".1" stop-color="#adadad"/>
      <stop offset=".12" stop-color="#cbcbcb"/>
      <stop offset=".15" stop-color="#e2e2e2"/>
      <stop offset=".18" stop-color="#f2f2f2"/>
      <stop offset=".22" stop-color="#fbfbfb"/>
      <stop offset=".27" stop-color="#fff"/>
    </radialGradient>
    <linearGradient id="linear-gradient" x1="-225.41" y1="121.18" x2="706.33" y2="121.18" gradientTransform="translate(767.74) rotate(-180) scale(1 -1)" gradientUnits="userSpaceOnUse">
      <stop offset="0" stop-color="#000"/>
      <stop offset=".05" stop-color="#303030"/>
      <stop offset=".1" stop-color="#5b5b5b"/>
      <stop offset=".15" stop-color="#828282"/>
      <stop offset=".21" stop-color="#a4a4a4"/>
      <stop offset=".28" stop-color="silver"/>
      <stop offset=".35" stop-color="#d7d7d7"/>
      <stop offset=".43" stop-color="#e9e9e9"/>
      <stop offset=".54" stop-color="#f5f5f5"/>
      <stop offset=".67" stop-color="#fcfcfc"/>
      <stop offset="1" stop-color="#fff"/>
    </linearGradient>
    <clipPath id="clippath">
      <rect class="st39" x="83.5" y="36.5" width="854" height="169"/>
    </clipPath>
    <radialGradient id="radial-gradient1" cx="545.74" cy="30.46" fx="545.74" fy="30.46" r="208.21" gradientTransform="translate(5.8 -60.17) rotate(5.27)" gradientUnits="userSpaceOnUse">
      <stop offset=".44" stop-color="#fff"/>
      <stop offset=".52" stop-color="#fbfbfb"/>
      <stop offset=".59" stop-color="#f0f0f0"/>
      <stop offset=".66" stop-color="#dedede"/>
      <stop offset=".73" stop-color="#c5c5c5"/>
      <stop offset=".79" stop-color="#a4a4a4"/>
      <stop offset=".85" stop-color="#7b7b7b"/>
      <stop offset=".92" stop-color="#4b4b4b"/>
      <stop offset=".98" stop-color="#151515"/>
      <stop offset="1" stop-color="#000"/>
    </radialGradient>
    <linearGradient id="linear-gradient1" x1="2612.79" y1="2660.98" x2="2685.58" y2="2952.27" gradientTransform="translate(-2284.99 2607.11) rotate(-87.55)" gradientUnits="userSpaceOnUse">
      <stop offset="0" stop-color="#fff"/>
      <stop offset="1" stop-color="#000"/>
    </linearGradient>
    <linearGradient id="linear-gradient2" x1="3219.1" y1="599.61" x2="3281.77" y2="850.44" gradientTransform="translate(1882.04 3171.1) rotate(-124.01)" xlink:href="#linear-gradient1"/>
    <linearGradient id="linear-gradient3" x1="1390.9" y1="2321.15" x2="1463.69" y2="2612.47" gradientTransform="translate(2850.02 -1850.57) rotate(79.99)" xlink:href="#linear-gradient1"/>
    <linearGradient id="linear-gradient4" x1="1865.84" y1="1975.39" x2="1938.63" y2="2266.69" gradientTransform="translate(2513.64 -2191.51) rotate(177.55) scale(1 -1)" xlink:href="#linear-gradient1"/>
    <linearGradient id="linear-gradient5" x1="3025.81" y1="-395.67" x2="3088.49" y2="-144.82" gradientTransform="translate(3077.62 1975.51) rotate(-145.99) scale(1 -1)" xlink:href="#linear-gradient1"/>
    <linearGradient id="linear-gradient6" x1="1972.28" y1="3151.76" x2="2045.08" y2="3443.11" gradientTransform="translate(-1944.04 2943.5) rotate(10.01) scale(1 -1)" xlink:href="#linear-gradient1"/>
    <linearGradient id="linear-gradient7" x1="610.2" y1="-146.84" x2="717.92" y2="284.31" gradientUnits="userSpaceOnUse">
      <stop offset="0" stop-color="#a5df00"/>
      <stop offset="1" stop-color="#1f3f00"/>
    </linearGradient>
    <linearGradient id="linear-gradient8" x1="1142.03" y1="1055.83" x2="1337.62" y2="1055.83" gradientTransform="translate(-586.03 1077.99) scale(1 -1)" gradientUnits="userSpaceOnUse">
      <stop offset=".74" stop-color="#005b00"/>
      <stop offset=".75" stop-color="#156d07"/>
      <stop offset=".78" stop-color="#3e8e16"/>
      <stop offset=".81" stop-color="#61ac22"/>
      <stop offset=".84" stop-color="#7ec32c"/>
      <stop offset=".87" stop-color="#94d634"/>
      <stop offset=".9" stop-color="#a3e239"/>
      <stop offset=".94" stop-color="#adea3c"/>
      <stop offset="1" stop-color="#b0ed3e"/>
    </linearGradient>
    <linearGradient id="linear-gradient9" x1="-2871.88" y1="540.87" x2="-2835.57" y2="594.49" gradientTransform="translate(-914.17 4472.21) rotate(116.5) scale(1.61 1)" gradientUnits="userSpaceOnUse">
      <stop offset=".11" stop-color="#d2ff5d"/>
      <stop offset=".3" stop-color="#8fcc36"/>
      <stop offset=".46" stop-color="#5ba419"/>
      <stop offset=".58" stop-color="#3c8c06"/>
      <stop offset=".65" stop-color="#308300"/>
    </linearGradient>
    <linearGradient id="linear-gradient10" x1="-2853.04" y1="507.87" x2="-2858.66" y2="636.15" xlink:href="#linear-gradient9"/>
    <linearGradient id="linear-gradient11" x1="-2801.91" y1="704.72" x2="-2871.66" y2="520.78" gradientTransform="translate(-914.17 4472.21) rotate(116.5) scale(1.61 1)" xlink:href="#linear-gradient8"/>
    <linearGradient id="linear-gradient12" x1="-3369.35" y1="2822.19" x2="-3256.35" y2="2822.19" gradientTransform="translate(-2480.87 3077.02) rotate(177.54)" gradientUnits="userSpaceOnUse">
      <stop offset="0" stop-color="#f6fcd0"/>
      <stop offset=".25" stop-color="#f3fbcb"/>
      <stop offset=".49" stop-color="#edfabf"/>
      <stop offset=".75" stop-color="#e3f8aa"/>
      <stop offset="1" stop-color="#d6f58e"/>
    </linearGradient>
    <linearGradient id="linear-gradient13" x1="-3384.25" y1="2760.41" x2="-3319.19" y2="2760.41" gradientTransform="translate(-2418.17 3138.41) rotate(175.01)" xlink:href="#linear-gradient12"/>
    <linearGradient id="linear-gradient14" x1="-1889.57" y1="-881.08" x2="-1864.99" y2="-844.77" gradientTransform="translate(1556.69 3069.01) rotate(56.4) scale(1.61 1)" xlink:href="#linear-gradient9"/>
    <linearGradient id="linear-gradient15" x1="-1876.82" y1="-903.43" x2="-1880.63" y2="-816.55" gradientTransform="translate(1556.69 3069.01) rotate(56.4) scale(1.61 1)" xlink:href="#linear-gradient9"/>
    <linearGradient id="linear-gradient16" x1="-1842.29" y1="-770.02" x2="-1889.54" y2="-894.65" gradientTransform="translate(1556.69 3069.01) rotate(56.4) scale(1.61 1)" xlink:href="#linear-gradient8"/>
    <linearGradient id="linear-gradient17" x1="-3816.84" y1="758.29" x2="-3740.26" y2="758.29" gradientTransform="translate(-434.24 3732.34) rotate(117.46)" xlink:href="#linear-gradient12"/>
    <linearGradient id="linear-gradient18" x1="-3757.47" y1="670.98" x2="-3713.38" y2="670.98" gradientTransform="translate(-350.02 3710.05) rotate(114.92)" xlink:href="#linear-gradient12"/>
    <linearGradient id="linear-gradient19" x1="-1872.34" y1="3516.9" x2="-1855.69" y2="3541.49" gradientTransform="translate(-562.82 4600.74) rotate(54.38) scale(1.61 -1)" xlink:href="#linear-gradient9"/>
    <linearGradient id="linear-gradient20" x1="-1863.7" y1="3501.76" x2="-1866.28" y2="3560.61" gradientTransform="translate(-562.82 4600.74) rotate(54.38) scale(1.61 -1)" xlink:href="#linear-gradient9"/>
    <linearGradient id="linear-gradient21" x1="-1840.37" y1="3592.19" x2="-1872.39" y2="3507.73" gradientTransform="translate(-562.82 4600.74) rotate(54.38) scale(1.61 -1)" xlink:href="#linear-gradient8"/>
    <linearGradient id="linear-gradient22" x1="68.41" y1="2867.38" x2="120.29" y2="2867.38" gradientTransform="translate(762.76 2975.69) rotate(-6.67) scale(1 -1)" xlink:href="#linear-gradient12"/>
    <linearGradient id="linear-gradient23" x1="19.34" y1="2944.09" x2="49.22" y2="2944.09" gradientTransform="translate(712.54 3045.57) rotate(-4.13) scale(1 -1)" xlink:href="#linear-gradient12"/>
    <linearGradient id="linear-gradient24" x1="-207.66" y1="1754.91" x2="-193.56" y2="1775.75" gradientTransform="translate(1879.51 1362.04) rotate(-35.62) scale(1.61 -1)" xlink:href="#linear-gradient9"/>
    <linearGradient id="linear-gradient25" x1="-200.34" y1="1742.1" x2="-202.53" y2="1791.92" gradientTransform="translate(1879.51 1362.04) rotate(-35.62) scale(1.61 -1)" xlink:href="#linear-gradient9"/>
    <linearGradient id="linear-gradient26" x1="-180.52" y1="1819.09" x2="-207.81" y2="1747.12" gradientTransform="translate(1879.51 1362.04) rotate(-35.62) scale(1.61 -1)" xlink:href="#linear-gradient8"/>
    <linearGradient id="linear-gradient27" x1="-170.68" y1="-326.15" x2="-126.78" y2="-326.15" gradientTransform="translate(254.46 36.45) rotate(-96.67) scale(1 -1)" xlink:href="#linear-gradient12"/>
    <linearGradient id="linear-gradient28" x1="-81.59" y1="-258.4" x2="-56.3" y2="-258.4" gradientTransform="translate(324.33 86.68) rotate(-94.13) scale(1 -1)" xlink:href="#linear-gradient12"/>
    <linearGradient id="linear-gradient29" x1="685.14" y1="53.01" x2="880.73" y2="53.01" gradientTransform="translate(1437.89) rotate(-180) scale(1 -1)" xlink:href="#linear-gradient8"/>
    <linearGradient id="linear-gradient30" x1="-2199.96" y1="459.75" x2="-2142.46" y2="544.68" gradientTransform="translate(1766.03 -3394.22) rotate(-63.5) scale(1.61 1)" xlink:href="#linear-gradient9"/>
    <linearGradient id="linear-gradient31" x1="-2170.13" y1="407.46" x2="-2179.04" y2="610.69" gradientTransform="translate(1766.03 -3394.22) rotate(-63.5) scale(1.61 1)" xlink:href="#linear-gradient9"/>
    <linearGradient id="linear-gradient32" x1="-2089.12" y1="719.33" x2="-2199.61" y2="427.92" gradientTransform="translate(1766.03 -3394.22) rotate(-63.5) scale(1.61 1)" xlink:href="#linear-gradient8"/>
    <linearGradient id="linear-gradient33" x1="-2976.66" y1="1826.35" x2="-2797.66" y2="1826.35" gradientTransform="translate(3332.73 -1999.03) rotate(-2.46)" xlink:href="#linear-gradient12"/>
    <linearGradient id="linear-gradient34" x1="-2918.78" y1="1796.15" x2="-2815.71" y2="1796.15" gradientTransform="translate(3270.03 -2060.43) rotate(-4.99)" xlink:href="#linear-gradient12"/>
    <linearGradient id="linear-gradient35" x1="-1535.6" y1="25.29" x2="-1496.65" y2="82.82" gradientTransform="translate(-704.83 -1991.02) rotate(-123.6) scale(1.61 1)" xlink:href="#linear-gradient9"/>
    <linearGradient id="linear-gradient36" x1="-1515.39" y1="-10.1" x2="-1521.42" y2="127.51" gradientTransform="translate(-704.83 -1991.02) rotate(-123.6) scale(1.61 1)" xlink:href="#linear-gradient9"/>
    <linearGradient id="linear-gradient37" x1="-1460.7" y1="201.2" x2="-1535.55" y2="3.8" gradientTransform="translate(-704.83 -1991.02) rotate(-123.6) scale(1.61 1)" xlink:href="#linear-gradient8"/>
    <linearGradient id="linear-gradient38" x1="-2788.51" y1="691.4" x2="-2667.23" y2="691.4" gradientTransform="translate(1286.1 -2654.35) rotate(-62.54)" xlink:href="#linear-gradient12"/>
    <linearGradient id="linear-gradient39" x1="-2707.3" y1="658.78" x2="-2637.55" y2="658.78" gradientTransform="translate(1201.88 -2632.06) rotate(-65.08)" xlink:href="#linear-gradient12"/>
    <linearGradient id="linear-gradient40" x1="-1536.25" y1="2540.83" x2="-1509.87" y2="2579.8" gradientTransform="translate(1414.68 -3522.76) rotate(-125.62) scale(1.61 -1)" xlink:href="#linear-gradient9"/>
    <linearGradient id="linear-gradient41" x1="-1522.56" y1="2516.86" x2="-1526.64" y2="2610.09" gradientTransform="translate(1414.68 -3522.76) rotate(-125.62) scale(1.61 -1)" xlink:href="#linear-gradient9"/>
    <linearGradient id="linear-gradient42" x1="-1485.61" y1="2660.1" x2="-1536.33" y2="2526.31" gradientTransform="translate(1414.68 -3522.76) rotate(-125.62) scale(1.61 -1)" xlink:href="#linear-gradient8"/>
    <linearGradient id="linear-gradient43" x1="-551.38" y1="1916.99" x2="-469.25" y2="1916.99" gradientTransform="translate(89.1 -1897.71) rotate(173.33) scale(1 -1)" xlink:href="#linear-gradient12"/>
    <linearGradient id="linear-gradient44" x1="-544.32" y1="1973.34" x2="-497.07" y2="1973.34" gradientTransform="translate(139.32 -1967.58) rotate(175.87) scale(1 -1)" xlink:href="#linear-gradient12"/>
    <linearGradient id="linear-gradient45" x1="-807.06" y1="1188.62" x2="-784.72" y2="1221.61" gradientTransform="translate(-1027.65 -284.05) rotate(144.38) scale(1.61 -1)" xlink:href="#linear-gradient9"/>
    <linearGradient id="linear-gradient46" x1="-795.48" y1="1168.33" x2="-798.94" y2="1247.24" gradientTransform="translate(-1027.65 -284.05) rotate(144.38) scale(1.61 -1)" xlink:href="#linear-gradient9"/>
    <linearGradient id="linear-gradient47" x1="-764.07" y1="1290.26" x2="-807.28" y2="1176.3" gradientTransform="translate(-1027.65 -284.05) rotate(144.38) scale(1.61 -1)" xlink:href="#linear-gradient8"/>
    <linearGradient id="linear-gradient48" x1="-1155.78" y1="238.74" x2="-1086.31" y2="238.74" gradientTransform="translate(597.4 1041.54) rotate(83.33) scale(1 -1)" xlink:href="#linear-gradient12"/>
    <linearGradient id="linear-gradient49" x1="-1079.46" y1="267.49" x2="-1039.44" y2="267.49" gradientTransform="translate(527.53 991.31) rotate(85.87) scale(1 -1)" xlink:href="#linear-gradient12"/>
    <linearGradient id="linear-gradient50" x1="691.2" y1="-100.52" x2="589.75" y2="-32.89" gradientUnits="userSpaceOnUse">
      <stop offset=".96" stop-color="#005b00"/>
      <stop offset=".98" stop-color="#015c00"/>
      <stop offset=".98" stop-color="#086203"/>
      <stop offset=".99" stop-color="#146b07"/>
      <stop offset=".99" stop-color="#257a0d"/>
      <stop offset=".99" stop-color="#3b8c14"/>
      <stop offset="1" stop-color="#56a21e"/>
      <stop offset="1" stop-color="#76bd29"/>
      <stop offset="1" stop-color="#9bdb36"/>
      <stop offset="1" stop-color="#b0ed3e"/>
    </linearGradient>
    <linearGradient id="linear-gradient51" x1="691.98" y1="-99.41" x2="590.5" y2="-31.76" xlink:href="#linear-gradient50"/>
    <linearGradient id="linear-gradient52" x1="692.76" y1="-98.31" x2="591.24" y2="-30.63" xlink:href="#linear-gradient50"/>
    <radialGradient id="radial-gradient2" cx="-66.06" cy="30.67" fx="-66.06" fy="30.67" r="208.21" gradientTransform="translate(831.76 46.62) rotate(90)" xlink:href="#radial-gradient1"/>
    <linearGradient id="linear-gradient53" x1="2586.4" y1="2049.7" x2="2659.19" y2="2341.01" gradientTransform="translate(-1775.35 -2238.36) rotate(2.45)" xlink:href="#linear-gradient1"/>
    <linearGradient id="linear-gradient54" x1="3561.14" y1="92.33" x2="3623.82" y2="343.15" gradientTransform="translate(-2339.34 1928.66) rotate(-34.01)" xlink:href="#linear-gradient1"/>
    <linearGradient id="linear-gradient55" x1="1284.74" y1="2923.73" x2="1357.53" y2="3215.04" gradientTransform="translate(2682.33 2896.65) rotate(169.99)" xlink:href="#linear-gradient1"/>
    <linearGradient id="linear-gradient56" x1="2477.14" y1="1949.39" x2="2549.93" y2="2240.7" gradientTransform="translate(3023.27 2560.26) rotate(-92.45) scale(1 -1)" xlink:href="#linear-gradient1"/>
    <linearGradient id="linear-gradient57" x1="3532.88" y1="-53.29" x2="3595.56" y2="197.56" gradientTransform="translate(-1143.76 3124.25) rotate(-55.99) scale(1 -1)" xlink:href="#linear-gradient1"/>
    <linearGradient id="linear-gradient58" x1="1369.79" y1="3045.21" x2="1442.58" y2="3336.56" gradientTransform="translate(-2111.74 -1897.42) rotate(100.01) scale(1 -1)" xlink:href="#linear-gradient1"/>
    <linearGradient id="linear-gradient59" x1="-1.59" y1="-146.64" x2="106.14" y2="284.51" gradientTransform="translate(831.76 46.62) rotate(90)" xlink:href="#linear-gradient7"/>
    <linearGradient id="linear-gradient60" x1="530.24" y1="1055.64" x2="725.82" y2="1055.64" gradientTransform="translate(-246.23 -539.41) rotate(90) scale(1 -1)" xlink:href="#linear-gradient8"/>
    <linearGradient id="linear-gradient61" x1="-2702.06" y1="1088.26" x2="-2665.76" y2="1141.88" gradientTransform="translate(-3640.45 -867.55) rotate(-153.5) scale(1.61 1)" xlink:href="#linear-gradient9"/>
    <linearGradient id="linear-gradient62" x1="-2683.22" y1="1055.25" x2="-2688.84" y2="1183.54" gradientTransform="translate(-3640.45 -867.55) rotate(-153.5) scale(1.61 1)" xlink:href="#linear-gradient9"/>
    <linearGradient id="linear-gradient63" x1="-2632.09" y1="1252.11" x2="-2701.83" y2="1068.17" gradientTransform="translate(-3640.45 -867.55) rotate(-153.5) scale(1.61 1)" xlink:href="#linear-gradient8"/>
    <linearGradient id="linear-gradient64" x1="-2758.12" y1="2848.24" x2="-2645.12" y2="2848.24" gradientTransform="translate(-2245.26 -2434.25) rotate(-92.46)" xlink:href="#linear-gradient12"/>
    <linearGradient id="linear-gradient65" x1="-2774.69" y1="2813.45" x2="-2709.63" y2="2813.45" gradientTransform="translate(-2306.66 -2371.55) rotate(-94.99)" xlink:href="#linear-gradient12"/>
    <linearGradient id="linear-gradient66" x1="-2100" y1="-371.38" x2="-2075.41" y2="-335.06" gradientTransform="translate(-2237.25 1603.31) rotate(146.4) scale(1.61 1)" xlink:href="#linear-gradient9"/>
    <linearGradient id="linear-gradient67" x1="-2087.24" y1="-393.73" x2="-2091.05" y2="-306.85" gradientTransform="translate(-2237.25 1603.31) rotate(146.4) scale(1.61 1)" xlink:href="#linear-gradient9"/>
    <linearGradient id="linear-gradient68" x1="-2052.71" y1="-260.32" x2="-2099.97" y2="-384.95" gradientTransform="translate(-2237.25 1603.31) rotate(146.4) scale(1.61 1)" xlink:href="#linear-gradient8"/>
    <linearGradient id="linear-gradient69" x1="-3534.59" y1="1301.06" x2="-3458.01" y2="1301.06" gradientTransform="translate(-2900.58 -387.62) rotate(-152.54)" xlink:href="#linear-gradient12"/>
    <linearGradient id="linear-gradient70" x1="-3499.53" y1="1225.76" x2="-3455.44" y2="1225.76" gradientTransform="translate(-2878.3 -303.4) rotate(-155.08)" xlink:href="#linear-gradient12"/>
    <linearGradient id="linear-gradient71" x1="-2093.81" y1="3019.47" x2="-2077.15" y2="3044.06" gradientTransform="translate(-3768.99 -516.2) rotate(144.38) scale(1.61 -1)" xlink:href="#linear-gradient9"/>
    <linearGradient id="linear-gradient72" x1="-2085.16" y1="3004.32" x2="-2087.74" y2="3063.18" gradientTransform="translate(-3768.99 -516.2) rotate(144.38) scale(1.61 -1)" xlink:href="#linear-gradient9"/>
    <linearGradient id="linear-gradient73" x1="-2061.84" y1="3094.75" x2="-2093.86" y2="3010.29" gradientTransform="translate(-3768.99 -516.2) rotate(144.38) scale(1.61 -1)" xlink:href="#linear-gradient8"/>
    <linearGradient id="linear-gradient74" x1="-539.29" y1="2938.22" x2="-487.42" y2="2938.22" gradientTransform="translate(-2143.94 809.39) rotate(83.33) scale(1 -1)" xlink:href="#linear-gradient12"/>
    <linearGradient id="linear-gradient75" x1="-590.88" y1="2987.94" x2="-561" y2="2987.94" gradientTransform="translate(-2213.81 759.16) rotate(85.87) scale(1 -1)" xlink:href="#linear-gradient12"/>
    <linearGradient id="linear-gradient76" x1="-517.08" y1="2111.06" x2="-502.98" y2="2131.89" gradientTransform="translate(-530.28 1926.13) rotate(54.38) scale(1.61 -1)" xlink:href="#linear-gradient9"/>
    <linearGradient id="linear-gradient77" x1="-509.76" y1="2098.24" x2="-511.95" y2="2148.06" gradientTransform="translate(-530.28 1926.13) rotate(54.38) scale(1.61 -1)" xlink:href="#linear-gradient9"/>
    <linearGradient id="linear-gradient78" x1="-489.94" y1="2175.22" x2="-517.22" y2="2103.28" gradientTransform="translate(-530.28 1926.13) rotate(54.38) scale(1.61 -1)" xlink:href="#linear-gradient8"/>
    <linearGradient id="linear-gradient79" x1="-99.84" y1="281.55" x2="-55.94" y2="281.55" gradientTransform="translate(795.31 301.08) rotate(-6.67) scale(1 -1)" xlink:href="#linear-gradient12"/>
    <linearGradient id="linear-gradient80" x1="-37.74" y1="351.83" x2="-12.45" y2="351.83" gradientTransform="translate(745.08 370.95) rotate(-4.13) scale(1 -1)" xlink:href="#linear-gradient12"/>
    <linearGradient id="linear-gradient81" x1="1296.94" y1="53.22" x2="1492.52" y2="53.22" gradientTransform="translate(831.76 1484.52) rotate(-90) scale(1 -1)" xlink:href="#linear-gradient8"/>
    <linearGradient id="linear-gradient82" x1="-2369.77" y1="-87.64" x2="-2312.27" y2="-2.71" gradientTransform="translate(4225.98 1812.65) rotate(26.5) scale(1.61 1)" xlink:href="#linear-gradient9"/>
    <linearGradient id="linear-gradient83" x1="-2339.95" y1="-139.91" x2="-2348.86" y2="63.28" gradientTransform="translate(4225.98 1812.65) rotate(26.5) scale(1.61 1)" xlink:href="#linear-gradient9"/>
    <linearGradient id="linear-gradient84" x1="-2258.92" y1="171.95" x2="-2369.42" y2="-119.47" gradientTransform="translate(4225.98 1812.65) rotate(26.5) scale(1.61 1)" xlink:href="#linear-gradient8"/>
    <linearGradient id="linear-gradient85" x1="-3587.85" y1="1800.31" x2="-3408.88" y2="1800.31" gradientTransform="translate(2830.79 3379.35) rotate(87.54)" xlink:href="#linear-gradient12"/>
    <linearGradient id="linear-gradient86" x1="-3528.34" y1="1743.11" x2="-3425.27" y2="1743.11" gradientTransform="translate(2892.19 3316.65) rotate(85.01)" xlink:href="#linear-gradient12"/>
    <linearGradient id="linear-gradient87" x1="-1325.17" y1="-484.4" x2="-1286.23" y2="-426.89" gradientTransform="translate(2822.78 -658.21) rotate(-33.6) scale(1.61 1)" xlink:href="#linear-gradient9"/>
    <linearGradient id="linear-gradient88" x1="-1304.97" y1="-519.8" x2="-1311" y2="-382.18" gradientTransform="translate(2822.78 -658.21) rotate(-33.6) scale(1.61 1)" xlink:href="#linear-gradient9"/>
    <linearGradient id="linear-gradient89" x1="-1250.29" y1="-308.52" x2="-1325.14" y2="-505.9" gradientTransform="translate(2822.78 -658.21) rotate(-33.6) scale(1.61 1)" xlink:href="#linear-gradient8"/>
    <linearGradient id="linear-gradient90" x1="-3070.8" y1="148.64" x2="-2949.5" y2="148.64" gradientTransform="translate(3486.11 1332.72) rotate(27.46)" xlink:href="#linear-gradient12"/>
    <linearGradient id="linear-gradient91" x1="-2965.31" y1="104.01" x2="-2895.51" y2="104.01" gradientTransform="translate(3463.82 1248.5) rotate(24.92)" xlink:href="#linear-gradient12"/>
    <linearGradient id="linear-gradient92" x1="-1314.78" y1="3038.26" x2="-1288.4" y2="3077.24" gradientTransform="translate(4354.51 1461.3) rotate(-35.62) scale(1.61 -1)" xlink:href="#linear-gradient9"/>
    <linearGradient id="linear-gradient93" x1="-1301.09" y1="3014.28" x2="-1305.18" y2="3107.55" gradientTransform="translate(4354.51 1461.3) rotate(-35.62) scale(1.61 -1)" xlink:href="#linear-gradient9"/>
    <linearGradient id="linear-gradient94" x1="-1264.14" y1="3157.54" x2="-1314.87" y2="3023.75" gradientTransform="translate(4354.51 1461.3) rotate(-35.62) scale(1.61 -1)" xlink:href="#linear-gradient8"/>
    <linearGradient id="linear-gradient95" x1="56.28" y1="1846.14" x2="138.43" y2="1846.14" gradientTransform="translate(2729.46 135.72) rotate(-96.67) scale(1 -1)" xlink:href="#linear-gradient12"/>
    <linearGradient id="linear-gradient96" x1="65.85" y1="1929.48" x2="113.14" y2="1929.48" gradientTransform="translate(2799.34 185.95) rotate(-94.13) scale(1 -1)" xlink:href="#linear-gradient12"/>
    <linearGradient id="linear-gradient97" x1="-497.64" y1="832.47" x2="-475.3" y2="865.48" gradientTransform="translate(1115.81 -981.03) rotate(-125.62) scale(1.61 -1)" xlink:href="#linear-gradient9"/>
    <linearGradient id="linear-gradient98" x1="-486.06" y1="812.18" x2="-489.52" y2="891.1" gradientTransform="translate(1115.81 -981.03) rotate(-125.62) scale(1.61 -1)" xlink:href="#linear-gradient9"/>
    <linearGradient id="linear-gradient99" x1="-454.66" y1="934.09" x2="-497.87" y2="820.15" gradientTransform="translate(1115.81 -981.03) rotate(-125.62) scale(1.61 -1)" xlink:href="#linear-gradient8"/>
    <linearGradient id="linear-gradient100" x1="-1226.62" y1="-368.96" x2="-1157.15" y2="-368.96" gradientTransform="translate(-209.78 644.02) rotate(173.33) scale(1 -1)" xlink:href="#linear-gradient12"/>
    <linearGradient id="linear-gradient101" x1="-1123.38" y1="-342.73" x2="-1083.32" y2="-342.73" gradientTransform="translate(-159.55 574.15) rotate(175.87) scale(1 -1)" xlink:href="#linear-gradient12"/>
    <linearGradient id="linear-gradient102" x1="79.35" y1="-100.28" x2="-22.04" y2="-32.69" gradientTransform="translate(831.76 46.62) rotate(90)" xlink:href="#linear-gradient50"/>
    <linearGradient id="linear-gradient103" x1="80.23" y1="-99.25" x2="-21.31" y2="-31.55" gradientTransform="translate(831.76 46.62) rotate(90)" xlink:href="#linear-gradient50"/>
    <linearGradient id="linear-gradient104" x1="80.97" y1="-98.12" x2="-20.56" y2="-30.44" gradientTransform="translate(831.76 46.62) rotate(90)" xlink:href="#linear-gradient50"/>
  </defs>
  <g class="st49">
    <g id="Layer_1">
      <path class="st22" d="M897,205.21c0,14.85-180.19,26.86-402.52,26.86s-402.48-12.01-402.48-26.86,180.21-26.86,402.48-26.86,402.52,12.01,402.52,26.86Z"/>
      <rect class="st108" x="59" y="36.71" width="853.38" height="168.94"/>
      <g>
        <path class="st95" d="M185.94,70.5v22.13h-4.18v-14.17l.2-3.22-.75,3.66-4.34,12.16h-4.13l-4.33-12.16-.74-3.66.18,3.22v14.17h-4.19v-22.13h5.8l5.06,15.78.27,1.51.27-1.51,5.08-15.78h5.79Z"/>
        <path class="st95" d="M196.94,93.04c-1.46,0-2.77-.31-3.92-.94-1.15-.63-2.04-1.48-2.69-2.57-.65-1.09-.97-2.33-.97-3.73s.32-2.65.97-3.75c.65-1.1,1.55-1.97,2.69-2.62,1.15-.64,2.45-.96,3.92-.96s2.78.32,3.91.96c1.13.64,2.01,1.52,2.65,2.62.64,1.1.96,2.35.96,3.75s-.32,2.64-.96,3.73-1.52,1.95-2.65,2.57c-1.13.62-2.43.94-3.91.94ZM196.94,89.5c.7,0,1.32-.16,1.84-.48.52-.32.92-.76,1.21-1.33s.43-1.2.43-1.92-.14-1.36-.43-1.93-.69-1.02-1.21-1.35c-.52-.33-1.13-.5-1.84-.5s-1.32.17-1.84.5c-.52.33-.93.78-1.22,1.35s-.44,1.21-.44,1.93.15,1.36.44,1.92.7,1.01,1.22,1.33c.52.32,1.13.48,1.84.48Z"/>
        <path class="st95" d="M213.27,93.04c-1.31,0-2.46-.32-3.45-.95s-1.76-1.5-2.31-2.6c-.55-1.1-.83-2.34-.83-3.73s.28-2.63.83-3.73c.55-1.1,1.32-1.97,2.31-2.61.99-.64,2.14-.96,3.45-.96.93,0,1.75.15,2.47.45s1.3.66,1.74,1.07c.44.41.69.78.77,1.11v-11.54h4.28v23.07h-4.23v-2.4c-.18.39-.51.81-.99,1.24-.48.44-1.07.8-1.76,1.11-.69.3-1.45.45-2.28.45ZM214.48,89.65c.72,0,1.36-.16,1.93-.49.57-.33,1.02-.79,1.35-1.38s.49-1.26.49-2.02-.17-1.43-.49-2.02-.78-1.05-1.35-1.38c-.57-.34-1.21-.5-1.93-.5-.66,0-1.26.17-1.81.49-.55.33-.99.79-1.32,1.38s-.49,1.27-.49,2.04.17,1.45.49,2.04.77,1.04,1.32,1.37,1.15.49,1.81.49Z"/>
        <path class="st95" d="M236.41,92.63v-2.4c-.1.25-.36.59-.77,1.04s-.97.85-1.67,1.22-1.52.54-2.46.54c-1.32,0-2.49-.32-3.5-.95s-1.81-1.5-2.39-2.6c-.58-1.1-.86-2.34-.86-3.73s.29-2.63.86-3.73c.58-1.1,1.37-1.97,2.39-2.61,1.02-.64,2.19-.96,3.5-.96.92,0,1.71.15,2.39.46.68.31,1.22.67,1.64,1.07.42.41.69.77.81,1.1v-2.23h4.23v13.77h-4.18ZM228.93,85.76c0,.77.17,1.45.52,2.04.35.59.8,1.04,1.38,1.37s1.19.49,1.86.49c.7,0,1.33-.16,1.88-.49s.98-.79,1.3-1.38c.32-.59.48-1.26.48-2.02s-.16-1.43-.48-2.02c-.32-.59-.75-1.05-1.3-1.38-.55-.34-1.17-.5-1.88-.5s-1.29.17-1.86.49c-.57.33-1.03.79-1.38,1.38-.35.59-.52,1.27-.52,2.04Z"/>
        <path class="st95" d="M168.03,114.45h-5.55v-3.71h15.28v3.71h-5.53v18.43h-4.19v-18.43Z"/>
        <path class="st95" d="M183.77,126.94c.03.63.2,1.19.5,1.68.3.49.74.88,1.32,1.16.58.28,1.27.42,2.09.42.72,0,1.35-.09,1.9-.27s1.02-.4,1.41-.65c.39-.26.67-.51.85-.77l1.78,2.6c-.32.4-.74.77-1.26,1.1-.51.33-1.17.59-1.97.79-.8.2-1.8.29-2.99.29-1.51,0-2.83-.3-3.97-.89s-2.03-1.45-2.67-2.57c-.64-1.12-.96-2.45-.96-3.99,0-1.34.29-2.55.86-3.63.58-1.08,1.41-1.93,2.5-2.56,1.09-.63,2.4-.94,3.93-.94,1.44,0,2.69.28,3.75.83,1.06.55,1.88,1.36,2.46,2.42.58,1.06.87,2.36.87,3.89,0,.09,0,.27,0,.55,0,.28-.02.46-.04.54h-10.33ZM190.16,124.31c-.01-.36-.12-.74-.33-1.16-.21-.41-.53-.77-.97-1.06-.44-.29-1.02-.44-1.74-.44s-1.32.14-1.79.43-.81.63-1.04,1.03-.37.8-.41,1.19h6.27Z"/>
        <path class="st95" d="M204.11,129.89c.73,0,1.32-.12,1.78-.37.46-.25.76-.43.91-.55l1.98,2.93c-.16.12-.45.3-.87.52-.42.22-.96.42-1.62.6s-1.4.26-2.24.26c-1.45,0-2.76-.29-3.91-.88s-2.06-1.43-2.72-2.52c-.67-1.09-1-2.39-1-3.9s.33-2.82,1-3.91c.67-1.08,1.57-1.92,2.72-2.5s2.45-.87,3.91-.87c.83,0,1.56.09,2.21.27s1.18.38,1.62.61c.44.23.74.42.91.56l-2.03,2.95c-.08-.09-.23-.21-.45-.37-.22-.16-.52-.3-.88-.44-.36-.13-.8-.2-1.3-.2-.62,0-1.2.16-1.75.49-.55.32-1,.78-1.35,1.36s-.52,1.26-.52,2.05.17,1.47.52,2.05.8,1.04,1.35,1.37c.55.32,1.14.49,1.75.49Z"/>
        <path class="st95" d="M219.94,118.71c.94,0,1.86.19,2.75.58.89.38,1.63,1,2.21,1.84.58.84.86,1.93.86,3.29v8.47h-4.28v-7.73c0-1.13-.27-1.97-.8-2.52-.53-.55-1.23-.82-2.09-.82-.56,0-1.09.15-1.6.46s-.92.73-1.24,1.27c-.32.54-.48,1.16-.48,1.85v7.48h-4.26v-13.77h4.26v2.2c.12-.38.4-.77.84-1.17s.99-.74,1.66-1.01c.67-.27,1.39-.41,2.16-.41Z"/>
        <path class="st95" d="M235.82,133.28c-1.46,0-2.77-.31-3.92-.94-1.15-.63-2.04-1.48-2.69-2.57-.65-1.09-.97-2.33-.97-3.73s.32-2.65.97-3.75c.65-1.1,1.55-1.97,2.69-2.62,1.15-.64,2.45-.96,3.92-.96s2.78.32,3.91.96c1.13.64,2.01,1.52,2.65,2.62.64,1.1.96,2.35.96,3.75s-.32,2.64-.96,3.73-1.52,1.95-2.65,2.57c-1.13.62-2.43.94-3.91.94ZM235.82,129.74c.7,0,1.32-.16,1.84-.48.52-.32.92-.76,1.21-1.33s.43-1.2.43-1.92-.14-1.36-.43-1.93-.69-1.02-1.21-1.35c-.52-.33-1.13-.5-1.84-.5s-1.32.17-1.84.5c-.52.33-.93.78-1.22,1.35s-.44,1.21-.44,1.93.15,1.36.44,1.92.7,1.01,1.22,1.33c.52.32,1.13.48,1.84.48Z"/>
        <path class="st95" d="M250.5,132.88h-4.28v-23.07h4.28v23.07Z"/>
        <path class="st95" d="M260.88,133.28c-1.46,0-2.77-.31-3.92-.94-1.15-.63-2.04-1.48-2.69-2.57-.65-1.09-.97-2.33-.97-3.73s.32-2.65.97-3.75c.65-1.1,1.55-1.97,2.69-2.62,1.15-.64,2.45-.96,3.92-.96s2.78.32,3.91.96c1.13.64,2.01,1.52,2.65,2.62.64,1.1.96,2.35.96,3.75s-.32,2.64-.96,3.73-1.52,1.95-2.65,2.57c-1.13.62-2.43.94-3.91.94ZM260.88,129.74c.7,0,1.32-.16,1.84-.48.52-.32.92-.76,1.21-1.33s.43-1.2.43-1.92-.14-1.36-.43-1.93-.69-1.02-1.21-1.35c-.52-.33-1.13-.5-1.84-.5s-1.32.17-1.84.5c-.52.33-.93.78-1.22,1.35s-.44,1.21-.44,1.93.15,1.36.44,1.92.7,1.01,1.22,1.33c.52.32,1.13.48,1.84.48Z"/>
        <path class="st95" d="M282.07,132.88v-2.4c-.1.25-.36.59-.77,1.04s-.97.85-1.67,1.22-1.52.54-2.46.54c-1.32,0-2.49-.32-3.5-.95s-1.81-1.5-2.39-2.6c-.58-1.1-.86-2.34-.86-3.73s.29-2.63.86-3.73c.58-1.1,1.37-1.97,2.39-2.61,1.02-.64,2.19-.96,3.5-.96.92,0,1.71.15,2.39.46.68.31,1.22.67,1.64,1.07.42.41.69.77.81,1.1v-2.23h4.23v13.77h-4.18ZM278.22,140.24c-1.01,0-1.97-.09-2.89-.29-.92-.19-1.76-.49-2.51-.89-.75-.4-1.38-.93-1.88-1.58l2.58-2.62c.23.3.54.61.91.91s.85.56,1.43.77c.58.21,1.31.31,2.18.31.83,0,1.54-.16,2.14-.48.6-.32,1.06-.77,1.39-1.35.33-.58.49-1.26.49-2.03v-.39h4.18v.64c0,1.52-.36,2.8-1.07,3.84-.72,1.04-1.68,1.82-2.88,2.35-1.21.53-2.57.79-4.08.79ZM274.59,126c0,.77.17,1.45.52,2.04.35.59.8,1.04,1.38,1.37s1.19.49,1.86.49c.7,0,1.33-.16,1.88-.49s.98-.79,1.3-1.38c.32-.59.48-1.26.48-2.02s-.16-1.43-.48-2.02c-.32-.59-.75-1.05-1.3-1.38-.55-.34-1.17-.5-1.88-.5s-1.29.17-1.86.49c-.57.33-1.03.79-1.38,1.38-.35.59-.52,1.27-.52,2.04Z"/>
        <path class="st95" d="M292.23,115.56c-.7,0-1.3-.25-1.79-.74-.49-.49-.73-1.08-.73-1.76s.25-1.27.74-1.78c.49-.5,1.08-.75,1.78-.75.46,0,.88.12,1.26.34.38.23.69.53.92.91.23.38.35.81.35,1.27,0,.68-.25,1.27-.75,1.76-.5.49-1.09.74-1.79.74ZM290.05,132.88v-13.77h4.24v13.77h-4.24Z"/>
        <path class="st95" d="M305.28,129.89c.73,0,1.32-.12,1.78-.37.46-.25.76-.43.91-.55l1.98,2.93c-.16.12-.45.3-.87.52-.42.22-.96.42-1.62.6s-1.4.26-2.24.26c-1.45,0-2.76-.29-3.91-.88s-2.06-1.43-2.72-2.52c-.67-1.09-1-2.39-1-3.9s.33-2.82,1-3.91c.67-1.08,1.57-1.92,2.72-2.5s2.45-.87,3.91-.87c.83,0,1.56.09,2.21.27s1.18.38,1.62.61c.44.23.74.42.91.56l-2.03,2.95c-.08-.09-.23-.21-.45-.37-.22-.16-.52-.3-.88-.44-.36-.13-.8-.2-1.3-.2-.62,0-1.2.16-1.75.49-.55.32-1,.78-1.35,1.36s-.52,1.26-.52,2.05.17,1.47.52,2.05.8,1.04,1.35,1.37c.55.32,1.14.49,1.75.49Z"/>
        <path class="st95" d="M323.16,132.88v-2.4c-.1.25-.36.59-.77,1.04s-.97.85-1.67,1.22-1.52.54-2.46.54c-1.32,0-2.49-.32-3.5-.95s-1.81-1.5-2.39-2.6c-.58-1.1-.86-2.34-.86-3.73s.29-2.63.86-3.73c.58-1.1,1.37-1.97,2.39-2.61,1.02-.64,2.19-.96,3.5-.96.92,0,1.71.15,2.39.46.68.31,1.22.67,1.64,1.07.42.41.69.77.81,1.1v-2.23h4.23v13.77h-4.18ZM315.68,126c0,.77.17,1.45.52,2.04.35.59.8,1.04,1.38,1.37s1.19.49,1.86.49c.7,0,1.33-.16,1.88-.49s.98-.79,1.3-1.38c.32-.59.48-1.26.48-2.02s-.16-1.43-.48-2.02c-.32-.59-.75-1.05-1.3-1.38-.55-.34-1.17-.5-1.88-.5s-1.29.17-1.86.49c-.57.33-1.03.79-1.38,1.38-.35.59-.52,1.27-.52,2.04Z"/>
        <path class="st95" d="M348.85,118.71c1.03,0,1.93.22,2.69.65.77.44,1.36,1.1,1.79,2,.43.9.65,2.05.65,3.46v8.05h-4.19v-7.36c0-1.16-.17-2.07-.51-2.72-.34-.65-.99-.97-1.94-.97-.54,0-1.03.14-1.48.43-.45.29-.8.7-1.06,1.25s-.39,1.22-.39,2.01v7.36h-3.92v-7.36c0-1.16-.2-2.07-.59-2.72-.39-.65-1.01-.97-1.86-.97-.55,0-1.04.14-1.48.42-.44.28-.79.69-1.04,1.23-.25.54-.38,1.22-.38,2.04v7.36h-4.23v-13.77h4.23v2.01c.12-.35.41-.7.85-1.07.44-.37.99-.68,1.65-.95s1.37-.39,2.13-.39c.83,0,1.51.14,2.06.42.55.28.99.63,1.33,1.07.34.43.6.88.78,1.35.16-.44.46-.87.92-1.31.46-.44,1.03-.8,1.73-1.09.69-.29,1.45-.44,2.26-.44Z"/>
        <path class="st95" d="M360.52,126.94c.03.63.2,1.19.5,1.68.3.49.74.88,1.32,1.16.58.28,1.27.42,2.09.42.72,0,1.35-.09,1.9-.27s1.02-.4,1.41-.65c.39-.26.67-.51.85-.77l1.78,2.6c-.32.4-.74.77-1.26,1.1-.51.33-1.17.59-1.97.79-.8.2-1.8.29-2.99.29-1.51,0-2.83-.3-3.97-.89s-2.03-1.45-2.67-2.57c-.64-1.12-.96-2.45-.96-3.99,0-1.34.29-2.55.86-3.63.58-1.08,1.41-1.93,2.5-2.56,1.09-.63,2.4-.94,3.93-.94,1.44,0,2.69.28,3.75.83,1.06.55,1.88,1.36,2.46,2.42.58,1.06.87,2.36.87,3.89,0,.09,0,.27,0,.55,0,.28-.02.46-.04.54h-10.33ZM366.91,124.31c-.01-.36-.12-.74-.33-1.16-.21-.41-.53-.77-.97-1.06-.44-.29-1.02-.44-1.74-.44s-1.32.14-1.79.43-.81.63-1.04,1.03-.37.8-.41,1.19h6.27Z"/>
        <path class="st95" d="M382.55,118.71c.94,0,1.86.19,2.75.58.89.38,1.63,1,2.21,1.84.58.84.86,1.93.86,3.29v8.47h-4.28v-7.73c0-1.13-.27-1.97-.8-2.52-.53-.55-1.23-.82-2.09-.82-.56,0-1.09.15-1.6.46s-.92.73-1.24,1.27c-.32.54-.48,1.16-.48,1.85v7.48h-4.26v-13.77h4.26v2.2c.12-.38.4-.77.84-1.17s.99-.74,1.66-1.01c.67-.27,1.39-.41,2.16-.41Z"/>
        <path class="st95" d="M390.5,119.11h2.48v-5.65h4.23v5.65h3.25v3.54h-3.25v4.98c0,.66.11,1.17.32,1.54s.55.54,1.01.54c.35,0,.63-.07.85-.21s.36-.24.4-.29l1.51,3.05c-.07.07-.28.18-.65.35-.36.17-.83.32-1.39.46-.56.14-1.2.21-1.9.21-1.26,0-2.31-.37-3.14-1.1-.83-.73-1.24-1.87-1.24-3.41v-6.12h-2.48v-3.54Z"/>
        <path class="st95" d="M406.61,126.94c.03.63.2,1.19.5,1.68.3.49.74.88,1.32,1.16.58.28,1.27.42,2.09.42.72,0,1.35-.09,1.9-.27s1.02-.4,1.41-.65c.39-.26.67-.51.85-.77l1.78,2.6c-.32.4-.74.77-1.26,1.1-.51.33-1.17.59-1.97.79-.8.2-1.8.29-2.99.29-1.51,0-2.83-.3-3.97-.89s-2.03-1.45-2.67-2.57c-.64-1.12-.96-2.45-.96-3.99,0-1.34.29-2.55.86-3.63.58-1.08,1.41-1.93,2.5-2.56,1.09-.63,2.4-.94,3.93-.94,1.44,0,2.69.28,3.75.83,1.06.55,1.88,1.36,2.46,2.42.58,1.06.87,2.36.87,3.89,0,.09,0,.27,0,.55,0,.28-.02.46-.04.54h-10.33ZM413,124.31c-.01-.36-.12-.74-.33-1.16-.21-.41-.53-.77-.97-1.06-.44-.29-1.02-.44-1.74-.44s-1.32.14-1.79.43-.81.63-1.04,1.03-.37.8-.41,1.19h6.27Z"/>
        <path class="st95" d="M171.35,150.59c1.33,0,2.49.15,3.48.44.99.3,1.78.61,2.36.95.59.33.94.55,1.06.65l-2.05,3.4c-.18-.14-.48-.35-.91-.61-.43-.26-.95-.5-1.55-.71-.6-.21-1.26-.31-1.96-.31-1.02,0-1.83.19-2.44.58s-.91.94-.91,1.67c0,.49.16.93.49,1.32s.8.75,1.43,1.08c.63.34,1.41.69,2.32,1.06.8.31,1.57.68,2.31,1.09.73.41,1.39.9,1.96,1.46.58.56,1.03,1.21,1.38,1.95.34.74.51,1.58.51,2.53,0,1.06-.22,1.99-.65,2.78-.43.79-1.02,1.46-1.78,2-.75.54-1.62.94-2.59,1.21s-2,.4-3.07.4c-1.45,0-2.76-.17-3.92-.51-1.16-.34-2.09-.71-2.81-1.1s-1.13-.64-1.26-.75l2.15-3.54c.13.1.39.26.76.49.37.22.83.45,1.38.69.54.23,1.13.44,1.78.6s1.3.25,1.97.25c1.21,0,2.12-.25,2.73-.75s.92-1.16.92-1.96c0-.6-.2-1.13-.59-1.59-.39-.46-.94-.88-1.65-1.27-.71-.39-1.56-.78-2.54-1.18-.98-.41-1.9-.9-2.74-1.45-.84-.55-1.52-1.24-2.04-2.05s-.77-1.81-.77-2.99.33-2.2,1-3.07c.66-.87,1.55-1.55,2.65-2.03,1.1-.48,2.29-.72,3.58-.72Z"/>
        <path class="st95" d="M186.09,165.95c0,1.23.25,2.21.74,2.94.49.73,1.29,1.1,2.38,1.1s1.91-.37,2.4-1.1c.49-.73.74-1.71.74-2.94v-6.59h4.19v7.08c0,1.42-.28,2.66-.85,3.73-.57,1.07-1.4,1.9-2.49,2.48s-2.42.88-3.98.88-2.88-.29-3.97-.88c-1.09-.59-1.92-1.41-2.49-2.48-.57-1.07-.86-2.31-.86-3.73v-7.08h4.19v6.59Z"/>
        <path class="st95" d="M205.76,158.95c.83,0,1.59.08,2.3.23.7.15,1.3.32,1.79.51.49.19.81.35.96.49l-1.46,2.57c-.22-.18-.62-.39-1.2-.64-.58-.25-1.22-.37-1.92-.37-.64,0-1.17.11-1.61.33-.44.22-.65.55-.65.98s.23.78.7,1.04c.47.26,1.12.48,1.96.67.7.15,1.4.37,2.08.66.68.3,1.25.72,1.69,1.27.45.55.67,1.29.67,2.21s-.19,1.66-.58,2.25c-.39.6-.9,1.07-1.53,1.42-.64.35-1.34.59-2.1.74s-1.51.22-2.26.22c-.97,0-1.83-.09-2.57-.28s-1.34-.4-1.82-.64c-.48-.24-.81-.44-1.01-.61l1.46-2.85c.29.26.77.54,1.43.85.67.31,1.38.46,2.15.46s1.44-.14,1.9-.42c.46-.28.7-.65.7-1.12,0-.35-.11-.63-.34-.85s-.53-.4-.92-.54c-.39-.15-.85-.27-1.38-.39-.48-.1-.97-.25-1.48-.44s-.97-.46-1.41-.78-.79-.73-1.06-1.22c-.27-.49-.4-1.07-.4-1.75,0-.87.28-1.6.84-2.19.56-.59,1.29-1.03,2.18-1.34.89-.31,1.85-.46,2.87-.46Z"/>
        <path class="st95" d="M212.87,159.36h2.48v-5.65h4.23v5.65h3.25v3.54h-3.25v4.98c0,.66.11,1.17.32,1.54s.55.54,1.01.54c.35,0,.63-.07.85-.21s.36-.24.4-.29l1.51,3.05c-.07.07-.28.18-.65.35-.36.17-.83.32-1.39.46-.56.14-1.2.21-1.9.21-1.26,0-2.31-.37-3.14-1.1-.83-.73-1.24-1.87-1.24-3.41v-6.12h-2.48v-3.54Z"/>
        <path class="st95" d="M228.98,167.19c.03.63.2,1.19.5,1.68.3.49.74.88,1.32,1.16.58.28,1.27.42,2.09.42.72,0,1.35-.09,1.9-.27s1.02-.4,1.41-.65c.39-.26.67-.51.85-.77l1.78,2.6c-.32.4-.74.77-1.26,1.1-.51.33-1.17.59-1.97.79-.8.2-1.8.29-2.99.29-1.51,0-2.83-.3-3.97-.89s-2.03-1.45-2.67-2.57c-.64-1.12-.96-2.45-.96-3.99,0-1.34.29-2.55.86-3.63.58-1.08,1.41-1.93,2.5-2.56,1.09-.63,2.4-.94,3.93-.94,1.44,0,2.69.28,3.75.83,1.06.55,1.88,1.36,2.46,2.42.58,1.06.87,2.36.87,3.89,0,.09,0,.27,0,.55,0,.28-.02.46-.04.54h-10.33ZM235.37,164.55c-.01-.36-.12-.74-.33-1.16-.21-.41-.53-.77-.97-1.06-.44-.29-1.02-.44-1.74-.44s-1.32.14-1.79.43-.81.63-1.04,1.03-.37.8-.41,1.19h6.27Z"/>
        <path class="st95" d="M251.02,158.95c.94,0,1.86.19,2.75.58.89.38,1.63,1,2.21,1.84.58.84.86,1.93.86,3.29v8.47h-4.28v-7.73c0-1.13-.27-1.97-.8-2.52-.53-.55-1.23-.82-2.09-.82-.56,0-1.09.15-1.6.46s-.92.73-1.24,1.27c-.32.54-.48,1.16-.48,1.85v7.48h-4.26v-13.77h4.26v2.2c.12-.38.4-.77.84-1.17s.99-.74,1.66-1.01c.67-.27,1.39-.41,2.16-.41Z"/>
        <path class="st95" d="M258.96,159.36h2.48v-5.65h4.23v5.65h3.25v3.54h-3.25v4.98c0,.66.11,1.17.32,1.54s.55.54,1.01.54c.35,0,.63-.07.85-.21s.36-.24.4-.29l1.51,3.05c-.07.07-.28.18-.65.35-.36.17-.83.32-1.39.46-.56.14-1.2.21-1.9.21-1.26,0-2.31-.37-3.14-1.1-.83-.73-1.24-1.87-1.24-3.41v-6.12h-2.48v-3.54Z"/>
        <path class="st95" d="M282.74,173.12v-2.4c-.1.25-.36.59-.77,1.04s-.97.85-1.67,1.22-1.52.54-2.46.54c-1.32,0-2.49-.32-3.5-.95s-1.81-1.5-2.39-2.6c-.58-1.1-.86-2.34-.86-3.73s.29-2.63.86-3.73c.58-1.1,1.37-1.97,2.39-2.61,1.02-.64,2.19-.96,3.5-.96.92,0,1.71.15,2.39.46.68.31,1.22.67,1.64,1.07.42.41.69.77.81,1.1v-2.23h4.23v13.77h-4.18ZM275.26,166.25c0,.77.17,1.45.52,2.04.35.59.8,1.04,1.38,1.37s1.19.49,1.86.49c.7,0,1.33-.16,1.88-.49s.98-.79,1.3-1.38c.32-.59.48-1.26.48-2.02s-.16-1.43-.48-2.02c-.32-.59-.75-1.05-1.3-1.38-.55-.34-1.17-.5-1.88-.5s-1.29.17-1.86.49c-.57.33-1.03.79-1.38,1.38-.35.59-.52,1.27-.52,2.04ZM277.09,157.68l-1.31-1.79,5.3-4.51,2.13,2.67-6.12,3.64Z"/>
        <path class="st95" d="M289.13,159.36h4.56l3.77,9.88,3.77-9.88h4.54l-5.82,13.77h-5l-5.84-13.77Z"/>
        <path class="st95" d="M311.27,167.19c.03.63.2,1.19.5,1.68.3.49.74.88,1.32,1.16.58.28,1.27.42,2.09.42.72,0,1.35-.09,1.9-.27s1.02-.4,1.41-.65c.39-.26.67-.51.85-.77l1.78,2.6c-.32.4-.74.77-1.26,1.1-.51.33-1.17.59-1.97.79-.8.2-1.8.29-2.99.29-1.51,0-2.83-.3-3.97-.89s-2.03-1.45-2.67-2.57c-.64-1.12-.96-2.45-.96-3.99,0-1.34.29-2.55.86-3.63.58-1.08,1.41-1.93,2.5-2.56,1.09-.63,2.4-.94,3.93-.94,1.44,0,2.69.28,3.75.83,1.06.55,1.88,1.36,2.46,2.42.58,1.06.87,2.36.87,3.89,0,.09,0,.27,0,.55,0,.28-.02.46-.04.54h-10.33ZM317.65,164.55c-.01-.36-.12-.74-.33-1.16-.21-.41-.53-.77-.97-1.06-.44-.29-1.02-.44-1.74-.44s-1.32.14-1.79.43-.81.63-1.04,1.03-.37.8-.41,1.19h6.27Z"/>
        <path class="st95" d="M328.82,173.12h-4.28v-23.07h4.28v23.07Z"/>
      </g>
      <g class="st110">
        <g>
          <g>
            <g>
              <circle class="st45" cx="655.97" cy="32.91" r="90.64" transform="translate(-.25 60.45) rotate(-5.27)"/>
              <g>
                <g>
                  <g>
                    <path class="st27" d="M651.44,108.25c-55.35-7.05-105.37-36.54-82.83-88.53-3.41,6.89-6.61,13.74-9.33,20.47-14.11,31.52-8.35,51.4,12.73,68.44,20.22,16.5,55.8,30.14,82.52,35.8,28.45,5.67,46.34-4.72,65.79-26.11,18.24-20.85,38.06-52.67,43.28-77.98.94-5.67,1.05-10.96.16-15.89-16.1,41.44-61.76,90.83-112.33,83.79Z"/>
                    <path class="st1" d="M701.46,88.94c-42.53,36.01-88.74,16.85-130.88-19.61,3.22,4.91,7.14,9.99,11.6,15.17,21.63,23.24,46.03,46.24,67.57,53.61,22.12,8.09,41.44.53,66.56-20.38,23.69-21.21,46.56-44.8,51.64-67.01,6.08-22.68-5.68-43.99-28.3-71.06-4.71-5.7-9.61-11.29-14.45-16.6,36.26,47.62,22.58,90.61-23.73,125.88Z"/>
                    <path class="st76" d="M644.3-39.15c55.58-5.06,110.75,12.96,100.01,68.58,1.79-7.47,3.45-14.86,4.66-22,6.98-33.84-2.94-51.99-27.21-64.09-23.33-11.72-60.99-17.38-88.31-17.1-28.98.56-44.24,14.58-58.57,39.64-13.37,24.32-25.82,59.68-25.46,85.5.28,5.74,1.34,10.91,3.25,15.54,6.77-43.96,40.7-102.02,91.63-106.06Z"/>
                  </g>
                  <g>
                    <path class="st68" d="M731.65,28.04c-7.04-55.34-36.55-105.34-88.54-82.85,6.89-3.36,13.77-6.58,20.48-9.3,31.51-14.14,51.37-8.34,68.42,12.71,16.48,20.26,30.18,55.8,35.82,82.54,5.66,28.45-4.74,46.37-26.09,65.8-20.87,18.24-52.7,38.04-77.99,43.24-5.67,1-10.96,1.09-15.88.21,41.44-16.1,90.83-61.75,83.79-112.35Z"/>
                    <path class="st74" d="M712.32,78.05c36.02-42.53,16.87-88.71-19.58-130.91,4.93,3.26,9.98,7.16,15.14,11.63,23.29,21.65,46.25,46,53.64,67.56,8.06,22.14.52,41.47-20.39,66.57-21.21,23.7-44.77,46.57-67.01,51.65-22.7,6.05-43.99-5.67-71.07-28.3-5.65-4.72-11.28-9.61-16.6-14.46,47.68,36.27,90.64,22.56,125.88-23.73Z"/>
                    <path class="st93" d="M584.24,20.91c-5.08,55.58,12.94,110.77,68.56,99.98-7.42,1.81-14.83,3.45-22,4.71-33.79,6.96-51.98-2.95-64.08-27.21-11.72-23.35-17.4-60.99-17.1-88.32.56-28.98,14.6-44.23,39.65-58.6,24.3-13.33,59.65-25.81,85.49-25.43,5.74.27,10.91,1.31,15.54,3.23-43.96,6.77-102.03,40.72-106.06,91.64Z"/>
                  </g>
                </g>
                <path class="st10" d="M763.78,15.2c-3.37-11.63-7.88-23.94-13.16-35.37-1.71-12.54-7.5-21.89-17.06-29.2-.5-.71-1-1.39-1.55-2.02-12.09-14.95-25.63-22.15-43.71-20.04-4.13-1.43-8.62-2.32-13.53-2.52-5.33-.09-11.02.41-16.97,1.31-8.54-.84-16.82-1.22-24.33-1.12-25.37.5-40.17,11.29-53.1,30.71-19.47,12.94-30.25,27.77-30.74,53.13-.1,7.5.31,15.79,1.14,24.33-.93,5.95-1.4,11.66-1.33,16.97.25,4.93,1.11,9.43,2.51,13.52-2.07,18.09,5.11,31.64,20.08,43.74.64.55,1.31,1.05,1.98,1.55,7.35,9.52,16.66,15.3,29.19,17.02,11.45,5.31,23.77,9.83,35.45,13.19,9.59,4.4,18.82,6.4,28.1,5.46,21.68.83,37.09-9.36,53.6-27.52,3.19-3.62,6.39-7.62,9.58-11.81,4.22-3.19,8.17-6.43,11.82-9.58,18.11-16.51,28.32-31.92,27.54-53.57.94-9.34-1.05-18.57-5.49-28.17ZM644.3-39.15c23.09-2.1,46.09-.22,64.34,6.69,7.11,10.3,12.94,20.73,16.93,31.23,2.66,9,4.65,18.52,5.92,28.26.52,17.27-5.08,34.4-19.17,51.03-1.57,2.1-3.2,4.1-4.84,6.06-1.96,1.62-3.96,3.23-6.02,4.83-16.62,14.05-33.78,19.69-51.05,19.18-9.71-1.3-19.24-3.28-28.23-5.96-10.49-4-20.95-9.78-31.25-16.91-6.91-18.27-8.8-41.28-6.69-64.34,1.25-15.95,7.82-30.19,17.56-42.47,12.31-9.77,26.56-16.32,42.5-17.59Z"/>
              </g>
              <g>
                <path class="st37" d="M582.35,96.48c-12.32-14.11-20.29-31.88-22.59-50.49-2.38-18.57.89-37.85,9.27-54.63,8.34-16.81,21.85-31.03,38.18-40.36,16.31-9.39,35.46-13.71,54.28-12.37,18.82,1.28,37.22,8.25,52.14,19.89,14.93,11.57,26.39,27.63,32.36,45.61,6.02,17.96,6.57,37.73,1.55,56.03-4.94,18.34-15.51,35.12-29.9,47.56,14.49-12.34,25.22-29.06,30.34-47.44,5.17-18.36,4.8-38.27-1.15-56.43-5.87-18.2-17.34-34.53-32.39-46.38-15.02-11.91-33.68-19.15-52.82-20.62-19.16-1.52-38.74,2.75-55.5,12.22-16.78,9.42-30.74,23.86-39.46,41.08-8.75,17.19-12.26,37-9.96,56.21,2.21,19.2,10.36,37.72,22.96,52.37l2.7-2.27Z"/>
                <g>
                  <g>
                    <path class="st28" d="M643.93,128.02c3.87.35,7.25,1.18,10.05,2.18.04-.06.12-.18.16-.27-2.64-1.45-5.5-3.45-8.28-6.17-9.16-8.94-27.09-54.4-55.31-22.7l-.34.91c-6.06,39.84,40.8,24.91,53.72,26.03Z"/>
                    <path class="st12" d="M653.21,129.38c-2.37-1.36-4.9-3.19-7.35-5.61-8.97-8.74-26.95-55.02-55.35-22.65l62.7,28.26Z"/>
                    <path class="st38" d="M578.44,96.5l17.12,7.54c-.33,3.75-.16,7.3.37,10.55.59,3.45,1.54,6.66,2.94,9.37-1.26-2.86-2.08-6.15-2.5-9.67-.4-3.11-.41-6.46-.06-9.9l8.9,3.98c-.16,3.08.1,5.98.66,8.59.61,2.68,1.49,5.15,2.73,7.17-1.15-2.14-1.9-4.69-2.41-7.42-.41-2.51-.53-5.22-.34-8.06l3.01,1.34.02.03v-.02s5.46,2.45,5.46,2.45c-.12,3.02.12,5.86.68,8.43.6,2.67,1.49,5.12,2.73,7.19-1.14-2.18-1.9-4.71-2.38-7.44-.43-2.45-.56-5.14-.38-7.9l9.99,4.47c.25,2.36.81,4.44,1.62,6.29.84,1.86,1.91,3.45,3.22,4.69-1.24-1.33-2.21-3.07-2.95-4.96-.65-1.74-1.08-3.66-1.27-5.74l4.25,1.9h-.01.01l24.13,10.8-23.48-11.17c1.18-.72,2.42-1.31,3.6-1.65,1.43-.4,2.82-.59,4.13-.46-1.28-.21-2.67-.12-4.09.19-1.34.32-2.75.87-4.13,1.7l-11.75-5.59c2.17-1.9,4.44-3.45,6.74-4.63,2.46-1.27,4.97-2.18,7.38-2.57-2.39.24-4.88.99-7.38,2.14-2.48,1.12-4.99,2.7-7.39,4.75l-7.78-3.69c2.04-1.73,4.15-3.16,6.27-4.27,2.45-1.24,4.97-2.17,7.36-2.55-2.36.22-4.87.99-7.36,2.13-2.32,1.06-4.66,2.52-6.92,4.37l-9.76-4.62c2.58-2.43,5.3-4.49,8.07-6.08,3.07-1.77,6.2-3.14,9.22-3.81-3,.49-6.14,1.67-9.24,3.28-3,1.55-5.99,3.63-8.86,6.21l-19.66-8.69"/>
                    <path class="st55" d="M630.65,127.4s-42.62,8.53-38.84-16.82c0,0-4.46,22.34,38.84,16.82Z"/>
                    <path class="st103" d="M636.73,112.33s-14.34-22.83-24.02-20.56c0,0,8.19-1.36,24.02,20.56Z"/>
                  </g>
                  <g>
                    <g>
                      <path class="st73" d="M621,71.53c1.52-2.14,3.14-3.85,4.68-5.17-.03-.06-.07-.12-.1-.18-1.74,1.05-3.88,2.07-6.42,2.79-8.34,2.35-41.08-2.48-32.01,24.79l.44.5c21.31,17.02,28.39-15.54,33.41-22.74Z"/>
                      <path class="st84" d="M624.94,66.56c-1.61.9-3.54,1.79-5.78,2.42-8.16,2.29-41.39-2.77-31.99,24.82l37.78-27.24Z"/>
                      <path class="st41" d="M580.64,99.6l9.95-7.78c2.08,1.46,4.24,2.57,6.3,3.36,2.24.81,4.43,1.33,6.51,1.45-2.11-.22-4.31-.87-6.52-1.8-1.96-.83-3.93-1.96-5.83-3.34l5.34-3.87c1.76,1.14,3.54,1.96,5.27,2.51,1.77.56,3.51.87,5.14.83-1.65-.06-3.39-.47-5.15-1.11-1.62-.61-3.28-1.45-4.86-2.51l1.79-1.31h.03s-.01,0,0-.01l3.28-2.38c1.73,1.09,3.47,1.91,5.19,2.47,1.76.53,3.48.86,5.12.81-1.65-.07-3.41-.47-5.18-1.11-1.58-.59-3.17-1.42-4.75-2.46l6.01-4.34c1.45.65,2.88,1.02,4.22,1.16,1.39.13,2.7.06,3.87-.29-1.21.28-2.55.25-3.93.06-1.24-.21-2.51-.61-3.79-1.21l2.54-1.84h.02-.02l14.51-10.52-14.49,10.01c-.03-.94.06-1.84.25-2.66.25-.97.61-1.86,1.12-2.58-.56.68-.97,1.51-1.24,2.45-.3.91-.44,1.9-.43,3.01l-7.25,5c-.38-1.92-.53-3.78-.44-5.52.09-1.89.4-3.66.97-5.2-.65,1.48-1.06,3.22-1.22,5.05-.18,1.84-.1,3.85.28,5.95l-4.81,3.32c-.3-1.77-.43-3.5-.36-5.12.09-1.87.38-3.64.97-5.19-.65,1.49-1.06,3.2-1.22,5.06-.16,1.71-.09,3.59.22,5.53l-6.02,4.16c-.55-2.35-.83-4.63-.84-6.79,0-2.42.28-4.71.89-6.71-.72,1.92-1.09,4.18-1.18,6.54-.09,2.29.1,4.75.67,7.3l-12.06,8.37"/>
                      <path class="st86" d="M616.15,79.1s-9.37,27.94-22.98,17.15c0,0,11.62,10.15,22.98-17.15Z"/>
                      <path class="st29" d="M609.36,70.44s-18.25.74-20.16,7.19c0,0,1.95-5.27,20.16-7.19Z"/>
                    </g>
                    <g>
                      <path class="st54" d="M553.51,117.99c-1.74.44-3.2,1.06-4.4,1.73-.03-.03-.04-.06-.09-.12,1.09-.84,2.24-1.96,3.31-3.38,3.5-4.72,8.31-26.62,23.41-14.33l.21.41c5.64,17.59-16.66,14.24-22.43,15.69Z"/>
                      <path class="st67" d="M549.41,119.28c.97-.81,1.98-1.81,2.92-3.07,3.42-4.62,8.21-26.89,23.42-14.3l-26.34,17.37Z"/>
                      <path class="st17" d="M580.99,99.14l-7.3,4.47c.41,1.67.59,3.29.59,4.81-.01,1.59-.22,3.1-.63,4.44.37-1.39.47-2.94.43-4.56-.06-1.45-.3-2.94-.71-4.49l-3.75,2.45c.32,1.37.4,2.71.34,3.94-.09,1.25-.31,2.43-.71,3.45.34-1.05.52-2.27.55-3.53,0-1.18-.15-2.42-.44-3.69l-1.27.83h.01-.01s-2.32,1.5-2.32,1.5c.29,1.37.4,2.67.32,3.88-.07,1.25-.29,2.44-.72,3.44.37-1.06.53-2.26.55-3.54.02-1.14-.12-2.36-.4-3.6l-4.21,2.76c.06,1.08-.03,2.08-.27,2.95-.25.92-.62,1.73-1.11,2.38.44-.69.77-1.55.96-2.46.18-.83.22-1.74.16-2.69l-1.79,1.17h-.01l-10.14,6.66,9.83-6.77c-.59-.25-1.2-.41-1.76-.47-.68-.09-1.31-.07-1.9.07.56-.19,1.2-.24,1.86-.21.63.06,1.31.19,1.99.47l4.93-3.41c-1.14-.68-2.26-1.24-3.41-1.61-1.19-.37-2.39-.62-3.51-.61,1.09-.06,2.27.09,3.5.41,1.21.34,2.45.87,3.7,1.62l3.25-2.24c-1.06-.62-2.11-1.12-3.14-1.46-1.23-.38-2.42-.62-3.53-.62,1.08-.07,2.27.1,3.48.41,1.14.32,2.3.81,3.45,1.49l4.09-2.8c-1.36-.93-2.73-1.64-4.12-2.18-1.51-.56-3.03-.96-4.44-1.05,1.4.01,2.89.31,4.43.83,1.46.49,2.98,1.21,4.46,2.17l7.93-5.83"/>
                      <path class="st48" d="M559.48,116.73s19.95.77,16.38-10.43c0,0,3.64,9.8-16.38,10.43Z"/>
                      <path class="st32" d="M555.62,110.36s4.85-11.39,9.4-11.05c0,0-3.81-.03-9.4,11.05Z"/>
                    </g>
                    <g>
                      <path class="st42" d="M596.61,120.97c.38,1.48.9,2.72,1.46,3.75-.03,0-.07.06-.09.06-.72-.91-1.67-1.9-2.88-2.79-4-2.97-22.53-7.05-12.13-19.83l.34-.18c14.91-4.78,12.07,14.12,13.3,18.99Z"/>
                      <path class="st81" d="M597.7,124.45c-.66-.81-1.52-1.68-2.6-2.46-3.91-2.91-22.76-6.97-12.1-19.83l14.7,22.3Z"/>
                      <path class="st26" d="M581.05,97.34l3.38,6.55c1.4-.35,2.79-.52,4.07-.5,1.36,0,2.64.18,3.78.55-1.18-.31-2.5-.41-3.87-.37-1.21.04-2.51.25-3.81.61l2.08,3.17c1.18-.27,2.29-.35,3.34-.3,1.08.07,2.07.25,2.91.61-.87-.31-1.9-.44-2.98-.46-.99,0-2.04.12-3.11.37l.71,1.08h0v.02l1.28,1.93c1.15-.24,2.24-.32,3.26-.27,1.06.06,2.07.25,2.94.61-.91-.3-1.93-.44-3.02-.46-.95,0-1.99.09-3.03.34l2.32,3.57c.9-.07,1.76.03,2.52.24.75.19,1.45.5,1.99.93-.59-.38-1.31-.66-2.08-.83-.71-.15-1.48-.19-2.29-.13l.99,1.52h0s0,0,0,0l5.64,8.6-5.72-8.34c-.21.5-.35,1-.41,1.49-.07.56-.04,1.12.08,1.61-.16-.49-.21-1-.18-1.58.03-.53.16-1.11.38-1.68l-2.86-4.18c-.59.94-1.03,1.92-1.36,2.88-.32,1.02-.53,2.02-.53,2.98-.06-.91.08-1.92.35-2.97.3-1,.75-2.07,1.39-3.11l-1.91-2.76c-.53.89-.96,1.79-1.24,2.67-.34,1.02-.53,2.04-.53,2.98-.06-.92.09-1.93.35-2.97.27-.96.68-1.93,1.27-2.92l-2.39-3.45c-.77,1.15-1.39,2.32-1.83,3.48-.5,1.28-.83,2.55-.9,3.76.01-1.18.26-2.46.69-3.75.41-1.24,1.02-2.52,1.84-3.79l-5.18-6.66"/>
                      <path class="st21" d="M595.56,115.92s.65-16.88-8.84-13.86c0,0,8.29-3.08,8.84,13.86Z"/>
                      <path class="st59" d="M590.16,119.18s-9.65-4.1-9.37-7.95c0,0-.01,3.23,9.37,7.95Z"/>
                    </g>
                  </g>
                </g>
              </g>
              <path class="st50" d="M726.4-21.29c12.32,14.11,20.28,31.86,22.59,50.47,2.36,18.56-.87,37.85-9.28,54.63-8.32,16.82-21.83,31.03-38.16,40.36-16.31,9.4-35.46,13.71-54.28,12.38-18.82-1.3-37.22-8.26-52.14-19.91-14.93-11.57-26.4-27.63-32.36-45.62-6.02-17.94-6.57-37.72-1.55-56.03,4.93-18.34,15.5-35.11,29.9-47.56-14.49,12.34-25.22,29.06-30.33,47.45-5.18,18.36-4.81,38.27,1.14,56.43,5.89,18.2,17.34,34.53,32.39,46.38,15.02,11.92,33.68,19.15,52.82,20.6,19.14,1.53,38.74-2.71,55.5-12.19,16.78-9.43,30.74-23.88,39.45-41.1,8.77-17.19,12.28-37,9.99-56.21-2.23-19.2-10.37-37.72-22.98-52.37l-2.7,2.29Z"/>
              <g>
                <g>
                  <path class="st44" d="M627.89-70.72c-6.12-.56-11.48-1.86-15.92-3.45-.07.15-.18.28-.25.43,4.18,2.3,8.72,5.46,13.12,9.77,14.51,14.15,42.9,86.15,87.62,35.96l.52-1.46c9.62-63.09-64.64-39.46-85.08-41.25Z"/>
                  <path class="st69" d="M613.19-72.89c3.76,2.23,7.75,5.09,11.64,8.91,14.2,13.86,42.68,87.16,87.67,35.91l-99.32-44.82Z"/>
                  <path class="st16" d="M731.65-20.78l-27.12-11.94c.49-5.92.25-11.56-.61-16.72-.91-5.45-2.42-10.52-4.65-14.82,2.01,4.52,3.29,9.74,3.95,15.3.62,4.92.65,10.23.08,15.67l-14.08-6.29c.25-4.91-.13-9.49-1.05-13.64-.96-4.25-2.36-8.15-4.34-11.36,1.83,3.4,3.04,7.42,3.81,11.75.68,4.01.86,8.31.56,12.79l-4.78-2.14v-.04s-.04.01-.04.01l-8.63-3.87c.2-4.8-.16-9.3-1.06-13.35-.96-4.24-2.36-8.13-4.34-11.35,1.8,3.4,3.04,7.42,3.78,11.75.68,3.9.89,8.13.59,12.5l-15.82-7.07c-.37-3.73-1.27-7.04-2.57-9.95-1.33-2.92-3.01-5.52-5.09-7.47,1.96,2.12,3.5,4.84,4.66,7.86,1.05,2.76,1.74,5.8,2.04,9.09l-6.74-3v-.02s0,0,0,0l-38.22-17.12,37.2,17.71c-1.9,1.15-3.84,2.07-5.73,2.61-2.24.64-4.46.93-6.54.74,2.02.33,4.22.18,6.49-.31,2.11-.52,4.32-1.37,6.52-2.7l18.61,8.87c-3.44,3-7.04,5.48-10.68,7.35-3.9,1.99-7.87,3.44-11.67,4.06,3.76-.37,7.72-1.58,11.7-3.39,3.89-1.79,7.9-4.28,11.7-7.51l12.31,5.83c-3.22,2.74-6.57,5.02-9.93,6.76-3.9,1.98-7.88,3.44-11.67,4.04,3.76-.34,7.72-1.56,11.67-3.37,3.66-1.68,7.39-4,10.96-6.94l15.45,7.36c-4.09,3.82-8.41,7.07-12.79,9.61-4.85,2.81-9.81,4.96-14.62,6.04,4.77-.78,9.74-2.64,14.67-5.21,4.74-2.46,9.48-5.74,14.02-9.84l31.12,13.78"/>
                  <path class="st11" d="M648.92-69.71s67.53-13.53,61.52,26.64c0,0,7.07-35.42-61.52-26.64Z"/>
                  <path class="st5" d="M639.28-45.85s22.73,36.17,38.06,32.56c0,0-12.96,2.16-38.06-32.56Z"/>
                </g>
                <g>
                  <g>
                    <path class="st25" d="M664.21,18.77c-2.39,3.41-4.97,6.11-7.41,8.19.06.09.12.19.16.28,2.77-1.67,6.15-3.28,10.17-4.41,13.21-3.73,65.06,3.91,50.69-39.27l-.66-.8c-33.78-26.96-45,24.62-52.95,36.01Z"/>
                    <path class="st3" d="M657.98,26.67c2.55-1.45,5.61-2.83,9.15-3.84,12.93-3.65,65.58,4.38,50.68-39.33l-59.83,43.16Z"/>
                    <path class="st19" d="M728.14-25.68l-15.76,12.31c-3.29-2.3-6.69-4.07-9.98-5.31-3.54-1.3-7.01-2.12-10.3-2.29,3.34.35,6.83,1.39,10.33,2.85,3.1,1.31,6.21,3.08,9.22,5.28l-8.46,6.11c-2.77-1.8-5.61-3.1-8.32-3.98-2.83-.87-5.58-1.36-8.15-1.28,2.61.07,5.37.74,8.16,1.74,2.57.94,5.19,2.29,7.69,3.98l-2.86,2.08h-.01s-5.19,3.78-5.19,3.78c-2.73-1.73-5.49-3.03-8.21-3.88-2.79-.87-5.55-1.36-8.11-1.28,2.61.07,5.38.72,8.19,1.76,2.49.9,5.05,2.21,7.51,3.88l-9.5,6.86c-2.27-1.02-4.56-1.61-6.69-1.83-2.18-.21-4.28-.09-6.12.46,1.92-.44,4.04-.4,6.23-.07,1.95.31,3.97.95,6.01,1.9l-4.03,2.91h-.01.01s-22.98,16.68-22.98,16.68l22.96-15.86c.04,1.5-.09,2.95-.41,4.23-.37,1.52-.95,2.94-1.76,4.09.89-1.06,1.54-2.41,1.98-3.91.46-1.42.69-3.01.65-4.75l11.47-7.92c.62,3.04.85,5.99.72,8.75-.15,2.97-.62,5.77-1.56,8.22,1.05-2.33,1.7-5.08,1.96-8,.28-2.91.16-6.08-.44-9.42l7.58-5.27c.49,2.82.71,5.55.59,8.13-.15,2.97-.62,5.77-1.55,8.2,1.03-2.33,1.68-5.06,1.95-7.98.25-2.73.15-5.68-.35-8.78l9.52-6.6c.89,3.72,1.33,7.33,1.34,10.76,0,3.81-.43,7.45-1.4,10.63,1.14-3.06,1.73-6.6,1.9-10.34.13-3.63-.19-7.53-1.06-11.56l19.07-13.25"/>
                    <path class="st80" d="M671.9,6.79s14.86-44.23,36.39-27.15c0,0-18.37-16.07-36.39,27.15Z"/>
                    <path class="st4" d="M682.66,20.48s28.92-1.15,31.93-11.35c0,0-3.08,8.32-31.93,11.35Z"/>
                  </g>
                  <g>
                    <path class="st62" d="M771.11-54.81c2.75-.69,5.06-1.68,6.97-2.73.04.04.07.1.15.18-1.74,1.34-3.57,3.1-5.25,5.37-5.53,7.48-13.16,42.16-37.07,22.68l-.31-.63c-8.96-27.86,26.39-22.58,35.52-24.87Z"/>
                    <path class="st111" d="M777.61-56.86c-1.54,1.28-3.13,2.86-4.63,4.87-5.42,7.32-12.99,42.59-37.08,22.65l41.72-27.52Z"/>
                    <path class="st58" d="M727.58-24.97l11.57-7.05c-.63-2.64-.94-5.21-.93-7.62.01-2.55.34-4.94,1.02-7.05-.58,2.18-.77,4.65-.69,7.21.1,2.29.47,4.68,1.14,7.11l5.92-3.9c-.49-2.18-.63-4.29-.55-6.23.15-1.99.5-3.87,1.15-5.48-.56,1.68-.81,3.6-.86,5.59,0,1.89.21,3.84.68,5.84l2.02-1.31h-.01.01s3.65-2.39,3.65-2.39c-.47-2.17-.62-4.22-.5-6.14.12-1.98.47-3.84,1.15-5.44-.58,1.68-.86,3.59-.87,5.59-.04,1.82.21,3.75.64,5.7l6.65-4.35c-.09-1.7.06-3.26.43-4.69.4-1.42.99-2.72,1.76-3.76-.71,1.11-1.21,2.46-1.52,3.93-.26,1.31-.37,2.75-.25,4.28l2.8-1.86v-.03s.03.01.03.01l16.07-10.54-15.58,10.73c.96.4,1.91.66,2.77.75,1.09.15,2.11.12,3.04-.12-.9.29-1.92.38-2.97.32-.99-.09-2.07-.31-3.14-.75l-7.78,5.39c1.77,1.11,3.56,1.96,5.36,2.55,1.91.61,3.81.99,5.58.97-1.74.1-3.62-.16-5.55-.66-1.9-.53-3.88-1.37-5.84-2.57l-5.15,3.56c1.67.99,3.33,1.79,4.99,2.32,1.92.61,3.82.99,5.58.97-1.71.12-3.58-.15-5.52-.66-1.79-.5-3.65-1.29-5.46-2.35l-6.48,4.44c2.16,1.48,4.32,2.6,6.49,3.45,2.41.9,4.81,1.51,7.07,1.65-2.23-.01-4.59-.49-7.01-1.3-2.33-.77-4.74-1.92-7.08-3.44l-12.53,9.24"/>
                    <path class="st34" d="M761.65-52.82s-31.58-1.23-25.93,16.54c0,0-5.77-15.54,25.93-16.54Z"/>
                    <path class="st109" d="M767.75-42.71s-7.66,18.03-14.86,17.49c0,0,6.02.06,14.86-17.49Z"/>
                  </g>
                  <g>
                    <path class="st104" d="M702.84-59.53c-.59-2.33-1.43-4.28-2.33-5.9.07-.04.13-.09.16-.12,1.15,1.45,2.63,3,4.56,4.43,6.33,4.68,35.7,11.16,19.21,31.39l-.55.28c-23.61,7.58-19.11-22.34-21.06-30.08Z"/>
                    <path class="st46" d="M701.12-65.04c1.08,1.29,2.42,2.66,4.12,3.91,6.2,4.57,36.07,11.01,19.17,31.4l-23.29-35.31Z"/>
                    <path class="st106" d="M727.51-22.11l-5.37-10.36c-2.23.53-4.4.81-6.45.78-2.14-.02-4.18-.28-5.98-.87,1.86.5,3.94.65,6.12.6,1.92-.09,3.95-.41,6.02-.97l-3.29-5.02c-1.86.41-3.63.55-5.3.44-1.67-.09-3.25-.38-4.62-.96,1.42.5,3.04.71,4.77.72,1.56.03,3.22-.16,4.91-.56l-1.12-1.7h0s.01-.01,0-.03l-2.02-3.06c-1.83.37-3.57.5-5.17.41-1.68-.1-3.28-.41-4.66-.97,1.45.49,3.05.71,4.78.74,1.51,0,3.16-.16,4.81-.55l-3.67-5.64c-1.45.09-2.78-.06-4-.38-1.18-.31-2.29-.8-3.16-1.49.93.62,2.08,1.06,3.31,1.33,1.12.22,2.33.3,3.62.19l-1.56-2.39h-.01s.01,0,.01,0l-8.96-13.61,9.09,13.18c.35-.8.59-1.59.66-2.36.1-.9.07-1.77-.12-2.54.25.75.32,1.59.26,2.51-.04.84-.25,1.74-.6,2.67l4.53,6.58c.96-1.49,1.67-3.04,2.16-4.56.55-1.61.85-3.22.84-4.71.1,1.45-.12,3.04-.56,4.69-.46,1.61-1.18,3.29-2.18,4.94l3.01,4.37c.86-1.4,1.52-2.83,1.98-4.24.51-1.62.83-3.23.84-4.71.09,1.46-.13,3.05-.58,4.68-.43,1.52-1.09,3.07-1.99,4.62l3.76,5.47c1.22-1.81,2.2-3.66,2.92-5.5.77-2.02,1.27-4.06,1.42-5.98-.03,1.89-.43,3.9-1.11,5.95-.67,1.96-1.62,4.02-2.92,5.99l8.22,10.55"/>
                    <path class="st102" d="M704.51-51.52s-1.03,26.73,14.01,21.93c0,0-13.15,4.88-14.01-21.93Z"/>
                    <path class="st52" d="M713.09-56.7s15.26,6.49,14.82,12.59c0,0,.03-5.11-14.82-12.59Z"/>
                  </g>
                </g>
              </g>
            </g>
            <g>
              <path class="st89" d="M599.34-36.07l3.41-1.17c.24,1.36.07,2.57-.47,3.65-.54,1.06-1.46,1.96-2.77,2.66-2.07,1.14-3.96,1.28-5.68.47-1.37-.65-2.49-1.8-3.39-3.45-1.08-1.96-1.39-3.79-.97-5.46.43-1.67,1.43-2.94,3-3.79,1.77-.96,3.5-1.14,5.14-.52,1.65.6,3.11,2.14,4.38,4.56l-7.88,4.28c.53.92,1.18,1.51,1.95,1.77.77.25,1.52.18,2.24-.21.49-.28.81-.63,1.02-1.09.18-.44.21-1.02.04-1.7ZM597.8-39.34c-.52-.89-1.14-1.48-1.83-1.7-.71-.22-1.39-.18-2.02.18-.69.37-1.12.93-1.3,1.67-.18.74-.03,1.53.44,2.41l4.71-2.55Z"/>
              <path class="st92" d="M613.08-49.45l-2.79,2.23c-.44-.55-.95-.9-1.48-1-.55-.12-1.11-.01-1.68.31-.8.43-1.27,1.03-1.45,1.83-.16.78.09,1.82.78,3.08.75,1.42,1.53,2.27,2.32,2.6.8.33,1.58.27,2.39-.16.59-.31.99-.75,1.18-1.3.21-.55.15-1.28-.15-2.18l3.38-1.15c.44,1.59.41,3-.1,4.21-.5,1.21-1.54,2.24-3.07,3.07-1.74.95-3.42,1.15-5.05.62-1.62-.55-2.96-1.77-4.03-3.72-1.05-1.96-1.37-3.76-.92-5.43.44-1.65,1.55-2.95,3.31-3.91,1.45-.78,2.77-1.11,3.97-.94,1.18.16,2.32.77,3.38,1.86Z"/>
              <path class="st83" d="M615.95-48.1c-.56-1.05-.85-2.2-.87-3.45-.01-1.27.31-2.39.99-3.42.65-1.03,1.56-1.86,2.73-2.49,1.8-.97,3.59-1.2,5.37-.63,1.79.55,3.16,1.7,4.12,3.48.97,1.8,1.21,3.6.68,5.41-.52,1.8-1.65,3.19-3.41,4.15-1.08.58-2.26.9-3.51.94-1.27.06-2.41-.27-3.44-.93-1.02-.68-1.92-1.7-2.66-3.06ZM619.27-49.67c.63,1.17,1.42,1.92,2.3,2.26.9.31,1.76.25,2.58-.19.83-.46,1.34-1.14,1.55-2.07.22-.91.01-1.98-.63-3.17-.65-1.17-1.4-1.9-2.29-2.24-.92-.32-1.77-.27-2.58.18-.83.46-1.34,1.14-1.56,2.08-.22.91,0,1.98.64,3.16Z"/>
            </g>
          </g>
          <g>
            <g>
              <path class="st87" d="M798.66,181.44c-50.07,0-90.66-40.58-90.66-90.64S748.59.16,798.66.16s90.61,40.58,90.61,90.64-40.55,90.64-90.61,90.64Z"/>
              <g>
                <g>
                  <g>
                    <path class="st23" d="M723.31,86.27c7.05-55.35,36.54-105.37,88.51-82.83-6.88-3.41-13.72-6.61-20.45-9.33-31.52-14.11-51.4-8.35-68.45,12.74-16.48,20.22-30.15,55.8-35.79,82.52-5.68,28.45,4.71,46.32,26.09,65.8,20.85,18.24,52.67,38.05,77.99,43.27,5.67.95,10.95,1.06,15.88.18-41.44-16.11-90.83-61.77-83.79-112.35Z"/>
                    <path class="st88" d="M742.62,136.28c-36.01-42.53-16.85-88.74,19.61-130.88-4.91,3.22-9.99,7.14-15.17,11.6-23.24,21.63-46.24,46.03-53.6,67.57-8.09,22.12-.56,41.44,20.37,66.56,21.21,23.7,44.8,46.54,67.01,51.62,22.67,6.08,43.98-5.67,71.07-28.27,5.67-4.72,11.27-9.62,16.59-14.46-47.64,36.25-90.61,22.58-125.88-23.73Z"/>
                    <path class="st79" d="M870.71,79.13c5.05,55.56-12.96,110.76-68.56,100.01,7.44,1.77,14.85,3.45,21.99,4.66,33.85,6.97,51.98-2.95,64.08-27.21,11.75-23.32,17.41-60.99,17.12-88.31-.56-28.98-14.58-44.24-39.64-58.57-24.32-13.37-59.68-25.83-85.5-25.46-5.74.28-10.91,1.34-15.54,3.25,43.96,6.77,102.02,40.7,106.06,91.63Z"/>
                  </g>
                  <g>
                    <path class="st20" d="M803.5,166.48c55.37-7.05,105.37-36.57,82.88-88.55,3.36,6.89,6.55,13.77,9.27,20.48,14.17,31.49,8.35,51.39-12.69,68.42-20.25,16.5-55.78,30.19-82.52,35.8-28.47,5.67-46.38-4.72-65.82-26.09-18.24-20.84-38.06-52.68-43.25-77.98-.99-5.67-1.08-10.97-.19-15.88,16.1,41.44,61.75,90.85,112.33,83.79Z"/>
                    <path class="st24" d="M753.51,147.15c42.53,36.01,88.72,16.88,130.93-19.6-3.28,4.96-7.17,9.98-11.63,15.17-21.66,23.26-46.01,46.22-67.59,53.63-22.14,8.06-41.45.5-66.56-20.39-23.7-21.19-46.57-44.77-51.65-67.01-6.05-22.7,5.67-43.99,28.3-71.07,4.72-5.65,9.61-11.27,14.46-16.6-36.27,47.68-22.56,90.64,23.73,125.88Z"/>
                    <path class="st6" d="M810.65,19.07c-55.58-5.08-110.75,12.94-99.98,68.56-1.81-7.42-3.45-14.83-4.69-22-6.99-33.79,2.94-51.98,27.2-64.08,23.35-11.72,61.01-17.4,88.34-17.1,28.98.56,44.21,14.6,58.59,39.65,13.31,24.31,25.83,59.65,25.41,85.49-.24,5.74-1.3,10.91-3.22,15.54-6.76-43.96-40.7-102.03-91.64-106.06Z"/>
                  </g>
                </g>
                <path class="st9" d="M816.37,198.62c11.63-3.36,23.91-7.91,35.36-13.16,12.54-1.71,21.9-7.5,29.22-17.06.71-.53,1.36-1,2.01-1.56,14.94-12.07,22.14-25.65,20.04-43.71,1.45-4.13,2.33-8.62,2.51-13.53.12-5.33-.41-11.02-1.3-16.97.83-8.55,1.24-16.82,1.12-24.34-.5-25.37-11.27-40.17-30.7-53.1-12.96-19.46-27.8-30.25-53.13-30.74-7.5-.1-15.82.31-24.35,1.14-5.93-.93-11.66-1.4-16.97-1.33-4.93.25-9.43,1.11-13.52,2.51-18.09-2.07-31.64,5.1-43.74,20.08-.55.63-1.05,1.31-1.55,1.98-9.52,7.35-15.32,16.66-17.03,29.19-5.3,11.45-9.81,23.77-13.18,35.45-4.41,9.59-6.4,18.82-5.47,28.1-.8,21.68,9.37,37.09,27.54,53.61,3.62,3.19,7.62,6.38,11.81,9.56,3.19,4.22,6.43,8.17,9.58,11.81,16.51,18.12,31.92,28.33,53.57,27.57,9.36.95,18.56-1.06,28.19-5.49ZM870.71,79.13c2.09,23.1.21,46.09-6.7,64.36-10.27,7.08-20.72,12.93-31.23,16.91-8.97,2.66-18.51,4.63-28.25,5.93-17.27.5-34.4-5.08-51.03-19.18-2.1-1.56-4.1-3.19-6.07-4.84-1.62-1.95-3.23-3.95-4.83-6.02-14.05-16.62-19.69-33.78-19.18-51.05,1.3-9.71,3.28-19.24,5.96-28.23,4-10.49,9.79-20.96,16.91-31.26,18.27-6.91,41.26-8.8,64.34-6.69,15.94,1.25,30.19,7.82,42.47,17.56,9.77,12.31,16.32,26.56,17.59,42.5Z"/>
              </g>
              <g>
                <path class="st107" d="M735.08,17.18c14.11-12.32,31.87-20.29,50.48-22.59,18.56-2.38,37.84.89,54.63,9.27,16.79,8.34,31.02,21.85,40.35,38.18,9.39,16.31,13.72,35.46,12.4,54.28-1.3,18.82-8.26,37.2-19.89,52.14-11.57,14.94-27.63,26.39-45.63,32.35-17.94,6.02-37.72,6.58-56.03,1.56-18.34-4.93-35.12-15.5-47.56-29.9,12.34,14.49,29.06,25.2,47.44,30.34,18.37,5.16,38.27,4.78,56.45-1.15,18.18-5.87,34.53-17.33,46.37-32.38,11.89-15.05,19.15-33.69,20.63-52.83,1.51-19.15-2.77-38.74-12.22-55.5-9.44-16.78-23.88-30.74-41.08-39.46-17.21-8.75-37.01-12.26-56.23-9.96-19.2,2.21-37.72,10.36-52.37,22.96l2.27,2.7Z"/>
                <g>
                  <g>
                    <path class="st30" d="M703.52,78.76c-.35,3.87-1.16,7.25-2.17,10.05.07.05.16.12.27.16,1.45-2.64,3.44-5.5,6.17-8.28,8.94-9.16,54.4-27.09,22.7-55.31l-.91-.34c-39.83-6.07-24.91,40.8-26.05,53.72Z"/>
                    <path class="st65" d="M702.16,88.04c1.39-2.38,3.22-4.9,5.62-7.35,8.74-8.97,55.02-26.95,22.65-55.35l-28.28,62.7Z"/>
                    <path class="st13" d="M735.06,13.27l-7.54,17.12c-3.75-.32-7.31-.16-10.55.37-3.45.59-6.66,1.53-9.37,2.94,2.86-1.26,6.15-2.08,9.67-2.49,3.11-.4,6.46-.41,9.9-.06l-3.99,8.9c-3.08-.16-5.98.1-8.59.66-2.68.61-5.15,1.49-7.17,2.73,2.14-1.15,4.69-1.9,7.42-2.41,2.51-.41,5.22-.53,8.06-.34l-1.34,3.01h-.03s.01.03.01.03l-2.45,5.45c-3.02-.12-5.86.12-8.42.68-2.67.61-5.14,1.49-7.17,2.73,2.15-1.14,4.69-1.9,7.42-2.38,2.45-.43,5.14-.56,7.9-.38l-4.47,9.99c-2.36.25-4.44.81-6.29,1.62-1.84.84-3.47,1.9-4.71,3.22,1.34-1.24,3.07-2.21,4.97-2.95,1.74-.65,3.66-1.08,5.74-1.27l-1.91,4.25h0s0,0,0,0l-10.8,24.13,11.17-23.48c.72,1.18,1.31,2.42,1.65,3.6.4,1.43.59,2.82.46,4.13.21-1.28.12-2.67-.19-4.09-.32-1.34-.87-2.75-1.7-4.13l5.59-11.75c1.91,2.17,3.45,4.44,4.63,6.74,1.27,2.47,2.18,4.97,2.57,7.38-.24-2.39-.99-4.88-2.14-7.38-1.12-2.48-2.7-4.99-4.75-7.39l3.69-7.78c1.73,2.04,3.16,4.15,4.26,6.27,1.24,2.45,2.17,4.97,2.55,7.36-.22-2.36-.99-4.87-2.13-7.36-1.06-2.32-2.52-4.66-4.37-6.92l4.62-9.75c2.43,2.58,4.49,5.3,6.08,8.07,1.77,3.07,3.14,6.2,3.81,9.22-.49-3-1.67-6.14-3.28-9.24-1.55-3-3.63-5.99-6.21-8.86l8.69-19.66"/>
                    <path class="st98" d="M704.16,65.48s-8.54-42.62,16.82-38.84c0,0-22.36-4.46-16.82,38.84Z"/>
                    <path class="st56" d="M719.23,71.56s22.83-14.34,20.56-24.02c0,0,1.36,8.19-20.56,24.02Z"/>
                  </g>
                  <g>
                    <g>
                      <path class="st63" d="M760.03,55.83c2.14,1.52,3.85,3.14,5.17,4.68.06-.03.12-.07.18-.1-1.05-1.74-2.07-3.88-2.79-6.42-2.35-8.34,2.48-41.08-24.79-32.01l-.5.44c-17.01,21.31,15.54,28.39,22.74,33.41Z"/>
                      <path class="st61" d="M765,59.77c-.9-1.61-1.79-3.54-2.42-5.79-2.29-8.16,2.77-41.39-24.82-31.99l27.24,37.78Z"/>
                      <path class="st51" d="M731.96,15.47l7.78,9.95c-1.46,2.08-2.57,4.23-3.36,6.3-.81,2.24-1.33,4.43-1.45,6.51.22-2.11.87-4.31,1.8-6.52.83-1.96,1.96-3.93,3.33-5.83l3.87,5.34c-1.14,1.76-1.96,3.54-2.51,5.27-.56,1.77-.87,3.51-.83,5.14.06-1.65.47-3.39,1.11-5.15.61-1.62,1.45-3.28,2.51-4.85l1.31,1.79v.03h.01l2.38,3.28c-1.09,1.73-1.9,3.47-2.46,5.19-.53,1.76-.86,3.48-.81,5.12.07-1.65.47-3.41,1.11-5.18.59-1.58,1.42-3.17,2.47-4.75l4.34,6.01c-.65,1.45-1.02,2.88-1.16,4.22-.13,1.39-.06,2.7.3,3.87-.28-1.21-.25-2.55-.06-3.93.21-1.24.6-2.51,1.21-3.79l1.84,2.54h0l10.52,14.51-10.01-14.49c.95-.03,1.84.06,2.66.25.97.25,1.86.6,2.58,1.12-.68-.56-1.5-.97-2.45-1.24-.92-.3-1.9-.44-3.01-.43l-5-7.25c1.92-.38,3.78-.53,5.52-.44,1.89.09,3.66.4,5.19.97-1.48-.65-3.22-1.06-5.05-1.23-1.84-.18-3.85-.1-5.95.28l-3.32-4.81c1.77-.3,3.5-.43,5.12-.35,1.88.09,3.65.38,5.19.97-1.49-.65-3.2-1.06-5.06-1.22-1.71-.16-3.59-.09-5.54.22l-4.16-6.02c2.35-.55,4.63-.83,6.79-.84,2.42,0,4.71.28,6.72.89-1.92-.72-4.18-1.09-6.54-1.18-2.29-.09-4.75.1-7.31.66l-8.37-12.06"/>
                      <path class="st36" d="M752.46,50.97s-27.94-9.37-17.15-22.98c0,0-10.15,11.61,17.15,22.98Z"/>
                      <path class="st100" d="M761.12,44.18s-.74-18.25-7.19-20.16c0,0,5.27,1.95,7.19,20.16Z"/>
                    </g>
                    <g>
                      <path class="st15" d="M713.57-11.66c-.44-1.74-1.06-3.2-1.73-4.4.03-.03.06-.04.12-.09.84,1.09,1.96,2.24,3.38,3.31,4.72,3.5,26.62,8.31,14.33,23.41l-.41.21c-17.59,5.64-14.24-16.66-15.69-22.43Z"/>
                      <path class="st33" d="M712.27-15.76c.81.97,1.82,1.98,3.07,2.92,4.62,3.42,26.89,8.2,14.3,23.42l-17.37-26.34Z"/>
                      <path class="st7" d="M732.42,15.82l-4.47-7.3c-1.67.41-3.29.59-4.81.59-1.59-.01-3.1-.22-4.44-.64,1.39.37,2.94.47,4.56.43,1.45-.06,2.94-.3,4.49-.71l-2.45-3.75c-1.37.33-2.71.4-3.94.34-1.26-.09-2.44-.31-3.45-.71,1.05.34,2.27.52,3.53.55,1.18,0,2.42-.15,3.69-.44l-.83-1.27h0s-.02,0-.02,0l-1.49-2.32c-1.37.29-2.67.4-3.88.32-1.25-.07-2.43-.3-3.44-.72,1.06.37,2.26.53,3.54.55,1.14.01,2.36-.12,3.6-.4l-2.76-4.21c-1.08.06-2.08-.03-2.95-.27-.92-.25-1.73-.62-2.38-1.11.69.44,1.55.77,2.46.96.83.18,1.74.22,2.69.16l-1.17-1.79h0s-6.66-10.15-6.66-10.15l6.78,9.83c.25-.59.41-1.2.47-1.76.09-.68.08-1.31-.07-1.9.19.56.24,1.2.21,1.86-.06.63-.19,1.31-.47,1.99l3.41,4.93c.68-1.14,1.24-2.26,1.61-3.41.37-1.2.62-2.39.61-3.51.06,1.09-.09,2.27-.41,3.5-.34,1.21-.87,2.45-1.62,3.7l2.24,3.25c.62-1.06,1.12-2.11,1.46-3.14.38-1.22.62-2.42.62-3.53.07,1.08-.1,2.27-.41,3.48-.33,1.14-.81,2.3-1.49,3.45l2.8,4.09c.93-1.36,1.64-2.73,2.18-4.12.56-1.51.96-3.03,1.05-4.44-.01,1.4-.31,2.89-.83,4.43-.49,1.46-1.21,2.98-2.17,4.46l5.83,7.92"/>
                      <path class="st75" d="M714.83-5.7s-.77,19.95,10.43,16.38c0,0-9.8,3.65-10.43-16.38Z"/>
                      <path class="st0" d="M721.2-9.55s11.39,4.85,11.05,9.4c0,0,.03-3.81-11.05-9.4Z"/>
                    </g>
                    <g>
                      <path class="st101" d="M710.59,31.43c-1.48.38-2.72.9-3.73,1.46-.01-.03-.06-.07-.07-.09.91-.72,1.9-1.67,2.79-2.88,2.96-4,7.05-22.53,19.83-12.13l.18.34c4.78,14.9-14.12,12.07-18.99,13.3Z"/>
                      <path class="st96" d="M707.11,32.52c.81-.66,1.68-1.52,2.47-2.6,2.91-3.91,6.96-22.76,19.83-12.1l-22.3,14.7Z"/>
                      <path class="st35" d="M734.22,15.88l-6.55,3.38c.35,1.4.52,2.79.5,4.07,0,1.36-.18,2.64-.55,3.78.31-1.18.41-2.5.37-3.87-.04-1.21-.25-2.51-.6-3.81l-3.17,2.08c.27,1.18.35,2.29.3,3.33-.07,1.08-.25,2.07-.61,2.91.31-.87.44-1.9.46-2.98,0-.99-.12-2.04-.37-3.11l-1.08.71h-.02l-1.93,1.28c.24,1.15.33,2.24.26,3.26-.06,1.06-.25,2.07-.6,2.94.3-.91.44-1.93.46-3.02,0-.94-.09-1.99-.34-3.03l-3.57,2.32c.07.9-.03,1.76-.24,2.52-.19.75-.5,1.45-.93,1.99.38-.59.66-1.31.83-2.08.15-.71.19-1.48.13-2.29l-1.52.99h.01-.01l-8.59,5.64,8.32-5.73c-.5-.21-1-.35-1.49-.41-.56-.07-1.12-.05-1.61.07.49-.16,1-.21,1.58-.18.53.03,1.11.16,1.68.38l4.18-2.86c-.94-.59-1.92-1.03-2.88-1.36-1.02-.33-2.02-.53-2.98-.53.91-.06,1.92.07,2.97.35,1,.29,2.07.75,3.11,1.39l2.76-1.9c-.88-.53-1.79-.96-2.67-1.24-1.02-.34-2.04-.53-2.98-.53.91-.06,1.93.09,2.97.35.96.27,1.93.68,2.92,1.27l3.45-2.39c-1.15-.77-2.32-1.39-3.48-1.83-1.28-.5-2.55-.83-3.76-.9,1.18.01,2.46.27,3.75.69,1.24.41,2.52,1.02,3.79,1.84l6.65-5.18"/>
                      <path class="st71" d="M715.64,30.39s16.88.65,13.86-8.84c0,0,3.08,8.29-13.86,8.84Z"/>
                      <path class="st57" d="M712.38,24.98s4.1-9.65,7.95-9.37c0,0-3.23-.01-7.95,9.37Z"/>
                    </g>
                  </g>
                </g>
              </g>
              <path class="st2" d="M852.85,161.22c-14.11,12.31-31.87,20.28-50.47,22.58-18.56,2.36-37.85-.86-54.63-9.27-16.82-8.32-31.04-21.84-40.36-38.16-9.39-16.31-13.72-35.46-12.38-54.28,1.3-18.82,8.26-37.22,19.91-52.14,11.57-14.93,27.62-26.4,45.62-32.36,17.94-6.02,37.72-6.57,56.02-1.55,18.36,4.93,35.12,15.5,47.58,29.9-12.34-14.49-29.04-25.22-47.46-30.33-18.36-5.18-38.25-4.81-56.42,1.14-18.2,5.89-34.53,17.34-46.38,32.39-11.91,15.02-19.15,33.68-20.62,52.82-1.52,19.14,2.74,38.74,12.21,55.5,9.43,16.76,23.88,30.75,41.1,39.43,17.19,8.8,37,12.28,56.21,10.01,19.21-2.21,37.72-10.36,52.39-22.99l-2.3-2.69Z"/>
              <g>
                <g>
                  <path class="st14" d="M902.26,62.72c.59-6.12,1.89-11.48,3.48-15.92-.18-.07-.29-.18-.44-.25-2.3,4.18-5.46,8.72-9.77,13.12-14.17,14.51-86.15,42.9-35.95,87.6l1.45.53c63.07,9.62,39.46-64.64,41.23-85.08Z"/>
                  <path class="st8" d="M904.45,48.02c-2.24,3.76-5.08,7.75-8.91,11.64-13.87,14.2-87.16,42.68-35.89,87.66l44.8-99.3Z"/>
                  <path class="st64" d="M852.32,166.48l11.95-27.12c5.93.47,11.54.24,16.74-.59,5.43-.94,10.51-2.42,14.82-4.66-4.54,2.01-9.74,3.31-15.32,3.96-4.93.62-10.24.65-15.67.06l6.29-14.06c4.93.25,9.48-.13,13.64-1.05,4.25-.96,8.15-2.36,11.36-4.34-3.39,1.83-7.44,3.04-11.75,3.81-4.01.68-8.32.86-12.81.56l2.16-4.78h.03v-.04l3.87-8.63c4.81.21,9.3-.16,13.37-1.06,4.22-.96,8.11-2.36,11.33-4.34-3.39,1.8-7.44,3.04-11.75,3.78-3.9.68-8.15.89-12.52.59l7.08-15.82c3.72-.37,7.02-1.27,9.95-2.57,2.92-1.33,5.52-3.01,7.47-5.09-2.13,1.96-4.84,3.5-7.85,4.66-2.77,1.05-5.81,1.74-9.09,2.04l2.98-6.75.03.02s0-.02,0-.02l17.12-38.22-17.71,37.2c-1.18-1.9-2.07-3.84-2.62-5.73-.62-2.24-.92-4.46-.74-6.54-.32,2.02-.18,4.22.29,6.49.53,2.11,1.39,4.32,2.72,6.52l-8.85,18.61c-3.01-3.44-5.49-7.04-7.38-10.68-1.98-3.9-3.42-7.87-4.04-11.67.38,3.76,1.56,7.72,3.39,11.7,1.77,3.9,4.28,7.9,7.5,11.7l-5.81,12.31c-2.75-3.22-5.02-6.57-6.76-9.93-1.98-3.9-3.42-7.88-4.04-11.67.33,3.76,1.56,7.72,3.36,11.67,1.68,3.66,3.98,7.39,6.94,10.96l-7.38,15.47c-3.81-4.1-7.05-8.44-9.59-12.81-2.8-4.85-4.96-9.81-6.05-14.62.8,4.77,2.66,9.74,5.22,14.67,2.45,4.74,5.76,9.46,9.83,14l-13.75,31.14"/>
                  <path class="st18" d="M901.26,83.75s13.55,67.53-26.62,61.51c0,0,35.42,7.08,26.62-61.51Z"/>
                  <path class="st97" d="M877.41,74.11s-36.19,22.73-32.56,38.06c0,0-2.15-12.96,32.56-38.06Z"/>
                </g>
                <g>
                  <g>
                    <path class="st78" d="M812.77,99.04c-3.4-2.39-6.08-4.97-8.18-7.41-.09.06-.2.12-.26.16,1.65,2.77,3.25,6.15,4.4,10.17,3.75,13.21-3.92,65.08,39.28,50.68l.77-.65c26.98-33.78-24.62-45-36.01-52.95Z"/>
                    <path class="st85" d="M804.89,92.81c1.45,2.55,2.83,5.61,3.84,9.15,3.63,12.93-4.4,65.58,39.34,50.68l-43.18-59.83Z"/>
                    <path class="st91" d="M857.22,162.97l-12.28-15.76c2.3-3.31,4.07-6.67,5.31-9.98,1.3-3.54,2.12-7.02,2.27-10.3-.35,3.33-1.39,6.82-2.86,10.33-1.3,3.1-3.07,6.23-5.25,9.24l-6.14-8.47c1.83-2.77,3.13-5.61,4.01-8.32.86-2.83,1.36-5.58,1.27-8.15-.09,2.61-.74,5.37-1.74,8.18-.94,2.54-2.3,5.19-3.98,7.67l-2.1-2.86v-.03s0,.03,0,0l-3.78-5.2c1.74-2.71,3.04-5.47,3.89-8.19.89-2.79,1.36-5.55,1.3-8.12-.09,2.61-.74,5.39-1.77,8.19-.88,2.49-2.21,5.05-3.9,7.53l-6.85-9.52c1-2.27,1.59-4.56,1.83-6.69.21-2.18.09-4.28-.47-6.12.47,1.92.41,4.04.09,6.23-.32,1.95-.94,3.97-1.92,6.01l-2.89-4.03h0s0,0,0,0l-16.68-22.98,15.85,22.96c-1.47.04-2.95-.09-4.22-.41-1.5-.37-2.92-.95-4.1-1.76,1.06.89,2.42,1.53,3.93,1.98,1.42.46,3.01.69,4.75.65l7.91,11.47c-3.01.62-5.96.86-8.74.74-2.95-.18-5.79-.65-8.21-1.59,2.3,1.06,5.08,1.71,7.97,1.98,2.92.26,6.08.15,9.44-.44l5.25,7.59c-2.83.5-5.55.71-8.15.59-2.95-.15-5.75-.62-8.2-1.56,2.36,1.06,5.08,1.71,8,1.95,2.75.26,5.7.18,8.77-.35l6.61,9.53c-3.72.89-7.32,1.33-10.74,1.33-3.84,0-7.47-.41-10.63-1.39,3.04,1.15,6.58,1.74,10.33,1.92,3.63.12,7.53-.21,11.57-1.06l13.22,19.07"/>
                    <path class="st99" d="M824.76,106.73s44.24,14.86,27.15,36.41c0,0,16.08-18.39-27.15-36.41Z"/>
                    <path class="st66" d="M811.06,117.48s1.18,28.92,11.36,31.94c0,0-8.32-3.1-11.36-31.94Z"/>
                  </g>
                  <g>
                    <path class="st94" d="M886.38,205.94c.68,2.75,1.65,5.08,2.71,6.96-.06.06-.12.06-.18.15-1.36-1.74-3.1-3.57-5.37-5.25-7.5-5.52-42.15-13.16-22.67-37.07l.62-.32c27.86-8.94,22.58,26.39,24.88,35.54Z"/>
                    <path class="st53" d="M888.42,212.43c-1.27-1.53-2.86-3.13-4.87-4.63-7.32-5.4-42.59-12.99-22.67-37.1l27.54,41.73Z"/>
                    <path class="st47" d="M856.51,162.4l7.08,11.57c2.63-.62,5.19-.94,7.62-.91,2.54,0,4.93.32,7.02,1-2.18-.59-4.63-.77-7.2-.71-2.3.12-4.66.47-7.11,1.15l3.9,5.93c2.18-.5,4.28-.65,6.23-.56,2.01.15,3.87.5,5.49,1.15-1.71-.56-3.6-.83-5.61-.86-1.89,0-3.84.21-5.84.68l1.3,2.01h.03l2.39,3.66c2.16-.47,4.19-.62,6.14-.5,1.95.12,3.84.47,5.43,1.15-1.68-.59-3.6-.86-5.61-.89-1.8-.03-3.72.24-5.67.65l4.34,6.67c1.68-.12,3.27.06,4.69.41,1.42.41,2.72,1,3.78,1.77-1.12-.71-2.48-1.24-3.95-1.53-1.3-.27-2.72-.35-4.25-.24l1.83,2.77.06.03c-.06.03-.03.03-.03.03l10.54,16.06-10.74-15.58c-.38.94-.65,1.89-.74,2.77-.15,1.09-.12,2.12.12,3.04-.29-.92-.38-1.92-.32-2.98.09-.97.29-2.07.77-3.13l-5.4-7.79c-1.09,1.77-1.98,3.57-2.57,5.37-.59,1.89-.97,3.81-.94,5.58-.12-1.74.15-3.63.65-5.55.53-1.92,1.36-3.87,2.57-5.84l-3.57-5.17c-.97,1.68-1.77,3.37-2.3,5.02-.59,1.89-1,3.81-.97,5.55-.12-1.71.15-3.57.68-5.49.47-1.8,1.27-3.66,2.33-5.49l-4.46-6.46c-1.47,2.16-2.6,4.34-3.42,6.49-.92,2.39-1.53,4.81-1.65,7.05,0-2.21.47-4.57,1.3-7,.77-2.33,1.89-4.75,3.42-7.08l-9.24-12.54"/>
                    <path class="st43" d="M884.38,196.49s1.24-31.58-16.53-25.94c0,0,15.52-5.76,16.53,25.94Z"/>
                    <path class="st70" d="M874.28,202.57s-18.06-7.67-17.5-14.88c0,0-.06,6.02,17.5,14.88Z"/>
                  </g>
                  <g>
                    <path class="st105" d="M891.1,137.67c2.3-.59,4.25-1.45,5.9-2.33.03.06.06.12.12.18-1.48,1.12-3.01,2.6-4.43,4.55-4.69,6.32-11.16,35.71-31.4,19.21l-.29-.56c-7.56-23.61,22.37-19.1,30.1-21.04Z"/>
                    <path class="st72" d="M896.59,135.93c-1.3,1.09-2.66,2.42-3.89,4.13-4.61,6.2-11.04,36.07-31.4,19.18l35.3-23.32Z"/>
                    <path class="st82" d="M853.68,162.32l10.33-5.37c-.53-2.21-.8-4.37-.77-6.44,0-2.12.3-4.19.89-5.96-.53,1.83-.65,3.92-.62,6.11.09,1.92.41,3.96.97,6.02l5.02-3.28c-.41-1.89-.53-3.66-.44-5.31.09-1.65.38-3.25.97-4.6-.53,1.42-.71,3.01-.74,4.75-.03,1.56.15,3.22.56,4.93l1.71-1.12h0l3.07-2.04c-.35-1.83-.5-3.57-.41-5.17.12-1.68.41-3.28.97-4.66-.5,1.45-.71,3.07-.74,4.78,0,1.51.18,3.16.53,4.81l5.67-3.69c-.12-1.42.06-2.77.35-3.98.33-1.18.83-2.27,1.5-3.16-.62.95-1.06,2.07-1.33,3.31-.24,1.12-.29,2.33-.18,3.6l2.36-1.54v-.03.03l13.63-8.97-13.19,9.09c.8.35,1.59.59,2.36.65.91.12,1.77.09,2.54-.12-.74.27-1.59.35-2.51.3-.83-.06-1.74-.27-2.66-.62l-6.61,4.52c1.5.97,3.07,1.68,4.57,2.18,1.62.53,3.22.83,4.69.83-1.42.12-3.01-.12-4.66-.56-1.62-.44-3.31-1.18-4.96-2.18l-4.37,3.01c1.42.86,2.83,1.51,4.25,1.98,1.59.53,3.22.83,4.69.83-1.45.12-3.04-.12-4.69-.56-1.51-.44-3.07-1.09-4.61-1.98l-5.49,3.75c1.83,1.21,3.66,2.21,5.52,2.92,2.04.77,4.04,1.27,5.99,1.42-1.89-.03-3.9-.41-5.96-1.12-1.95-.65-4.01-1.59-5.99-2.89l-10.54,8.2"/>
                    <path class="st60" d="M883.08,139.36s-26.74-1.06-21.93,13.99c0,0-4.87-13.16,21.93-13.99Z"/>
                    <path class="st31" d="M888.27,147.91s-6.49,15.26-12.6,14.82c0,0,5.1.03,12.6-14.82Z"/>
                  </g>
                </g>
              </g>
            </g>
            <g>
              <path class="st77" d="M867.61,34.16l1.18,3.41c-1.36.24-2.57.07-3.66-.47-1.06-.55-1.95-1.46-2.66-2.78-1.12-2.07-1.27-3.96-.47-5.68.65-1.37,1.83-2.49,3.48-3.39,1.95-1.08,3.78-1.39,5.43-.97,1.68.43,2.95,1.43,3.81,3,.97,1.77,1.15,3.5.5,5.13-.59,1.65-2.12,3.11-4.54,4.38l-4.28-7.88c-.91.53-1.51,1.18-1.77,1.95-.27.77-.18,1.52.21,2.24.3.49.65.81,1.09,1.02.44.18,1.03.21,1.68.04ZM870.92,32.63c.88-.52,1.48-1.14,1.68-1.83.21-.71.18-1.39-.18-2.02-.38-.69-.92-1.12-1.68-1.3-.71-.18-1.53-.03-2.39.44l2.57,4.71Z"/>
              <path class="st90" d="M881.01,47.9l-2.24-2.79c.56-.44.91-.94,1-1.48.12-.55.03-1.11-.29-1.68-.41-.8-1.03-1.27-1.83-1.45-.77-.16-1.83.09-3.07.78-1.42.75-2.3,1.53-2.6,2.32-.35.8-.29,1.58.15,2.39.33.59.74.99,1.3,1.18.56.21,1.27.15,2.18-.15l1.15,3.38c-1.59.44-3.01.41-4.19-.1-1.24-.5-2.24-1.53-3.07-3.07-.94-1.74-1.18-3.42-.65-5.05.56-1.62,1.77-2.97,3.72-4.03,1.98-1.05,3.78-1.37,5.43-.92,1.65.44,2.95,1.55,3.93,3.31.8,1.45,1.09,2.77.94,3.97-.15,1.18-.77,2.32-1.86,3.38Z"/>
              <path class="st40" d="M879.65,50.78c1.06-.56,2.18-.86,3.45-.87,1.27-.01,2.39.31,3.42.99,1.03.65,1.86,1.56,2.51,2.73.95,1.8,1.18,3.59.62,5.37-.56,1.79-1.68,3.16-3.48,4.12-1.8.97-3.6,1.21-5.4.68-1.83-.52-3.19-1.65-4.16-3.41-.56-1.08-.91-2.26-.94-3.51-.06-1.27.26-2.41.91-3.44.71-1.02,1.71-1.92,3.07-2.66ZM881.25,54.1c-1.18.64-1.95,1.42-2.27,2.3-.32.9-.27,1.76.21,2.58.44.83,1.12,1.34,2.07,1.55.89.22,1.95.02,3.16-.63,1.15-.65,1.92-1.4,2.24-2.29.32-.91.27-1.77-.18-2.58-.44-.83-1.15-1.34-2.1-1.57-.89-.22-1.95,0-3.13.63Z"/>
            </g>
          </g>
        </g>
        <rect class="st39" x="258.97" y="29.71" width="625.41" height="168.94"/>
      </g>
    </g>
  </g>
</svg>