<?xml version="1.0" encoding="UTF-8"?>
<svg xmlns="http://www.w3.org/2000/svg" viewBox="0 0 500 500">
  <defs>
    <style>
      .cls-1 {
        font-size: 20.19px;
      }

      .cls-1, .cls-2, .cls-3 {
        fill: #638674;
      }

      .cls-1, .cls-3 {
        font-family: Montserrat-SemiBold, Montserrat;
        font-weight: 600;
      }

      .cls-4 {
        letter-spacing: -.05em;
      }

      .cls-5 {
        letter-spacing: -.06em;
      }

      .cls-6 {
        letter-spacing: -.07em;
      }

      .cls-7 {
        fill: #f0f0f0;
      }

      .cls-8 {
        letter-spacing: -.03em;
      }

      .cls-9 {
        letter-spacing: 0em;
      }

      .cls-10 {
        letter-spacing: -.08em;
      }

      .cls-11 {
        letter-spacing: -.05em;
      }

      .cls-3 {
        font-size: 19.38px;
      }
    </style>
  </defs>
  <g id="BACKGROUND">
    <rect class="cls-7" width="500" height="500"/>
  </g>
  <g id="OBJECTS">
    <g>
      <g>
        <text class="cls-1" transform="translate(85.85 325.22) rotate(-49.9)"><tspan x="0" y="0">S</tspan></text>
        <text class="cls-1" transform="translate(93.01 316.3) rotate(-39.21)"><tspan x="0" y="0">U</tspan></text>
        <text class="cls-1" transform="translate(104.38 307.06) rotate(-28.45)"><tspan x="0" y="0">S</tspan></text>
        <text class="cls-1" transform="translate(114.35 301.56) rotate(-19.21)"><tspan x="0" y="0">T</tspan></text>
        <text class="cls-1" transform="translate(123.96 297.91) rotate(-9.43)"><tspan x="0" y="0">A</tspan></text>
        <text class="cls-1" transform="translate(137.95 295.83) rotate(-1.35)"><tspan x="0" y="0">I</tspan></text>
        <text class="cls-1" transform="translate(143.38 295.26) rotate(7.12)"><tspan x="0" y="0">N</tspan></text>
        <text class="cls-1" transform="translate(158.2 297.03) rotate(19.01)"><tspan x="0" y="0">A</tspan></text>
        <text class="cls-1" transform="translate(171.27 301.37) rotate(30.54)"><tspan x="0" y="0">B</tspan></text>
        <text class="cls-1" transform="translate(183.41 308.58) rotate(40.83)"><tspan x="0" y="0">L</tspan></text>
        <text class="cls-1" transform="translate(191.81 315.63) rotate(50.42)"><tspan x="0" y="0">E</tspan></text>
        <text class="cls-1" transform="translate(83.54 424.05) rotate(38.47)"><tspan x="0" y="0">M</tspan></text>
        <text class="cls-1" transform="translate(100.18 436.73) rotate(25.53)"><tspan x="0" y="0">A</tspan></text>
        <text class="cls-1" transform="translate(114.38 443.32) rotate(15.73)"><tspan x="0" y="0">T</tspan></text>
        <text class="cls-1" transform="translate(127.27 446.9) rotate(6.03)"><tspan x="0" y="0">E</tspan></text>
        <text class="cls-1" transform="translate(142.03 448.39) rotate(-4.46)"><tspan x="0" y="0">R</tspan></text>
        <text class="cls-1" transform="translate(157.7 446.81) rotate(-12.45)"><tspan x="0" y="0">I</tspan></text>
        <text class="cls-1" transform="translate(165.07 445.43) rotate(-20.62)"><tspan x="0" y="0">A</tspan></text>
        <text class="cls-1" transform="translate(180.31 439.42) rotate(-30.89)"><tspan x="0" y="0">L</tspan></text>
        <text class="cls-1" transform="translate(191.57 432.62) rotate(-40.11)"><tspan x="0" y="0">S</tspan></text>
      </g>
      <g>
        <path class="cls-2" d="M232.74,364.57c-.15-49.43-40.48-89.64-89.91-89.64h-.28c-23.98.07-46.52,9.5-63.47,26.56-16.95,17.05-26.24,39.65-26.17,63.63.07,23.98,9.5,46.52,26.56,63.47,16.98,16.88,39.48,26.17,63.35,26.17h.28c23.98-.07,46.52-9.51,63.47-26.56,16.95-17.05,26.24-39.65,26.17-63.63ZM143.1,452.02h-.27c-23.15,0-44.96-9.01-61.42-25.38-16.53-16.44-25.68-38.29-25.75-61.54-.07-23.25,8.94-45.16,25.38-61.7,16.43-16.53,38.29-25.68,61.54-25.75h.27c47.92,0,87.03,38.99,87.18,86.92.07,23.25-8.94,45.16-25.38,61.69-16.44,16.54-38.29,25.68-61.54,25.75Z"/>
        <path class="cls-2" d="M142.83,300.5c-35.48,0-64.35,28.87-64.35,64.35s28.87,64.35,64.35,64.35,64.35-28.87,64.35-64.35-28.87-64.35-64.35-64.35ZM142.83,426.46c-33.97,0-61.62-27.64-61.62-61.62s27.64-61.62,61.62-61.62,61.62,27.64,61.62,61.62-27.64,61.62-61.62,61.62Z"/>
        <path class="cls-2" d="M142.83,342.6c-12.26,0-22.24,9.98-22.24,22.24s9.98,22.24,22.24,22.24,22.24-9.98,22.24-22.24-9.98-22.24-22.24-22.24ZM155.57,352.21c.03-.51.04-1.03.03-1.54v-.58s.42.39.42.39c3.35,3.08,5.54,7.25,6.14,11.74l-.48.11c-.99-2.92-2.44-5.61-4.32-7.99-.51-.64-1.08-1.3-1.71-1.95l-.08-.08v-.11ZM152.29,347.79c.69.39,1.37.82,2.01,1.29l.09.07v.11c1.06,12.67-9.66,22.73-14.32,26.47l-.13.11-.15-.08c-.77-.44-1.52-.9-2.26-1.39l-.28-.19.26-.21c4.46-3.62,14.78-13.39,14.4-25.95v-.44s.37.21.37.21ZM142.7,375.04l.21-.18c.49-.43.97-.88,1.46-1.35l.18-.17.17.18c1.75,1.85,3.45,3.8,5.05,5.79l.47.59-.73-.19c-.9-.24-1.81-.5-2.68-.8l-.1-.03-.05-.09c-.04-.07-.07-.12-.11-.16l-3.87-3.58ZM144.23,377.97l-1.44-.67c-.48-.22-.95-.45-1.42-.68l-.34-.17.82-.67,2.38,2.2ZM134.8,376.46l-.32-.2.31-.22c.46-.32.93-.67,1.4-1.03l.14-.11.15.1c.73.5,1.46.96,2.19,1.39l.32.19-.3.22c-.46.34-.91.66-1.35.97l-.13.09-.13-.07c-.74-.39-1.48-.83-2.28-1.33ZM136.18,378.56l-.36.22c-.44.27-.86.52-1.26.75l-.12.07-.12-.07c-.7-.38-1.44-.81-2.24-1.32l-.35-.22.35-.21c.41-.24.83-.5,1.26-.78l.14-.09.14.09c.71.47,1.45.92,2.2,1.34l.37.21ZM132.11,367.34l-.02-.6,5.82,5.39-.21.18c-.43.37-.85.72-1.28,1.06l-.15.12-.15-.11c-1.34-.97-2.6-2.01-3.75-3.09l-.09-.08v-.12c.02-.09.03-.12.03-.13-.11-.78-.17-1.61-.2-2.61ZM148.28,358.76l.1.12-.07.15c-.47.98-1.01,1.97-1.61,2.95l-.18.29-.22-.26c-.65-.76-1.22-1.41-1.75-1.99-3.01-3.26-5.58-5.35-8.35-6.77l-.25-.13.15-.23c.38-.59.8-1.18,1.26-1.77l.11-.14.17.06c3.88,1.4,7.56,4.07,10.63,7.72ZM138.22,350.07l.24-.27c.41-.46.82-.89,1.22-1.29l.1-.1.13.03c3.61.86,7.09,2.81,10.07,5.63l.11.1-.04.14c-.27,1.02-.61,2.05-1.02,3.05l-.15.38-.27-.3c-2.94-3.32-6.42-5.83-10.06-7.25l-.33-.13ZM143.72,360.78c.64.7,1.31,1.46,2.04,2.33l.12.15-.11.16c-.45.66-.92,1.31-1.41,1.94l-.19.24-.41-.47c-.18-.2-.35-.41-.53-.61-2.41-2.76-5.3-5.83-9.07-7.42l-.23-.1.1-.23c.25-.59.52-1.18.81-1.75.08-.15.16-.3.25-.45l.27-.47.21.11c2.68,1.36,5.19,3.39,8.13,6.58ZM142.41,365.24c.28.32.55.64.82.95l.24.28-.14.16c-.51.61-1.06,1.23-1.68,1.89l-.17.18-.18-.17c-2.73-2.56-5.59-4.96-8.53-7.15l-.13-.1.03-.16c.22-1.02.48-1.95.79-2.85l.09-.25.25.11c3.53,1.51,6.29,4.45,8.6,7.1ZM132.76,362.78c2.69,2.04,5.31,4.25,7.77,6.56l.19.18-.18.18c-.53.53-1.07,1.04-1.61,1.54l-.17.16-6.48-5.99s-.01,0-.04-.02l-.1-.08v-.13c.05-.75.12-1.5.23-2.22l.06-.42.34.26ZM146.68,345.72c1.34.27,2.67.69,3.94,1.24l.14.06v.15c.03.22.03.44.04.67l.02.59-.4-.25c-1.24-.77-2.55-1.44-3.88-1.99l.14-.48ZM142.6,346.06l.11.03c2.82.72,5.5,1.93,7.96,3.58l.12.08v.14c-.06.87-.17,1.74-.32,2.6l-.08.44-.33-.29c-2.7-2.38-5.67-4.06-8.83-5l-.45-.13.36-.3c.49-.41.94-.76,1.37-1.08l.1-.07ZM138.18,345.93l.1-.05c.86-.21,1.71-.35,2.54-.44l.85-.09-.67.53c-2.55,2.02-4.68,4.44-6.33,7.19l-.04.07c-.27.46-.53.9-.76,1.35-2.18,4.25-3.16,9.03-2.84,13.85l.05.7-.48-.51c-.19-.21-.38-.42-.56-.63l-.28-.32v-.08c-1-7.88,2.3-16.35,8.42-21.58ZM132.16,348.52c.81-.53,1.67-1.01,2.54-1.41l1.07-.49-.78.89c-4.32,4.9-6.69,11.4-6.52,17.82l.02.77-.67-.86c-.1-.13-.21-.26-.31-.39l-.05-.06v-.1s0-.06,0-.06c-.72-5.62,1-11.62,4.62-16.04l.06-.05ZM124.15,359.21c.76-2.53,2.01-4.84,3.72-6.87l1.2-1.44-.78,1.7c-1.37,2.97-2.09,6.24-2.08,9.47v.88s-.46-.75-.46-.75c-.53-.86-1.05-1.78-1.57-2.8l-.05-.09.03-.1ZM123.33,365.13v-.29c0-1.06.08-2.15.26-3.22l.12-.69.35.61c2.8,4.9,6.51,9.1,11.04,12.47l.27.2-.27.2c-.51.38-1.01.74-1.5,1.08l-.14.1-.14-.1c-3.97-2.77-7.41-6.32-9.94-10.29l-.04-.06ZM124.82,372.32c-.52-1.25-.91-2.57-1.16-3.91l-.19-1.03.64.84c2.24,2.94,4.95,5.57,8.07,7.81l.3.22-.31.2c-.46.29-.9.55-1.33.79l-.14.08-.13-.09c-2.06-1.43-3.97-3.05-5.69-4.81l-.05-.08ZM128.89,378.22l-.16.07-.12-.13c-.34-.36-.67-.74-.97-1.12l-1.38-1.71,1.73,1.36c.41.33.83.65,1.26.96l.34.25-.49.23c-.07.03-.14.07-.2.09ZM131.9,380.85l-.12.05-.11-.08c-.64-.44-1.25-.93-1.82-1.44l-.28-.25.33-.16c.19-.09.38-.19.58-.29l.13-.07.12.08c.62.41,1.29.82,2.12,1.3l.41.24-.43.2c-.33.16-.65.3-.94.42ZM141.73,384.32c-2.97-.17-5.79-.99-8.39-2.44l-.42-.24.44-.21c.32-.15.65-.32,1-.5l.12-.06.12.06c2.32,1.2,4.76,2.17,7.23,2.9l2.09.61-2.17-.12ZM148.89,383.38c-.56.18-1.14.34-1.73.48h-.05s-.05,0-.05,0c-3.81-.59-7.52-1.75-11.03-3.44l-.42-.2.39-.24c.38-.23.78-.48,1.18-.74l.12-.08.13.06c3.64,1.84,7.48,3.07,11.41,3.67l1.04.16-1,.33ZM152.28,381.9c-.1.06-.21.12-.31.17l-.06.03h-.07c-4.48-.31-8.88-1.48-13.08-3.47l-.38-.18.35-.25c.41-.29.82-.59,1.23-.91l.13-.1.14.08c3.74,2,7.77,3.4,11.99,4.16l.69.12-.61.34ZM153.68,380.56c-.57-.08-1.14-.19-1.71-.3l-.14-.03-.05-.13c-.02-.06-.04-.11-.07-.15-1.9-2.45-3.99-4.88-6.21-7.23l-.16-.17.17-.17c.44-.45.88-.91,1.31-1.39l.2-.22.18.23c2.35,2.96,4.55,5.96,6.72,9.17l.32.47-.56-.08ZM155.6,379.57c-.08.08-.17.15-.26.22l-.21.18-.15-.23c-2.28-3.39-4.6-6.56-7.09-9.67l-.13-.16.13-.16c.4-.48.82-1,1.28-1.61l.21-.28.2.29c2.43,3.53,4.49,7.25,6.13,11.03l.02.09.02.13-.14.17ZM157.28,377.94c-.09.1-.18.19-.27.28l-.35.36-.15-.34c-1.74-3.91-3.87-7.68-6.33-11.21l-.1-.14.1-.14c.55-.79,1.05-1.58,1.5-2.35l.22-.38.21.38c2.62,4.74,4.23,9.86,5.22,13.29l.04.13-.09.1ZM159.55,374.88c-.31.52-.65,1.03-1.02,1.52l-.3.4-.14-.48c-1.62-5.46-3.37-9.69-5.5-13.33l-.07-.12.06-.12c.53-1.02.99-2.07,1.39-3.12l.18-.48.27.43c2.56,4.16,4.3,9.25,5.16,15.12v.09s-.03.08-.03.08ZM161.89,369c-.26,1.18-.62,2.34-1.08,3.42l-.32.76-.15-.81c-1.07-5.64-2.97-10.51-5.66-14.48l-.07-.1.03-.11c.33-1.11.57-2.23.73-3.32l.08-.54.36.42c.24.28.46.54.67.8,3.15,3.99,5.02,8.79,5.42,13.9v.04s0,.04,0,.04Z"/>
        <path class="cls-2" d="M119.32,325.32c-.03.36.08.72.31,1,.46.56,1.37.64,1.92.17,1.96-1.63,4.12-3.11,6.42-4.38l.27-.15.09.29c1.31,4.19,5.05,7.45,9.3,8.12.61.1,1.24.14,1.87.14,4.77,0,9.29-2.75,12.6-4.76,4.07-2.48,8.4-4.83,12.62-4.01.56.11,1.14-.15,1.43-.64.29-.49.24-1.12-.12-1.57-7.58-9.14-21.88-15.96-31.78-11.03-3.81,1.9-6.39,6.09-6.43,10.43v.15s-.14.07-.14.07c-2.83,1.46-5.48,3.22-7.89,5.24-.28.23-.45.56-.48.92ZM130.74,317.31c.56-2.75,2.37-5.18,4.73-6.35,1.81-.9,3.89-1.36,6.2-1.36,6.33,0,13.87,3.43,19.69,8.94l.38.36-.52.07c-3.77.5-7.41,2.56-10.54,4.46-3.92,2.38-7.51,4.37-11.13,4.37-.5,0-.99-.04-1.49-.12-3.39-.53-6.45-3.38-7.27-6.76l-.05-.2.19-.09c5.17-2.33,10.63-3.56,16.24-3.65.36,0,.71-.15.96-.42.25-.26.39-.61.38-.97-.01-.74-.63-1.34-1.38-1.34h-.01c-5.51.09-10.9,1.21-16.04,3.33l-.43.18.09-.46Z"/>
        <path class="cls-2" d="M143.14,323.86c-1.2.63-2.59.87-3.92.66-1.34-.21-2.59-.85-3.54-1.82-.1-.11-.24-.17-.39-.17h0c-.15,0-.28.06-.39.16-.11.1-.17.24-.17.39,0,.15.05.29.16.4,1.11,1.14,2.59,1.9,4.16,2.14,1.58.25,3.22-.04,4.62-.78.13-.07.23-.19.27-.33.04-.14.03-.29-.04-.42-.14-.27-.48-.38-.75-.23Z"/>
        <path class="cls-2" d="M148.86,321.29c-.05-.02-.11-.02-.16-.02-.09,0-.18.02-.27.07l-2.02,1.1c-.27.15-.37.49-.22.76.14.26.49.37.76.22l2.02-1.1c.13-.07.23-.19.27-.33.04-.14.03-.29-.04-.42s-.19-.23-.33-.27Z"/>
        <path class="cls-2" d="M95.58,354.88l.13.08v.15c-.15,3.18.04,6.36.58,9.45.13.73.82,1.24,1.58,1.11.74-.13,1.24-.84,1.11-1.58-.44-2.52-.63-5.13-.58-7.75v-.31s.3.07.3.07c.85.19,1.69.29,2.51.29,3.59,0,7.02-1.6,9.18-4.28,3.48-4.3,3.34-10.39,3.24-14.84-.11-4.77.02-9.69,2.84-12.94.38-.43.44-1.06.16-1.56-.24-.43-.7-.69-1.19-.69-.08,0-.15,0-.23.02-11.7,2-24.76,10.98-25.44,22-.26,4.25,2.08,8.58,5.82,10.78ZM112,325.65l.5-.15-.2.48c-1.45,3.51-1.49,7.7-1.4,11.36.12,5.22,0,9.8-2.63,13.06-1.66,2.05-4.4,3.25-7.1,3.25-.81,0-1.62-.11-2.39-.34l-.2-.06.02-.21c.56-5.65,2.23-10.99,4.96-15.89.18-.32.22-.69.12-1.04-.1-.35-.33-.64-.65-.82-.32-.18-.69-.22-1.04-.12-.35.1-.64.33-.82.65-2.68,4.81-4.41,10.05-5.14,15.56l-.06.47-.35-.31c-2.1-1.86-3.3-4.64-3.14-7.27.53-8.58,10.22-15.87,19.51-18.62Z"/>
        <path class="cls-2" d="M106.1,347.81c-.85,1.05-2.03,1.81-3.34,2.15-.3.08-.48.38-.4.68.07.29.39.48.68.4,1.54-.39,2.94-1.29,3.93-2.53,1-1.24,1.58-2.8,1.64-4.38.01-.31-.23-.57-.54-.58h0c-.31,0-.56.23-.57.54-.05,1.35-.54,2.67-1.39,3.73Z"/>
        <path class="cls-2" d="M108.05,340.94c.1.11.24.17.39.17h.02c.3,0,.55-.24.56-.54l.06-2.3c0-.15-.05-.29-.15-.4-.1-.11-.24-.17-.39-.17-.2-.02-.31.06-.38.12-.11.1-.18.26-.19.42l-.06,2.3c0,.15.05.29.15.4Z"/>
        <path class="cls-2" d="M110.84,400.78c2.68,1.72,5.54,3.14,8.48,4.22h0c.69.26,1.5-.12,1.75-.81.13-.34.11-.71-.04-1.04-.15-.33-.43-.58-.77-.71-2.39-.88-4.75-2.01-7-3.37l-.26-.16.21-.22c2.97-3.23,3.93-8.1,2.38-12.12-1.99-5.16-7.33-8.09-11.23-10.22-4.18-2.29-8.38-4.87-9.79-8.93-.19-.54-.7-.91-1.27-.92-.59-.03-1.09.33-1.3.89-4.12,11.13-2.88,26.93,6.34,33.04,1.85,1.22,4.06,1.87,6.39,1.87,2.07,0,4.1-.53,5.86-1.53l.13-.07.13.08ZM110.5,397.26c-4.61-3.31-8.4-7.43-11.28-12.24-.19-.31-.48-.53-.84-.62-.35-.09-.72-.04-1.03.15-.65.39-.86,1.23-.47,1.87,2.83,4.73,6.5,8.84,10.91,12.23l.37.29-.45.15c-.97.32-1.99.48-3,.48-1.75,0-3.48-.48-4.87-1.4-7.17-4.75-8.63-16.78-6.37-26.21l.12-.51.32.42c2.31,3.01,5.93,5.14,9.13,6.89,4.58,2.51,8.49,4.9,10,8.81,1.23,3.2.3,7.27-2.22,9.68l-.15.14-.17-.12Z"/>
        <path class="cls-2" d="M110.75,387.73c-.57-1.48-1.63-2.76-2.98-3.61-.09-.06-.19-.08-.29-.08-.04,0-.08,0-.13.01-.15.03-.27.12-.35.25-.16.26-.08.61.18.77h0c1.14.72,2.04,1.8,2.53,3.07.49,1.26.56,2.67.19,3.97-.08.3.09.6.39.69.29.08.61-.1.69-.39.43-1.53.35-3.19-.22-4.68Z"/>
        <path class="cls-2" d="M105.08,382.76c.08-.13.1-.28.07-.42-.03-.14-.12-.27-.25-.34l-1.96-1.2c-.26-.16-.61-.08-.77.18-.16.26-.08.61.18.77l1.96,1.2c.26.16.61.07.77-.18Z"/>
        <path class="cls-2" d="M166.03,403.36c-.48-.58-1.34-.66-1.92-.17-1.96,1.63-4.12,3.1-6.42,4.38l-.27.15-.09-.29c-1.31-4.19-5.05-7.45-9.3-8.12-5.46-.86-10.66,2.3-14.46,4.61-4.08,2.49-8.42,4.84-12.64,4.02-.09-.02-.17-.02-.26-.02-.48,0-.93.25-1.18.67-.29.5-.24,1.12.12,1.57,6.19,7.46,16.21,12.68,24.36,12.68,2.73,0,5.23-.55,7.42-1.65,3.81-1.9,6.39-6.09,6.43-10.43v-.15s.14-.07.14-.07c2.83-1.46,5.48-3.22,7.89-5.24.58-.48.66-1.34.17-1.92ZM154.92,412.37c-.56,2.75-2.37,5.18-4.73,6.35-1.9.95-4.01,1.37-6.22,1.37-6.73,0-14.36-3.93-19.66-8.96l-.38-.36.52-.07c3.77-.5,7.41-2.56,10.54-4.46,4.45-2.71,8.48-4.89,12.63-4.25,3.39.53,6.45,3.38,7.27,6.76l.05.2-.19.08c-5.17,2.33-10.63,3.56-16.24,3.65-.75.01-1.36.63-1.34,1.39.01.74.62,1.34,1.36,1.34,5.53-.08,10.93-1.21,16.06-3.33l.43-.18-.09.46Z"/>
        <path class="cls-2" d="M142.52,405.83c.91-.48,1.94-.73,2.96-.73.32,0,.64.02.96.07,1.34.21,2.59.85,3.54,1.82.21.21.58.22.79,0,.22-.21.22-.57,0-.79-1.11-1.14-2.59-1.9-4.16-2.14-1.57-.24-3.21.03-4.62.78-.27.14-.38.48-.23.75.14.27.48.38.75.23Z"/>
        <path class="cls-2" d="M137.23,408.35l2.02-1.1c.13-.07.23-.19.27-.33.04-.14.03-.29-.04-.42-.1-.18-.29-.29-.49-.29-.09,0-.18.02-.27.07l-2.02,1.1c-.13.07-.23.19-.27.33-.04.14-.03.29.04.42.14.26.48.37.76.22Z"/>
        <path class="cls-2" d="M195.9,385.58c.26-4.25-2.08-8.58-5.82-10.78l-.13-.08v-.15c.15-3.18-.04-6.36-.58-9.45-.06-.36-.26-.68-.56-.89-.3-.21-.66-.29-1.02-.23-.74.13-1.24.84-1.11,1.58.44,2.51.63,5.12.58,7.75v.31s-.3-.07-.3-.07c-.83-.19-1.67-.28-2.51-.28-3.51,0-6.99,1.57-9.18,4.27-3.47,4.3-3.34,10.39-3.24,14.83.11,4.77-.02,9.7-2.84,12.94-.38.43-.44,1.06-.16,1.56.28.5.84.77,1.42.68,11.71-2,24.76-10.98,25.44-22.01ZM173.36,403.7c1.45-3.51,1.49-7.7,1.4-11.36-.12-5.22,0-9.8,2.63-13.06,1.62-2.01,4.33-3.26,7.08-3.26.83,0,1.64.12,2.42.34l.2.06-.02.21c-.56,5.64-2.23,10.99-4.96,15.89-.18.32-.22.69-.12,1.04.1.35.33.64.65.82.64.36,1.5.1,1.86-.53,2.68-4.81,4.41-10.05,5.14-15.56l.06-.47.35.31c2.1,1.86,3.3,4.65,3.14,7.28-.53,8.58-10.22,15.87-19.51,18.62l-.5.15.2-.48Z"/>
        <path class="cls-2" d="M182.91,379.72c.3-.08.48-.38.4-.68-.04-.14-.13-.27-.26-.34-.09-.05-.18-.08-.28-.08-.05,0-.09,0-.14.02-1.54.39-2.94,1.29-3.94,2.53-1,1.24-1.58,2.8-1.64,4.38,0,.15.05.29.15.4.1.11.24.17.39.18h0c.32,0,.56-.24.58-.54.05-1.35.54-2.68,1.39-3.73.85-1.05,2.04-1.82,3.34-2.15Z"/>
        <path class="cls-2" d="M177.61,388.75c-.1-.11-.24-.17-.39-.17h0c-.32,0-.56.23-.56.54l-.06,2.3c0,.31.24.56.54.57.31,0,.56-.24.57-.54l.06-2.3c0-.15-.05-.29-.15-.4Z"/>
        <path class="cls-2" d="M174.95,328.98l-.13-.08c-2.68-1.72-5.53-3.14-8.48-4.22-.15-.06-.31-.08-.47-.08-.56,0-1.08.34-1.28.89-.26.71.1,1.49.81,1.75,2.39.88,4.75,2.01,7,3.37l.26.16-.21.22c-2.97,3.23-3.93,8.1-2.38,12.12,1.99,5.16,7.33,8.09,11.23,10.22,4.18,2.29,8.38,4.86,9.79,8.93.19.54.7.91,1.27.92.58,0,1.1-.36,1.3-.89,4.12-11.13,2.87-26.93-6.34-33.04-3.55-2.35-8.47-2.49-12.25-.35l-.13.07ZM188.78,343.27c-2.83-4.73-6.5-8.84-10.91-12.23l-.37-.29.45-.15c2.62-.88,5.71-.51,7.87.92,7.17,4.75,8.63,16.78,6.37,26.21l-.12.51-.32-.42c-2.31-3.01-5.93-5.14-9.13-6.89-4.58-2.51-8.49-4.9-10-8.81-1.23-3.2-.3-7.27,2.22-9.68l.15-.14.17.12c4.61,3.31,8.4,7.43,11.28,12.24.37.62,1.25.84,1.87.47.31-.19.53-.49.62-.84.09-.35.03-.72-.15-1.03Z"/>
        <path class="cls-2" d="M178.66,345.38c.16-.26.08-.61-.18-.77-1.14-.72-2.04-1.81-2.53-3.07-.49-1.26-.55-2.67-.19-3.97.08-.3-.09-.6-.39-.69-.05-.01-.1-.02-.15-.02-.09,0-.19.02-.27.07-.13.07-.22.19-.26.34-.43,1.53-.35,3.19.22,4.68.57,1.48,1.63,2.76,2.98,3.61.25.16.61.08.77-.18Z"/>
        <path class="cls-2" d="M183.5,348.71c.16-.26.08-.61-.18-.77l-1.96-1.2c-.09-.06-.19-.08-.29-.08-.19,0-.37.09-.48.27-.16.26-.08.61.18.77l1.96,1.2c.26.16.61.07.77-.18Z"/>
        <path class="cls-2" d="M81.61,406.13c-8.23-12.16-12.6-26.36-12.65-41.07-.03-11.48,2.51-22.5,7.55-32.74.27-.55.04-1.22-.51-1.5-.16-.08-.33-.12-.5-.12-.12,0-.24.02-.36.06-.28.1-.51.3-.64.57-5.2,10.56-7.82,21.91-7.78,33.74.05,15.15,4.55,29.78,13.03,42.31.33.49,1.06.64,1.55.3.25-.17.41-.42.47-.71.06-.29,0-.59-.17-.84Z"/>
        <path class="cls-2" d="M218.93,365.07c.04-11.83-2.58-23.18-7.78-33.74-.13-.27-.36-.47-.64-.56-.12-.04-.24-.06-.36-.06-.17,0-.34.04-.49.12-.55.27-.78.94-.51,1.5,5.05,10.25,7.59,21.26,7.55,32.74-.04,14.7-4.42,28.91-12.65,41.07-.17.25-.23.55-.17.84.06.29.22.55.47.71.5.34,1.22.19,1.55-.3,8.48-12.53,12.99-27.16,13.03-42.31Z"/>
      </g>
    </g>
    <g>
      <g>
        <text class="cls-1" transform="translate(310.31 313.21) rotate(-36.35)"><tspan x="0" y="0">R</tspan></text>
        <text class="cls-1" transform="translate(321.13 305.17) rotate(-25.72)"><tspan x="0" y="0">E</tspan></text>
        <text class="cls-1" transform="translate(332.06 299.71) rotate(-15.07)"><tspan x="0" y="0">C</tspan></text>
        <text class="cls-1" transform="translate(344.82 296.2) rotate(-4.66)"><tspan x="0" y="0">Y</tspan></text>
        <text class="cls-1" transform="translate(356.32 295.05) rotate(5.29)"><tspan x="0" y="0">C</tspan></text>
        <text class="cls-1" transform="translate(369.7 296.29) rotate(15.37)"><tspan x="0" y="0">L</tspan></text>
        <text class="cls-1" transform="translate(380.3 299.04) rotate(25.08)"><tspan x="0" y="0">E</tspan></text>
        <text class="cls-1" transform="translate(391.47 303.95) rotate(36.45)"><tspan x="0" y="0">D</tspan></text>
        <text class="cls-1" transform="translate(310.13 433.51) rotate(29.92)"><tspan x="0" y="0">F</tspan></text>
        <text class="cls-1" transform="translate(321.84 440.29) rotate(19.82)"><tspan x="0" y="0">A</tspan></text>
        <text class="cls-1" transform="translate(337.48 445.79) rotate(8.28)"><tspan x="0" y="0">B</tspan></text>
        <text class="cls-1" transform="translate(354.12 448.03) rotate(-2.93)"><tspan x="0" y="0">R</tspan></text>
        <text class="cls-1" transform="translate(369.82 446.87) rotate(-10.89)"><tspan x="0" y="0">I</tspan></text>
        <text class="cls-1" transform="translate(377.19 445.67) rotate(-18.89)"><tspan x="0" y="0">C</tspan></text>
        <text class="cls-1" transform="translate(392.14 440.35) rotate(-29.17)"><tspan x="0" y="0">S</tspan></text>
      </g>
      <g>
        <path class="cls-2" d="M447.08,364.26c-.15-49.43-40.48-89.64-89.91-89.64h-.28c-49.58.15-89.79,40.61-89.64,90.18.15,49.43,40.48,89.64,89.91,89.64h.28c49.58-.15,89.79-40.61,89.64-90.18ZM357.43,451.71h-.27c-47.92,0-87.03-38.99-87.18-86.91-.15-48.07,38.84-87.3,86.91-87.45h.27c47.92,0,87.03,38.99,87.18,86.92.07,23.25-8.94,45.16-25.38,61.7-16.43,16.53-38.29,25.68-61.54,25.75Z"/>
        <path class="cls-2" d="M304.15,416.86c-13.82-14-21.46-32.5-21.52-52.11-.05-17.77,6.28-35.02,17.84-48.56.49-.57.42-1.44-.15-1.92-.26-.22-.57-.33-.89-.33-.39,0-.77.16-1.04.48-11.98,14.04-18.55,31.91-18.5,50.34.06,20.33,7.98,39.51,22.31,54.02.51.52,1.41.53,1.93.01.54-.53.54-1.39.01-1.93Z"/>
        <path class="cls-2" d="M415.93,314.43c-.24-.28-.57-.45-.93-.47-.04,0-.07,0-.11,0-.32,0-.63.11-.88.33-.57.49-.64,1.35-.15,1.92,11.45,13.41,17.79,30.5,17.84,48.1.06,19.78-7.58,38.44-21.52,52.56-.26.26-.4.6-.39.97,0,.36.15.71.41.96.52.51,1.42.51,1.93-.01,14.44-14.63,22.36-33.98,22.3-54.48-.06-18.25-6.62-35.96-18.5-49.87Z"/>
        <path class="cls-2" d="M357.17,300.19c-35.48,0-64.35,28.87-64.35,64.35s28.87,64.35,64.35,64.35,64.35-28.87,64.35-64.35-28.87-64.35-64.35-64.35ZM357.17,426.15c-33.98,0-61.62-27.64-61.62-61.62s27.64-61.62,61.62-61.62,61.62,27.64,61.62,61.62-27.64,61.62-61.62,61.62Z"/>
        <path class="cls-2" d="M377.42,373.87c4.78-10.62,5.9-25.8,2.98-40.61-.1-.53-.51-.95-1.04-1.07-.53-.12-1.07.08-1.4.51-3.23,4.32-8.85,5.89-14.45,6.95-.69.13-1.38.26-2.06.38l-.34.06c-4.22.77-8.2,1.5-12.03,2.85-5.16,1.82-9.11,4.54-11.74,8.09-3.14,4.23-4.31,9.72-3.14,14.68.95,4.05,3.63,7.68,6.99,9.48l.35.19-.32.23c-3.25,2.38-6.36,4.11-10.07,5.6-.4.16-.71.47-.88.86-.17.4-.17.83-.01,1.23.32.8,1.28,1.22,2.09.89,4.24-1.7,7.79-3.71,11.51-6.53l.29-.22.1.35c1.23,4.34,5.02,8.57,9.22,10.28,1.73.71,3.57,1.07,5.47,1.07,3.24,0,6.44-1.04,9.24-3,3.63-2.55,6.65-6.57,9.23-12.28ZM358.95,386.42c-1.52,0-3.02-.28-4.44-.86-3.73-1.53-7.83-6.15-7.97-10.6,0-.07-.01-.14-.03-.21l-.03-.14.11-.09c.46-.4.93-.81,1.41-1.24l.18-.16.17.17c3.6,3.62,8.87,5.77,14.1,5.77,1.27,0,2.53-.12,3.74-.37.3-.06.5-.36.44-.66-.06-.3-.35-.49-.66-.43-5.89,1.2-12.47-.77-16.75-5.03l-.19-.19.2-.18c.75-.67,1.52-1.37,2.29-2.09l.09-.09c.28-.26.56-.52.85-.79l.12-.12.15.07c2.78,1.3,5.76,1.96,8.85,1.96,1.91,0,3.83-.25,5.7-.76.3-.08.47-.39.39-.68-.08-.3-.38-.47-.68-.39-4.4,1.19-9.08.88-13.19-.87l-.35-.15.28-.26c1.66-1.58,3.31-3.18,4.88-4.77l.1-.1.14.04c1.68.43,3.4.64,5.1.64,3.15,0,6.34-.72,9.25-2.09.13-.06.24-.17.29-.31.05-.14.04-.29-.02-.43-.06-.13-.18-.24-.32-.29-.14-.05-.29-.05-.43.02-3.96,1.86-8.44,2.43-12.64,1.59l-.45-.09.32-.33c2.07-2.13,4.03-4.24,5.82-6.27l.08-.09h.12c.31.03.67.04,1.08.04,2.01,0,4.85-.33,6.99-1.89.25-.18.3-.53.12-.78-.18-.25-.53-.3-.78-.12-1.83,1.33-4.3,1.65-6.05,1.67h-.55s.36-.41.36-.41c2.06-2.42,3.78-4.65,5.12-6.62.17-.25.11-.6-.15-.78-.25-.17-.6-.11-.77.15-1.75,2.56-4.09,5.51-6.98,8.75l-.37.42-.06-.56c-.3-2.78.1-5.71,1.12-8.25.11-.29-.02-.61-.31-.72-.14-.06-.29-.05-.43,0s-.24.17-.3.31c-1.26,3.14-1.62,6.83-.99,10.14l.02.12-.08.09c-1.63,1.79-3.41,3.64-5.27,5.51l-.32.32-.1-.44c-1.1-4.92-.65-10.17,1.26-14.79.12-.28-.02-.61-.3-.73-.29-.12-.61.02-.73.3-2.11,5.09-2.53,10.83-1.17,16.18.01.05.04.11.07.16l.11.17-.14.14c-1.58,1.56-3.17,3.09-4.72,4.54l-.28.26-.13-.36c-1.99-5.69-2.34-12.25-.91-17.13.09-.29-.08-.61-.38-.69-.29-.08-.6.09-.69.38-1.54,5.23-1.08,12.47,1.17,18.45l.06.16-.12.11c-.87.8-1.72,1.57-2.55,2.31l-.23.2-.15-.26c-1.97-3.33-4.09-8.78-3.56-13.17.04-.3-.18-.58-.49-.62-.15-.02-.29.02-.41.11-.12.09-.19.22-.21.37-.58,4.81,1.72,10.62,3.87,14.13l.11.18-.97.85-.14-.05c-.13-.05-.25-.07-.35-.08-3.58-.23-7.34-4.07-8.4-8.55-.97-4.13.05-8.9,2.68-12.43,2.3-3.1,5.82-5.5,10.46-7.14,3.63-1.28,7.5-1.99,11.61-2.74l.41-.08c.67-.12,1.34-.25,2.02-.37,4.93-.93,10.02-2.25,13.84-5.55l.34-.29.07.44c2.1,13.37.88,26.43-3.35,35.81-2.37,5.26-5.09,8.91-8.31,11.17-2.36,1.65-5.04,2.5-7.67,2.5Z"/>
        <path class="cls-2" d="M318.22,338.68l19.42-.78c.52-.02.99-.34,1.2-.82.21-.47.13-1.04-.21-1.43l-3.65-4.29.2-.16c14.51-11.88,41.01-11.92,58.57-5.93.63.21,1.32-.05,1.64-.64.32-.59.17-1.31-.35-1.72-9.58-7.59-21.58-11.85-33.8-12.01-11.67-.11-23.33,3.5-32.83,10.22l-.19.13-.15-.18c-.42-.5-.86-.98-1.28-1.45-.76-.84-1.47-1.63-2.09-2.49-.26-.35-.67-.56-1.1-.56-.08,0-.16,0-.24.02-.51.09-.93.48-1.07.98l-5.4,19.36c-.12.42-.03.87.24,1.21.26.33.65.52,1.07.52v.25h0l.03-.25ZM324.2,320.83l.56.62c.76.84,1.47,1.63,2.1,2.49.21.29.54.49.9.55.37.05.73-.04,1.02-.26,9.29-6.98,20.81-10.76,32.42-10.6,8.21.11,16.43,2.18,23.77,6l1.53.8-1.69-.33c-7.5-1.46-15.35-1.9-22.69-1.3-12.51,1.03-22.87,4.98-29.97,11.41-.55.5-.6,1.33-.12,1.89l2.71,3.18-14.72.59,4.19-15.04Z"/>
        <path class="cls-2" d="M328.65,332.95c.01.3.26.54.56.54h.29c.31-.02.55-.28.54-.59,0-.15-.07-.29-.18-.4-.1-.09-.23-.14-.37-.14,0,0-.02,0-.03,0h-.27c-.31.02-.55.28-.54.59Z"/>
        <path class="cls-2" d="M327.03,332.45s-.02,0-.03,0h0l-3.87.14c-.15,0-.29.07-.39.18-.1.11-.15.25-.15.4.01.3.25.54.56.54l3.89-.14c.15,0,.29-.07.39-.18.1-.11.15-.25.15-.4,0-.15-.07-.29-.18-.4-.1-.09-.23-.14-.36-.14Z"/>
        <path class="cls-2" d="M342.33,321.49c5.22-2.25,10.46-3.57,14.75-3.71.15,0,.29-.07.39-.18.1-.11.16-.25.15-.4,0-.15-.07-.29-.19-.4-.1-.09-.22-.14-.35-.14,0,0-.02,0-.03,0-4.43.14-9.82,1.49-15.16,3.8-.14.06-.24.17-.3.3-.06.14-.05.29,0,.43.12.27.44.42.73.29Z"/>
        <path class="cls-2" d="M333.93,326.01c1.27-.84,2.63-1.64,4.02-2.39.13-.07.23-.19.27-.33.04-.14.03-.29-.04-.42-.07-.13-.19-.23-.33-.27-.05-.02-.11-.02-.16-.02-.09,0-.18.02-.26.07-1.43.77-2.81,1.59-4.1,2.45-.12.08-.21.21-.24.35-.03.15,0,.29.08.42.16.25.52.33.77.16Z"/>
        <path class="cls-2" d="M352.48,411.45c.42-.11.77-.41.93-.82.16-.4.12-.86-.11-1.23l-10.36-16.4c-.28-.44-.78-.69-1.31-.63-.51.06-.96.41-1.13.9l-1.89,5.3-.24-.09c-17.54-6.63-30.83-29.55-34.42-47.76-.13-.64-.69-1.1-1.34-1.1h-.03c-.67.02-1.22.51-1.32,1.17-1.78,12.09.53,24.62,6.5,35.27,5.69,10.16,14.67,18.44,25.26,23.32l.21.1-.08.22c-.22.62-.42,1.23-.62,1.84-.35,1.08-.68,2.09-1.11,3.06-.21.48-.13,1.04.21,1.43.33.4.88.57,1.38.44l19.47-5.01ZM310.14,384.73c-4.01-7.16-6.33-15.31-6.69-23.58l-.08-1.72.56,1.63c2.49,7.23,6.02,14.25,10.22,20.3,7.15,10.32,15.75,17.32,24.87,20.25.71.23,1.45-.14,1.7-.84l1.4-3.93,7.87,12.45-15.12,3.89.26-.79c.36-1.1.68-2.1,1.1-3.06.15-.33.16-.71.02-1.05-.13-.34-.4-.61-.74-.75-10.69-4.55-19.71-12.65-25.39-22.78Z"/>
        <path class="cls-2" d="M342.37,403.08c.16.25.51.34.77.18.13-.08.21-.2.25-.35.03-.15,0-.3-.07-.42l-.14-.23c-.16-.26-.51-.34-.77-.18-.12.08-.21.2-.25.35-.03.15,0,.3.07.42l.14.23Z"/>
        <path class="cls-2" d="M343.46,404.51c-.03.15,0,.29.07.42l2.06,3.28c.16.25.52.33.77.18.13-.08.21-.2.25-.35.03-.15,0-.29-.07-.42l-2.06-3.28c-.08-.13-.21-.22-.35-.25-.14-.03-.29,0-.42.07-.13.08-.22.2-.25.35Z"/>
        <path class="cls-2" d="M325.71,398.03c.24.17.6.12.78-.12.18-.25.13-.6-.12-.78-4.56-3.39-8.32-7.27-10.59-10.92h0c-.08-.13-.2-.21-.35-.25-.04-.01-.08-.02-.13-.02-.1,0-.2.03-.29.08-.26.16-.34.51-.18.77,2.34,3.76,6.2,7.75,10.87,11.23Z"/>
        <path class="cls-2" d="M329.57,400.47c.03.14.12.27.25.35,1.38.85,2.78,1.63,4.17,2.33.27.13.61.02.75-.25.07-.13.08-.28.03-.42-.05-.14-.15-.26-.28-.32-1.37-.69-2.74-1.46-4.08-2.28-.09-.06-.19-.08-.29-.08-.04,0-.09,0-.13.01-.15.03-.27.12-.35.25-.08.13-.1.28-.07.42Z"/>
        <path class="cls-2" d="M399.2,343.36c-.31-.31-.74-.46-1.17-.39-.43.06-.81.33-1.01.71l-9.02,17.18c-.24.46-.2,1.03.11,1.44.31.42.83.63,1.35.53l5.54-1.01.04.25c3.03,18.51-10.18,41.47-24.15,53.69-.5.44-.61,1.17-.27,1.74.33.55,1.07.79,1.67.56,11.36-4.5,21.05-12.76,27.3-23.27,5.95-10.01,8.64-21.92,7.56-33.54l-.02-.23.23-.04c.64-.12,1.28-.25,1.9-.38,1.11-.24,2.16-.46,3.2-.57.52-.06.96-.41,1.14-.9.18-.49.05-1.04-.31-1.42l-14.07-14.36ZM408.68,357.93l-.05-.24h0l.04.25c-1.1.23-2.14.46-3.19.57-.36.04-.7.22-.92.51-.23.28-.33.65-.29,1.01,1.4,11.53-1.1,23.39-7.03,33.38-4.19,7.05-10.1,13.13-17.08,17.58l-1.46.93,1.13-1.3c5.01-5.77,9.32-12.33,12.47-19,5.36-11.35,7.12-22.3,5.1-31.66-.15-.7-.84-1.18-1.58-1.05l-4.11.75,6.85-13.04,10.93,11.15-.82.17Z"/>
        <path class="cls-2" d="M396.13,356.78c.27.14.62.03.75-.23l.13-.24c.07-.13.08-.28.04-.43-.04-.14-.14-.26-.27-.33-.08-.04-.17-.06-.26-.06-.2,0-.39.11-.49.3l-.13.24c-.07.13-.08.28-.04.43.04.14.14.26.27.33Z"/>
        <path class="cls-2" d="M397.01,354.28c.04.14.14.26.27.33.27.14.61.03.75-.23l1.81-3.42c.14-.27.04-.61-.23-.75-.13-.07-.28-.08-.42-.04-.14.04-.26.14-.33.27l-1.81,3.42c-.07.13-.08.28-.04.42Z"/>
        <path class="cls-2" d="M400.85,372.85c-.09-.12-.22-.19-.37-.21h0s-.04,0-.07,0c-.12,0-.24.04-.33.12-.12.09-.2.23-.21.38-.66,5.65-2.13,10.84-4.16,14.63-.07.13-.09.28-.04.42.04.14.14.26.27.33.27.14.61.03.75-.23,2.09-3.91,3.61-9.25,4.29-15.03.02-.15-.02-.29-.12-.41Z"/>
        <path class="cls-2" d="M400.22,368.28c0,.31.23.56.54.57.31,0,.56-.24.57-.54.05-1.61.03-3.22-.07-4.78,0-.15-.07-.29-.18-.39-.1-.09-.23-.14-.37-.14-.01,0-.03,0-.04,0-.15,0-.29.08-.38.19-.1.11-.15.25-.14.4.09,1.53.11,3.1.06,4.68Z"/>
      </g>
    </g>
    <g>
      <text class="cls-1" transform="translate(78.29 75.41)"><tspan x="0" y="0">HANDMADE</tspan></text>
      <text class="cls-1" transform="translate(82.65 225.32)"><tspan x="0" y="0">M</tspan><tspan class="cls-8" x="19.28" y="0">A</tspan><tspan x="33.69" y="0">TERIA</tspan><tspan class="cls-9" x="95.68" y="0">L</tspan><tspan x="107.67" y="0">S</tspan></text>
      <g>
        <path class="cls-2" d="M211.19,45.25H74.47c-11.88,0-21.55,9.67-21.55,21.55v152.07c0,11.88,9.67,21.55,21.55,21.55h136.72c11.88,0,21.55-9.67,21.55-21.55V66.8c0-11.88-9.67-21.55-21.55-21.55ZM230.01,218.86c0,10.38-8.44,18.82-18.82,18.82H74.47c-10.38,0-18.82-8.44-18.82-18.82V66.8c0-10.38,8.44-18.82,18.82-18.82h136.72c10.38,0,18.82,8.44,18.82,18.82v152.07Z"/>
        <path class="cls-2" d="M111.88,145.68c-.43-.94-1.2-1.66-2.18-2.02-.44-.16-.9-.24-1.35-.24-.55,0-1.1.12-1.62.36-.96.44-1.68,1.23-2.03,2.23-.35,1-.28,2.07.19,3.01l.32.65c.13.27.47.38.74.25l3.7-1.8c.13-.06.23-.18.28-.32.05-.14.04-.29-.02-.43-.06-.13-.18-.23-.32-.28-.14-.05-.29-.04-.43.03l-3.21,1.56-.11-.23c-.3-.65-.34-1.39-.1-2.07.25-.71.76-1.27,1.44-1.59.67-.31,1.42-.34,2.11-.08.69.26,1.24.77,1.55,1.44l.24.54c.13.28.46.4.74.28.28-.13.4-.46.28-.74l-.24-.54Z"/>
        <path class="cls-2" d="M173.78,145.67l-.24.54c-.13.28,0,.61.28.74.28.13.61,0,.74-.28l.24-.54c.31-.67.86-1.18,1.55-1.44.69-.26,1.44-.23,2.11.08.68.31,1.19.88,1.44,1.59.24.68.2,1.41-.1,2.07l-.11.23-3.22-1.56c-.08-.04-.16-.06-.24-.06-.06,0-.12.01-.18.03-.14.05-.25.15-.32.28-.07.13-.07.28-.03.43.05.14.15.25.28.32l3.71,1.8c.27.13.61.01.74-.25l.32-.65c.47-.95.54-2.01.19-3.01-.35-1-1.07-1.79-2.03-2.23-.94-.43-2-.47-2.97-.11-.97.36-1.74,1.08-2.17,2.02Z"/>
        <path class="cls-2" d="M128.71,97.52c-.06.13-.07.29-.02.42h0s.92,2.52.92,2.52c.1.28.43.43.71.33.14-.05.25-.15.32-.29.06-.13.07-.29.02-.43l-.92-2.52c-.05-.14-.15-.25-.29-.32-.07-.03-.15-.05-.23-.05-.06,0-.13.01-.19.03-.14.05-.25.15-.32.29Z"/>
        <path class="cls-2" d="M123.69,84.2l3.63,9.96c.1.28.44.44.71.33.14-.05.25-.15.32-.29.06-.13.07-.29.02-.43l-3.63-9.96c-.05-.14-.15-.25-.29-.32-.07-.03-.15-.05-.23-.05-.06,0-.13.01-.19.03-.14.05-.25.15-.32.29-.06.13-.07.29-.02.43Z"/>
        <path class="cls-2" d="M114.72,102.52l8.23,9.81c.19.23.56.26.78.07.11-.1.18-.23.2-.38.01-.15-.03-.29-.13-.41l-8.23-9.81c-.11-.13-.27-.2-.43-.2-.13,0-.25.04-.36.13-.11.1-.18.23-.2.38-.01.15.03.29.13.41Z"/>
        <path class="cls-2" d="M105.84,91.94l6.45,7.69c.19.23.56.26.78.07.11-.1.18-.23.2-.38.01-.15-.03-.29-.13-.41l-6.45-7.69c-.11-.13-.27-.2-.43-.2-.13,0-.25.04-.36.13-.11.1-.18.23-.2.38-.01.15.03.29.13.41Z"/>
        <path class="cls-2" d="M102.13,112.11c.04.14.13.26.26.34l15.21,8.78c.26.15.61.05.76-.2.15-.27.06-.61-.2-.76l-15.21-8.78c-.09-.05-.18-.08-.28-.08-.05,0-.1,0-.14.02-.14.04-.27.13-.34.26-.07.13-.09.28-.06.42Z"/>
        <path class="cls-2" d="M94.66,107.8c.04.14.13.26.26.34l3.53,2.04c.26.15.61.05.76-.2.07-.13.09-.28.06-.42-.04-.14-.13-.26-.26-.34l-3.53-2.04c-.27-.15-.61-.06-.76.2-.07.13-.09.28-.06.42Z"/>
        <path class="cls-2" d="M82.87,101.18l8.93,5.16c.26.15.61.05.76-.2.15-.27.06-.61-.2-.76l-8.93-5.16c-.13-.08-.28-.09-.42-.06-.14.04-.27.13-.34.26-.15.27-.06.61.2.76Z"/>
        <path class="cls-2" d="M136.83,151.65c-.06-.02-.13-.03-.19-.03-.23,0-.44.14-.52.37l-.87,2.39c-.05.14-.04.29.02.43.06.14.17.24.31.29.28.1.61-.05.71-.33l.87-2.39c.05-.14.04-.29-.02-.43-.06-.13-.17-.24-.31-.29Z"/>
        <path class="cls-2" d="M155.34,100.8h0c.28.1.61-.05.71-.33l.92-2.52c.05-.14.04-.29-.02-.43-.06-.14-.17-.24-.31-.29-.06-.02-.13-.03-.19-.03-.08,0-.16.02-.24.05-.14.06-.24.17-.29.31l-.92,2.52c-.05.14-.04.29.02.43.06.14.17.24.31.29Z"/>
        <path class="cls-2" d="M157.63,94.5h0c.28.1.61-.05.71-.33l3.63-9.96c.05-.14.04-.29-.02-.43-.06-.14-.17-.24-.31-.29-.06-.02-.13-.03-.19-.03-.08,0-.16.02-.23.05-.14.06-.24.18-.29.32l-3.63,9.96c-.05.14-.04.29.02.43.06.13.17.24.31.29Z"/>
        <path class="cls-2" d="M161.93,112.4c.23.19.59.16.78-.07l8.23-9.81c.2-.24.17-.59-.07-.79-.1-.09-.23-.13-.36-.13-.16,0-.32.07-.43.2l-8.23,9.81c-.1.11-.14.26-.13.41.01.15.08.28.2.38h0Z"/>
        <path class="cls-2" d="M173.37,99.63l6.45-7.69c.1-.11.14-.26.13-.41-.01-.15-.08-.28-.2-.38-.1-.09-.23-.13-.36-.13-.16,0-.32.07-.43.2l-6.45,7.69c-.1.11-.14.26-.13.41.01.15.08.28.2.38.23.19.6.16.78-.07Z"/>
        <path class="cls-2" d="M167.5,120.27c-.27.15-.36.5-.2.76.15.26.51.35.76.2l15.21-8.78c.27-.15.36-.5.2-.76-.08-.13-.2-.22-.34-.26-.14-.04-.29-.02-.42.06l-15.21,8.78Z"/>
        <path class="cls-2" d="M187.21,110.18l3.53-2.04c.13-.07.22-.19.26-.34.04-.14.02-.29-.06-.42-.07-.13-.2-.22-.34-.26-.05-.01-.1-.02-.15-.02-.1,0-.19.03-.28.07l-3.53,2.04c-.27.15-.36.5-.2.76.15.26.5.35.76.2Z"/>
        <path class="cls-2" d="M193.86,106.34l8.93-5.16c.13-.07.22-.2.26-.34.04-.14.02-.29-.06-.42-.08-.13-.2-.22-.34-.26-.05-.01-.1-.02-.14-.02-.1,0-.19.03-.28.08l-8.93,5.16c-.13.07-.22.2-.26.34-.04.14-.02.29.06.42.15.26.51.35.76.2Z"/>
        <path class="cls-2" d="M150.42,154.37l-.87-2.39c-.05-.14-.15-.25-.29-.31-.08-.04-.16-.05-.24-.05-.06,0-.13.01-.19.03-.14.05-.25.15-.32.29-.06.13-.07.29-.02.43l.87,2.39c.1.28.43.44.71.33.14-.05.25-.15.31-.29.06-.13.07-.29.02-.43Z"/>
        <path class="cls-2" d="M211.19,53.32H74.47c-7.43,0-13.48,6.05-13.48,13.48v152.07c0,7.43,6.05,13.48,13.48,13.48h136.72c7.43,0,13.48-6.05,13.48-13.48V66.8c0-7.43-6.05-13.48-13.48-13.48ZM221.94,218.86c0,5.93-4.82,10.75-10.75,10.75H74.47c-5.93,0-10.75-4.82-10.75-10.75v-12.92h158.21v12.92ZM87.86,119.21c.16,0,.32-.07.42-.19.11-.12.15-.29.13-.45l-.24-1.6c-.36-2.4-2.12-4.36-4.48-4.99l-.19-.05v-3.2l.29.05c2.89.46,5.46,2.12,7.05,4.58.06.11.11.2.18.28.72,1.2,1.18,2.48,1.39,3.83l2.71,17.81c.02.14.06.28.13.4l4.63,9.32v.08c-.21,1.52.05,3.06.75,4.45l9.78,19.82c.33.67,1.15.95,1.83.62.67-.33.95-1.15.62-1.83l-9.78-19.82c-.48-.96-.64-2.01-.46-3.06.04-.12.05-.22.06-.31.34-1.42,1.26-2.61,2.53-3.28,2.4-1.27,5.34-.43,6.69,1.92l6.08,10.55c.12.2.29.38.49.5,15.39,9.01,17.58,24.89,14.23,33.29-.06.16-.1.33-.1.51v14.78h-27.12v-13.37c0-.21-.05-.42-.14-.6l-9.1-18.58c-7.75-15.82-12.13-33.53-12.66-51.19v-.26s4.3,0,4.3,0ZM83.54,118.1v-.8c-.02-.49-.03-.98-.03-1.48v-2.75l.34.12c1.72.63,2.96,2.15,3.23,3.94l.14.96h-3.67ZM103.64,139.41l-.19.12c-.78.48-1.45,1.07-1.98,1.75l-.25.31-3.45-6.97-2.67-17.56c-.09-.61-.24-1.24-.45-1.92l-.17-.55.52.25c2,.98,3.38,2.86,3.7,5.03l2,13.46c.02.14.06.28.13.4l2.81,5.68ZM101.44,119.73l.42.19c1.59.73,2.65,2.18,2.85,3.9l.95,8.11c.02.15.06.3.13.44l2.95,6.04-.44-.04c-.61-.06-1.25-.04-1.9.06l-.18.03-2.85-5.79-1.92-12.93ZM182.27,132.74l-2.83,5.72-.18-.03c-.65-.1-1.29-.12-1.9-.06l-.44.04,2.95-6.04c.07-.14.11-.29.13-.44l.95-8.11c.2-1.71,1.27-3.17,2.85-3.9l.42-.19-1.95,13.01ZM184.83,133.73c.06-.13.11-.26.13-.4l2-13.46c.32-2.17,1.71-4.05,3.7-5.03l.52-.25-.17.55c-.21.69-.36,1.32-.45,1.92l-2.7,17.63-3.42,6.9-.25-.31c-.54-.68-1.21-1.27-1.98-1.75l-.19-.12,2.81-5.68ZM180.47,141.66c1.28.68,2.2,1.86,2.53,3.25.02.12.03.22.06.31.18,1.08.02,2.14-.46,3.1l-9.78,19.82c-.33.67-.05,1.49.62,1.83.67.33,1.5.05,1.83-.62l9.78-19.81c.69-1.4.96-2.94.76-4.46v-.08s4.62-9.32,4.62-9.32c.06-.13.11-.26.13-.4l2.71-17.81c.21-1.36.67-2.64,1.37-3.81.08-.11.14-.19.18-.28,1.6-2.48,4.17-4.15,7.06-4.6l.29-.05v3.2l-.19.05c-2.37.63-4.12,2.59-4.48,4.99l-.24,1.6c-.02.16.02.32.13.45.11.12.26.19.42.19h4.31v.26c-.53,17.67-4.91,35.37-12.66,51.19l-9.1,18.58c-.09.18-.14.39-.14.6v13.37h-27.12v-14.78c0-.17-.03-.34-.1-.51-3.36-8.4-1.17-24.28,14.23-33.29.2-.12.37-.29.49-.5l6.08-10.55c1.36-2.35,4.3-3.2,6.69-1.92ZM202.16,113.07v2.75c0,.49,0,.98-.02,1.48v.8h-3.69l.14-.96c.27-1.8,1.5-3.31,3.23-3.94l.34-.12ZM221.94,203.21h-39.01v-4.52h25.1c.31,0,.56-.25.56-.56s-.25-.56-.56-.56h-25.1v-2.52h29.54c.31,0,.56-.25.56-.56s-.25-.56-.56-.56h-29.54v-2.52h33.17c.31,0,.56-.25.56-.56s-.25-.56-.56-.56h-33.25l1.23-2.52h25.25c.31,0,.56-.25.56-.56s-.25-.56-.56-.56h-24.71l1.23-2.52h18.23c.31,0,.56-.25.56-.56s-.25-.56-.56-.56h-17.68l1.23-2.52h25.73c.31,0,.56-.25.56-.56s-.25-.56-.56-.56h-25.18l1.23-2.52h27.89c.31,0,.56-.25.56-.56s-.25-.56-.56-.56h-27.34l1.23-2.52h16.11c.31,0,.56-.25.56-.56s-.25-.56-.56-.56h-15.57l.18-.36c.26-.54.52-1.08.77-1.62l.25-.54h6.49c.31,0,.56-.25.56-.56s-.25-.56-.56-.56h-5.97l.16-.35c7.37-16.37,11.26-34.47,11.26-52.34v-8.54c0-.75-.61-1.36-1.36-1.36-4.23,0-8.21,2.04-10.65,5.44l-.07.09h-.11c-3.19.32-6.08,2.31-7.54,5.2l-.06.12-.13.02c-3.55.41-6.31,3.17-6.73,6.71l-.58,4.95-7.24,1.28c-.15.03-.27.11-.36.23-.09.12-.12.27-.09.42.05.3.33.51.65.45l6.91-1.22-.23,1.82-4.16,8.51-5.15-.91c-.15-.03-.29,0-.42.09-.12.09-.2.21-.23.36-.03.15,0,.29.09.42.09.12.21.2.36.23l4.54.8-.26.33c-.27.34-.49.66-.67.96l-3.8,6.6-5.14-2.97c-.13-.07-.28-.09-.42-.06-.14.04-.27.13-.34.26-.07.13-.09.28-.06.42.04.14.13.26.26.34l5.14,2.97-1.54,2.67-.06.03c-1.53.92-3.01,1.97-4.41,3.12l-.19.16-4.32-5.15c-.1-.11-.23-.18-.38-.2-.15-.01-.29.03-.41.13-.11.1-.18.23-.2.38-.01.15.03.29.13.41l4.33,5.15-.18.16c-2.21,1.98-4.14,4.22-5.73,6.65l-.27.42-2.3-6.31c-.05-.14-.15-.25-.29-.31-.13-.06-.29-.07-.43-.02-.14.05-.25.15-.31.29-.06.14-.07.29-.02.43l2.6,7.15-.06.1c-4.4,7.68-5.4,16.5-2.69,23.61l.02.09v14.48h-15.03l.02-14.57c2.72-7.1,1.71-15.93-2.69-23.61l-.06-.1,2.6-7.14c.05-.14.04-.29-.02-.43-.06-.14-.17-.24-.31-.29-.14-.05-.29-.05-.43.02-.14.06-.24.17-.29.31l-2.3,6.31-.27-.42c-1.6-2.43-3.53-4.66-5.73-6.65l-.18-.16,4.33-5.16c.1-.11.14-.26.13-.41-.01-.15-.08-.28-.2-.38-.11-.1-.26-.15-.41-.13-.15.01-.28.08-.38.2l-4.32,5.15-.19-.16c-1.4-1.15-2.89-2.2-4.41-3.12l-.06-.03-1.54-2.67,5.14-2.97c.13-.07.22-.19.26-.34.04-.14.02-.29-.06-.42-.08-.13-.2-.22-.34-.26-.14-.04-.29-.02-.42.06l-5.14,2.97-3.8-6.6c-.18-.31-.39-.62-.66-.96l-.26-.33,4.54-.8c.15-.03.27-.11.36-.23.08-.12.12-.27.09-.42-.03-.15-.11-.28-.23-.36-.12-.09-.27-.12-.42-.09l-5.15.91-4.19-8.59-.2-1.73,6.91,1.22c.31.05.59-.15.65-.45.03-.15,0-.29-.09-.42-.09-.12-.21-.2-.36-.23l-7.24-1.28-.58-4.95c-.41-3.55-3.18-6.31-6.73-6.71l-.13-.02-.06-.12c-1.46-2.89-4.34-4.88-7.54-5.19h-.11s-.07-.1-.07-.1c-2.44-3.41-6.42-5.44-10.65-5.44-.75,0-1.36.61-1.36,1.36v8.54c0,17.88,3.89,35.98,11.26,52.34l.16.35h-5.97c-.31,0-.56.25-.56.56s.25.56.56.56h6.49l.25.53c.25.54.51,1.09.77,1.63l.18.36h-15.57c-.31,0-.56.25-.56.56s.25.56.56.56h16.12l1.23,2.52h-27.34c-.31,0-.56.25-.56.56s.25.56.56.56h27.89l1.23,2.52h-25.19c-.31,0-.56.25-.56.56s.25.56.56.56h25.73l1.23,2.52h-17.68c-.31,0-.56.25-.56.56s.25.56.56.56h18.23l1.23,2.52h-24.71c-.31,0-.56.25-.56.56s.25.56.56.56h25.25l1.23,2.52h-33.25c-.31,0-.56.25-.56.56s.25.56.56.56h33.18v2.52h-29.54c-.31,0-.56.25-.56.56s.25.56.56.56h29.54v2.52h-25.1c-.31,0-.56.25-.56.56s.25.56.56.56h25.1v4.52h-39.01v-121.6h158.21v121.6ZM221.94,78.89H63.73v-12.09c0-5.93,4.82-10.75,10.75-10.75h136.72c5.93,0,10.75,4.82,10.75,10.75v12.09Z"/>
        <path class="cls-2" d="M121.5,122.11c-3.45,5.98-3.48,13.23-.06,18.91,3.32,5.51,9.14,8.8,15.59,8.8h4.44v12.94c0,.75.61,1.36,1.36,1.36s1.37-.61,1.37-1.36v-12.94h3.94c6.75,0,12.96-3.45,16.21-9.01,3.34-5.72,3.37-12.56.05-18.29l-20.38-35.3c-.24-.42-.7-.68-1.18-.68s-.94.26-1.18.68l-20.15,34.9ZM142.83,90.63l19.2,33.26c2.8,4.84,2.8,10.63,0,15.47-2.8,4.84-7.81,7.74-13.4,7.74h-5.24v-4.66l15.04-10.18c.12-.08.21-.21.23-.36.03-.15,0-.3-.09-.42-.17-.25-.52-.32-.77-.15l-14.42,9.75v-8.04l12.14-8.21c.25-.17.32-.52.15-.77-.17-.25-.52-.32-.77-.15l-11.52,7.79v-8.04l9.29-6.29c.12-.08.21-.21.23-.36.03-.15,0-.29-.09-.42-.17-.25-.52-.32-.77-.15l-8.67,5.86v-8.04l5.68-3.84c.12-.08.21-.21.23-.36.03-.15,0-.29-.09-.42-.17-.25-.52-.32-.77-.15l-5.06,3.42v-8.04l3.34-2.26c.12-.08.21-.21.23-.36s0-.29-.09-.42c-.17-.26-.52-.32-.77-.15l-2.72,1.84v-3.26c0-.31-.25-.56-.56-.56s-.56.25-.56.56v3.26l-2.72-1.84c-.12-.08-.27-.11-.42-.09-.15.03-.27.11-.35.23-.08.12-.11.27-.09.42.03.15.11.27.23.36l3.34,2.26v8.04l-5.06-3.42c-.12-.08-.27-.11-.42-.09-.15.03-.27.11-.36.23-.08.12-.11.27-.09.42.03.15.11.27.23.36l5.68,3.84v8.04l-8.67-5.86c-.25-.17-.6-.11-.77.15-.08.12-.11.27-.09.42.03.15.11.27.23.36l9.29,6.29v8.04l-11.52-7.79c-.26-.17-.6-.11-.77.15-.08.12-.11.27-.09.42.03.15.11.27.23.36l12.14,8.21v8.04l-14.42-9.75c-.26-.17-.6-.11-.77.15-.17.25-.1.6.15.77l15.04,10.18v4.66h-5.24c-5.59,0-10.6-2.89-13.4-7.74-2.8-4.84-2.8-10.63,0-15.47l19.2-33.26Z"/>
      </g>
    </g>
    <g>
      <text class="cls-3" transform="translate(282.84 222.63)"><tspan class="cls-11" x="0" y="0">S</tspan><tspan class="cls-5" x="11.22" y="0">L</tspan><tspan class="cls-6" x="21.61" y="0">O</tspan><tspan class="cls-4" x="36.53" y="0">W </tspan><tspan class="cls-10" x="62.11" y="0">F</tspan><tspan class="cls-4" x="72.9" y="0">ASHION</tspan></text>
      <g>
        <path class="cls-2" d="M357.17,45.25c-49.58,0-89.91,40.33-89.91,89.91v83.71c0,11.88,9.67,21.55,21.55,21.55h136.72c11.88,0,21.55-9.67,21.55-21.55v-83.71c0-49.58-40.33-89.91-89.91-89.91ZM444.35,218.86c0,10.38-8.44,18.82-18.82,18.82h-136.72c-10.38,0-18.82-8.44-18.82-18.82v-83.71c0-48.07,39.11-87.18,87.18-87.18s87.18,39.11,87.18,87.18v83.71Z"/>
        <path class="cls-2" d="M357.17,53.32c-45.12,0-81.84,36.71-81.84,81.84v83.71c0,7.43,6.05,13.48,13.48,13.48h136.72c7.43,0,13.48-6.05,13.48-13.48v-83.71c0-45.12-36.71-81.84-81.84-81.84ZM436.27,218.86c0,5.93-4.82,10.75-10.75,10.75h-136.72c-5.93,0-10.75-4.82-10.75-10.75v-17.34h158.21v17.34ZM436.27,198.79h-158.21v-63.64c0-43.62,35.49-79.11,79.11-79.11s79.11,35.49,79.11,79.11v63.64Z"/>
        <path class="cls-2" d="M413.2,109.66l-54.67-24.68v-2.69l.21-.04c4.2-.76,7.25-4.41,7.25-8.68,0-4.86-3.96-8.82-8.82-8.82s-8.82,3.96-8.82,8.82c0,.75.61,1.36,1.37,1.36s1.36-.61,1.36-1.36c0-3.36,2.73-6.09,6.09-6.09s6.09,2.73,6.09,6.09-2.73,6.09-6.09,6.09c-.75,0-1.37.61-1.37,1.36v3.95l-.15.07-54.52,24.61c-4.39,1.98-5.62,6.29-4.89,9.68.73,3.39,3.62,6.82,8.44,6.82h8.07v3.89h-11.81c-.25,0-.46.21-.46.46s.21.46.46.46h11.81v2.71h-19.68c-.25,0-.46.21-.46.46s.21.46.46.46h19.68v2.71h-16.91c-.25,0-.46.21-.46.46s.21.46.46.46h16.91v2.71h-23.03c-.25,0-.46.21-.46.46s.21.46.46.46h23.03v2.71h-29.4c-.25,0-.46.21-.46.46s.21.46.46.46h29.4v2.71h-18.96c-.25,0-.46.21-.46.46s.21.46.46.46h18.96v2.71h-23.03c-.25,0-.46.21-.46.46s.21.46.46.46h23.03v2.71h-29.4c-.25,0-.46.21-.46.46s.21.46.46.46h29.4v2.71h-26.35c-.25,0-.46.21-.46.46s.21.46.46.46h26.35v2.71h-18.96c-.25,0-.46.21-.46.46s.21.46.46.46h18.96v2.71h-23.03c-.25,0-.46.21-.46.46s.21.46.46.46h23.03v2.71h-16.92c-.25,0-.46.21-.46.46s.21.46.46.46h16.92v2.71h-14.09c-.25,0-.46.21-.46.46s.21.46.46.46h14.09v2.71h-10.64c-.25,0-.46.21-.46.46s.21.46.46.46h10.64v.96c0,.75.61,1.36,1.37,1.36h5.48v5.72c0,.75.61,1.36,1.36,1.36h79.24c.75,0,1.37-.61,1.37-1.36v-8.04h10.64c.25,0,.46-.21.46-.46s-.21-.46-.46-.46h-10.64v-2.71h14.09c.25,0,.46-.21.46-.46s-.21-.46-.46-.46h-14.09v-2.71h16.92c.25,0,.46-.21.46-.46s-.21-.46-.46-.46h-16.92v-2.71h23.03c.25,0,.46-.21.46-.46s-.21-.46-.46-.46h-23.03v-2.71h18.96c.25,0,.46-.21.46-.46s-.21-.46-.46-.46h-18.96v-2.71h26.34c.25,0,.46-.21.46-.46s-.21-.46-.46-.46h-26.34v-2.71h29.4c.25,0,.46-.21.46-.46s-.21-.46-.46-.46h-29.4v-2.71h23.03c.25,0,.46-.21.46-.46s-.21-.46-.46-.46h-23.03v-2.71h18.96c.25,0,.46-.21.46-.46s-.21-.46-.46-.46h-18.96v-2.71h29.4c.25,0,.46-.21.46-.46s-.21-.46-.46-.46h-29.4v-2.71h23.03c.25,0,.46-.21.46-.46s-.21-.46-.46-.46h-23.03v-2.71h16.91c.25,0,.46-.21.46-.46s-.21-.46-.46-.46h-16.91v-2.71h19.68c.25,0,.46-.21.46-.46s-.21-.46-.46-.46h-19.68v-2.71h11.81c.25,0,.46-.21.46-.46s-.21-.46-.46-.46h-11.81v-3.89h8.07c4.82,0,7.71-3.42,8.44-6.82.73-3.39-.5-7.7-4.89-9.68ZM315.49,177.8v-58.23h75.79v58.23h-75.79ZM398.85,184.88h-76.51v-4.35h70.31c.75,0,1.37-.61,1.37-1.36v-57.62h4.83v63.33ZM415.42,118.77c-.46,2.15-2.25,4.66-5.77,4.66h-8.07v-3.25c0-.75-.61-1.36-1.37-1.36h-6.2v-.62c0-.75-.61-1.37-1.37-1.37h-78.52c-.75,0-1.37.61-1.37,1.37v5.23h-8.07c-3.52,0-5.31-2.51-5.77-4.66-.46-2.15.14-5.17,3.34-6.62l54.91-24.79.1.05,54.81,24.74c3.21,1.45,3.8,4.47,3.34,6.62Z"/>
        <path class="cls-2" d="M337.07,157.34c2.95,1.6,6.46,1.95,9.77.82l.15-.05,5.84,5.84v8.39c0,.31.25.56.56.56s.56-.25.56-.56v-8.39l5.84-5.84.15.05c3.3,1.13,6.82.79,9.77-.82,3.17-1.72,5.4-4.74,6.12-8.27l1.83-8.95c.04-.18-.02-.37-.15-.51-.13-.13-.32-.19-.51-.15l-8.95,1.83c-3.53.72-6.55,2.95-8.27,6.12-1.62,2.98-1.92,6.53-.82,9.77l.05.15-5.06,5.05v-12.71l.14-.07c3.06-1.51,5.37-4.23,6.33-7.48,1.02-3.46.46-7.17-1.52-10.18l-5.04-7.62c-.19-.28-.74-.28-.93,0l-5.04,7.62c-1.99,3.01-2.54,6.72-1.52,10.18.96,3.25,3.26,5.98,6.33,7.48l.14.07v12.72l-5.05-5.05.05-.15c1.1-3.23.8-6.79-.82-9.77-1.72-3.17-4.74-5.4-8.27-6.12l-8.95-1.83c-.19-.04-.37.02-.51.15-.13.13-.19.32-.15.51l1.83,8.95c.72,3.53,2.95,6.55,6.12,8.27ZM360.74,147.94c1.57-2.88,4.31-4.9,7.52-5.56l8.12-1.66-1.66,8.13c-.66,3.21-2.68,5.95-5.56,7.52-1.64.89-3.45,1.35-5.28,1.35-.94,0-1.88-.12-2.81-.36l-.42-.11,10.36-10.36c.11-.11.16-.25.16-.39s-.06-.29-.16-.39c-.21-.21-.58-.21-.79,0l-10.36,10.36-.11-.42c-.71-2.74-.36-5.61.98-8.09ZM352.45,148.21c-2.44-1.43-4.22-3.71-5.02-6.42-.93-3.14-.42-6.51,1.38-9.25l4.57-6.92,4.57,6.92c1.81,2.73,2.31,6.1,1.38,9.25-.8,2.7-2.58,4.98-5.02,6.42l-.38.22v-14.65c0-.31-.25-.56-.56-.56s-.56.25-.56.56v14.65l-.38-.22ZM338.51,142.38c3.21.66,5.95,2.68,7.52,5.56,1.35,2.48,1.7,5.35.98,8.09l-.11.42-10.36-10.36c-.21-.21-.58-.21-.79,0-.11.11-.16.25-.16.39s.06.29.16.39l10.36,10.36-.42.11c-.93.24-1.87.36-2.81.36-1.83,0-3.64-.45-5.28-1.35-2.88-1.57-4.9-4.31-5.56-7.52l-1.66-8.13,8.13,1.66Z"/>
        <path class="cls-2" d="M396.89,129.39c.31,0,.56-.25.56-.56v-4.22c0-.31-.25-.56-.56-.56s-.56.25-.56.56v4.22c0,.31.25.56.56.56Z"/>
        <path class="cls-2" d="M396.89,158.84c.31,0,.56-.25.56-.56v-26.88c0-.31-.25-.56-.56-.56s-.56.25-.56.56v26.88c0,.31.25.56.56.56Z"/>
        <path class="cls-2" d="M392.09,183.1c0,.31.25.56.56.56h4.24c.3,0,.55-.24.56-.54l.25-6.76c.01-.31-.23-.57-.54-.58h0c-.15-.01-.28.04-.38.13-.11.1-.18.25-.19.4l-.23,6.23h-3.7c-.31,0-.56.25-.56.56Z"/>
        <path class="cls-2" d="M389.87,182.54h-1.14c-.31,0-.56.25-.56.56s.25.56.56.56h1.14c.31,0,.56-.25.56-.56s-.25-.56-.56-.56Z"/>
        <path class="cls-2" d="M385.63,182.54h-.27c-.31,0-.56.25-.56.56s.25.56.56.56h.27c.31,0,.56-.25.56-.56s-.25-.56-.56-.56Z"/>
        <path class="cls-2" d="M331.73,182.54h-6.06c-.31,0-.56.25-.56.56s.25.56.56.56h6.06c.31,0,.56-.25.56-.56s-.25-.56-.56-.56Z"/>
        <path class="cls-2" d="M335.1,182.54h-.61c-.31,0-.56.25-.56.56s.25.56.56.56h.61c.31,0,.56-.25.56-.56s-.25-.56-.56-.56Z"/>
      </g>
    </g>
  </g>
</svg>