<?xml version="1.0" encoding="UTF-8"?>
<svg id="Camada_1" data-name="Camada 1" xmlns="http://www.w3.org/2000/svg" viewBox="0 0 364.06 430.62">
  <defs>
    <style>
      .cls-1, .cls-2 {
        fill: #fff;
      }

      .cls-2 {
        fill-rule: evenodd;
      }
    </style>
  </defs>
  <path class="cls-2" d="M74.81,0h229.82c16.16,0,29.37,13.98,29.37,31.09v14.78c0,21.01-28.46,20.92-28.46,0v-7.89c0-5.18-4.19-9.38-9.37-9.4H65.85c-5.17.03-9.35,4.23-9.37,9.4v7.92c0,20.89-27.1,20.69-27.1.47v-15.28C29.39,13.98,42.6,0,58.73,0h16.08ZM180.19,346.52h149.06c34.04,0,34.37-36.17,30.91-54.05-1.89-12-22.28-11.82-24.53,0v13.95c-.03,6.38-5.2,11.55-11.58,11.58H38.25c-6.39-.02-11.57-5.19-11.58-11.58v-13.95c-2.25-11.82-22.64-12-24.53,0-3.49,17.88-3.13,54.05,30.91,54.05h147.14Z"/>
  <path class="cls-2" d="M272.33,159.37h23.64v-.27c11.02-1.72,19.15-11.19,19.18-22.34h0c-.03-12.47-10.14-22.57-22.61-22.61h-47.73v118.21h60.7c12.87-.05,23.3-10.47,23.35-23.35h0c-.03-12.88-10.47-23.31-23.35-23.35h-32.98c-7.23-.03-13.09-5.89-13.12-13.12h0c.03-7.23,5.89-13.09,13.12-13.12l-.21-.06ZM328.21,170.99c16.1,7.19,26.59,23.06,26.89,40.69h0c0,25.03-21.84,45.48-48.55,45.48h-74.85c-6.76.2-12.43-5.06-12.74-11.82V102.84c.03-6.9,5.63-12.48,12.53-12.5h62.32c26.31.06,47.63,21.36,47.73,47.67h0c0,12.3-4.78,24.13-13.33,32.98Z"/>
  <path class="cls-1" d="M84.3,390.52c0-2.22,1.8-4.02,4.02-4.02s4.02,1.8,4.02,4.02v21.63h0c0,9.94-8.06,18-18,18h0c-4.78.02-9.38-1.87-12.76-5.25-3.39-3.38-5.29-7.96-5.29-12.75h0v-21.69c0-2.22,1.8-4.02,4.02-4.02s4.02,1.8,4.02,4.02v21.69h0c.03,5.52,4.5,9.99,10.02,10.02h0c5.5-.05,9.94-4.51,9.96-10.02h0v-21.63Z"/>
  <path class="cls-1" d="M122.24,422.23c2.22,0,4.02,1.8,4.02,4.02s-1.8,4.02-4.02,4.02h-11.08c-4.01.01-7.85-1.59-10.67-4.43-2.82-2.82-4.42-6.65-4.43-10.64h0v-24.65c0-2.22,1.8-4.02,4.02-4.02s4.02,1.8,4.02,4.02v24.56h0c.03,3.9,3.19,7.06,7.09,7.09h11.08l-.03.03Z"/>
  <path class="cls-1" d="M207.08,242.94c.88,8.25-5.09,15.65-13.34,16.53-8.25.88-15.65-5.09-16.53-13.34l-12.29-113.27-43.62,110.85h0v.53h0v.24h0v.21h0v.24h0c-.76,1.48-1.76,2.82-2.96,3.96h0l-.24.21c-.79.72-1.66,1.33-2.6,1.83h0l-.27.15h-1.36c-1.42.5-2.9.78-4.4.83h-1.09c-1.69-.06-3.36-.4-4.94-1h-1.24l-.24-.15h-.15c-.81-.46-1.59-1-2.31-1.6h0l-.5-.44h0l-.35-.35c-.12-.14-.25-.26-.38-.38h0l-.44-.5h0c-.62-.71-1.15-1.48-1.6-2.3h0v-.24h0v-.27h0v-.35h0v-.38h0v-.21l-46.6-110.85-12.32,113.27c-1.04,8.1-8.37,13.87-16.48,13.01-8.12-.87-14.05-8.06-13.36-16.2l14.51-133.51h0c.18-1.56.51-3.11.97-4.61.46-1.51,1.07-2.96,1.83-4.34,3.76-7.07,10.71-11.9,18.65-12.97h.83c1.22-.22,2.46-.36,3.69-.41h0c1.53.08,3.05.28,4.55.62,7.95,1.84,14.48,7.49,17.44,15.1l37.32,94.42,37.15-94.33c2.96-7.62,9.5-13.27,17.47-15.1,1.49-.37,3.02-.6,4.55-.71h0c1.26-.09,2.52-.09,3.78,0h.83c8.05,1.1,15.05,6.05,18.77,13.27.74,1.43,1.35,2.92,1.8,4.46.47,1.51.8,3.07.97,4.64h0l14.51,133.49Z"/>
  <path class="cls-1" d="M54.77,425.78c.21,1.45-.38,2.9-1.54,3.78-1.16.89-2.72,1.07-4.06.48-1.34-.59-2.25-1.86-2.38-3.32l-3.43-28.9-12.26,28.43c-.63,1.48-2.09,2.44-3.69,2.44s-3.06-.96-3.69-2.44h0l-12.26-28.43-3.43,28.9c-.13,1.46-1.04,2.73-2.38,3.32-1.34.59-2.89.41-4.06-.48-1.16-.89-1.75-2.34-1.54-3.78l4.02-33.57c.25-2.14,1.56-4.01,3.49-4.96l.8-.35h.3c.39-.1.78-.18,1.18-.24h0c2.04-.28,4.1.36,5.61,1.74.3.29.58.61.83.95l.47.77.21.44,10.4,24.11,10.4-24.11c.87-1.95,2.61-3.37,4.7-3.81.39-.09.78-.14,1.18-.15h1.36c2.07.24,3.91,1.42,4.99,3.19h0c.21.37.39.75.53,1.15.09.25.16.51.21.77.03.18.03.36,0,.53h0l4.05,33.54Z"/>
  <path class="cls-1" d="M139.76,426.25c0,2.22-1.8,4.02-4.02,4.02s-4.02-1.8-4.02-4.02v-31.83h-11.41c-2.22,0-4.02-1.8-4.02-4.02s1.8-4.02,4.02-4.02h30.88c2.22,0,4.02,1.8,4.02,4.02s-1.8,4.02-4.02,4.02h-11.44v31.83Z"/>
  <path class="cls-1" d="M164.79,426.25c.13,1.51-.6,2.97-1.9,3.77-1.29.8-2.92.8-4.22,0-1.29-.8-2.03-2.25-1.9-3.77v-35.73c-.13-1.51.6-2.97,1.9-3.77,1.29-.8,2.92-.8,4.22,0,1.29.8,2.03,2.25,1.9,3.77v35.73Z"/>
  <path class="cls-1" d="M247.15,425.75c.27,2.2-1.3,4.21-3.5,4.48-2.2.27-4.21-1.3-4.48-3.5l-1.42-11.32h-13.89c-2.22,0-4.02-1.8-4.02-4.02s1.8-4.02,4.02-4.02h12.91l-.38-2.96h0v-.27c-.1-.7-.26-1.39-.47-2.07-.2-.72-.47-1.43-.8-2.1-1.43-3.23-4.6-5.33-8.13-5.41h0c-.69,0-1.37.08-2.04.24-.61.16-1.21.38-1.77.68-3.21,1.85-5.31,5.17-5.61,8.87l-2.48,22.31c-.34,2.11-2.28,3.59-4.41,3.35-2.13-.24-3.7-2.1-3.57-4.24l2.51-22.31c.56-6.41,4.27-12.11,9.9-15.22,1.14-.56,2.34-.99,3.58-1.3,1.28-.3,2.59-.45,3.9-.44h0c6.57.05,12.51,3.9,15.25,9.87.56,1.09,1.01,2.23,1.36,3.4.33,1.07.57,2.17.71,3.28.01.12.01.24,0,.35h0l2.84,22.34Z"/>
  <path class="cls-1" d="M259.42,426.25c.13,1.51-.6,2.97-1.9,3.77-1.29.8-2.92.8-4.22,0-1.29-.8-2.03-2.25-1.9-3.77v-33.19h0c-.03-.23-.03-.45,0-.68.04-.44.14-.88.3-1.3h0c.09-.25.21-.49.35-.71h0c.67-1.24,1.79-2.18,3.13-2.63l.53-.15h1.54c1.67.05,3.22.85,4.23,2.19l21.37,27.22v-26.27c0-2.22,1.8-4.02,4.02-4.02s4.02,1.8,4.02,4.02v33.04c0,1.71-.77,3.33-2.1,4.4-.26.21-.54.4-.83.56l-.47.24h-.32c-1.41.5-2.97.42-4.31-.24-.18-.07-.35-.16-.5-.27-.28-.18-.55-.37-.8-.59l-.5-.53-.15-.15h0l-21.37-27.25-.12,26.3Z"/>
  <path class="cls-1" d="M322.13,422.23c2.22,0,4.02,1.8,4.02,4.02s-1.8,4.02-4.02,4.02h-11.82c-8.74,0-15.82-7.07-15.84-15.81h0v-12.09h0c.02-8.73,7.09-15.79,15.81-15.81h11.82c2.22,0,4.02,1.8,4.02,4.02s-1.8,4.02-4.02,4.02h-11.82c-4.31.03-7.79,3.52-7.8,7.83h0v12.09h0c.02,4.32,3.51,7.81,7.83,7.83h11.82v-.12Z"/>
  <path class="cls-2" d="M358.5,391.77c-3.54-3.39-8.25-5.28-13.15-5.26l-.03.06c-4.89-.01-9.6,1.87-13.12,5.26-3.54,3.34-5.55,7.99-5.55,12.85v7.48c0,4.86,2,9.51,5.53,12.86,3.55,3.39,8.27,5.27,13.18,5.26,4.9.02,9.61-1.87,13.15-5.26,3.54-3.34,5.55-7.99,5.56-12.86v-7.54c0-4.86-2.02-9.51-5.56-12.85ZM337.76,397.47c2.06-1.92,4.78-2.98,7.59-2.96v-.09c2.86.02,5.59,1.16,7.62,3.16,1.91,1.86,2.98,4.42,2.96,7.09v7.48c.02,2.67-1.04,5.23-2.96,7.09-2.06,1.92-4.78,2.98-7.59,2.95-2.83.03-5.56-1.03-7.62-2.95-1.94-1.85-3.06-4.41-3.1-7.09v-7.59c.04-2.68,1.16-5.24,3.1-7.09Z"/>
  <path class="cls-2" d="M168.16,390.7v17.44l-.12-.03v18.11c0,1.07.42,2.09,1.18,2.84.75.75,1.78,1.18,2.84,1.18h19.65c7.19-.02,13.02-5.84,13.03-13.03-.02-3.3-1.3-6.47-3.58-8.87l-.24-.27c-.69-.69-1.45-1.3-2.28-1.83,1.28-2.05,1.95-4.43,1.92-6.86-.02-7.06-5.74-12.78-12.8-12.8h-15.72c-.98.04-1.92.44-2.63,1.12-.41.39-.73.87-.95,1.39-.22.5-.33,1.05-.32,1.6ZM176.2,422.12v-27.75h11.58c1.26.01,2.48.52,3.37,1.42.91.9,1.42,2.12,1.42,3.4,0,1.27-.51,2.48-1.42,3.37-.79.8-1.83,1.31-2.95,1.42h-1.83c-2.22,0-4.02,1.8-4.02,4.02s1.8,4.02,4.02,4.02h5.35c1.33.01,2.61.56,3.55,1.51l.15.15c.86.92,1.34,2.14,1.36,3.4-.01,1.33-.56,2.61-1.51,3.55-.93.96-2.21,1.5-3.55,1.51h-15.51Z"/>
</svg>