<?xml version="1.0" encoding="UTF-8"?>
<svg id="Layer_1" xmlns="http://www.w3.org/2000/svg" version="1.1" viewBox="0 0 461 334">
  <!-- Generator: Adobe Illustrator 29.1.0, SVG Export Plug-In . SVG Version: 2.1.0 Build 142)  -->
  <defs>
    <style>
      .st0, .st1 {
        fill: #fafcfc;
        stroke: #030000;
        stroke-miterlimit: 10;
      }

      .st1 {
        font-family: Roboto-BoldItalic, Roboto;
        font-size: 75.72px;
        font-style: italic;
        font-weight: 700;
      }
    </style>
  </defs>
  <path class="st0" d="M158.47,319.6l2.92-16.04,1.46-8.02,1.6-8,3.21-16c1.03-5.34,2.21-10.65,3.37-15.97l3.47-15.96c4.9-21.25,9.98-42.39,16.01-63.54l8.99,2.17c-6.19,20.72-11.53,41.84-16.67,62.9l-3.66,15.86c-1.22,5.29-2.46,10.57-3.56,15.88l-3.39,15.91-1.7,7.95-1.55,7.98-3.11,15.96"/>
  <text class="st1" transform="translate(43.56 323.6)"><tspan x="0" y="0">CodeCotton</tspan></text>
  <path class="st0" d="M203.03,85.16c-2.19,88.16-3.78,88.45-22.89,4.2,19.11,84.25,17.52,84.54-22.89,4.2,40.41,80.34,39.5,81.31-13.04,13.95,52.54,67.36,51.63,68.33-13.04,13.95,64.67,54.38,63.92,55.66-10.84,18.36,74.76,37.3,74.01,38.58-10.84,18.36,84.85,20.22,84.87,22.1.3,26.95,84.57-4.85,84.59-2.98.3,26.95,84.29-29.93,84.63-28.38,4.85,22.31,79.78-50.69,80.12-49.14,4.85,22.31,75.27-71.45,76.31-71.05,14.97,5.75,61.34-76.81,62.38-76.41,14.97,5.75,47.41-82.16,49.35-81.92,27.96,3.43,21.39-85.35,23.33-85.11,27.96,3.43-4.63-88.55-2.8-89.21,26.25-9.52-29.05-79.69-27.23-80.35,26.25-9.52-53.48-70.83-52.78-71.85,10.02-14.73-62.81-57.12-62.11-58.15,10.02-14.73-72.13-43.42-71.63-44.79,7.25-19.79-78.88-25.01-78.38-26.38,7.25-19.79-85.63-6.6-85.97-8.02-4.95-20.48-81.02,12.46-81.36,11.04-4.95-20.48-76.41,31.52-77.06,30.25-9.36-18.29-67.7,48.53-68.35,47.26-9.36-18.29-58.99,65.55-59.67,64.87-9.85-9.74-49.82,74.61-50.51,73.94-9.85-9.74-40.66,83.68-42.1,83.51-20.67-2.4-21.42,85.92-22.86,85.75-20.67-2.4Z"/>
  <g>
    <path class="st0" d="M162.65,88.86c.62,4.25-2.32,8.2-6.57,8.82-4.25.62-8.2-2.32-8.82-6.57-.62-4.25,2.32-8.2,6.57-8.82,4.25-.62,8.2,2.32,8.82,6.57Z"/>
    <path class="st0" d="M237.48,72.02c.64,4.41-2.41,8.5-6.81,9.15-4.41.64-8.5-2.41-9.15-6.81-.64-4.41,2.41-8.5,6.81-9.15,4.41-.64,8.5,2.41,9.15,6.81Z"/>
    <path class="st0" d="M308.99,136.18c.73,4.99-2.72,9.62-7.71,10.35-4.99.73-9.62-2.72-10.35-7.71-.73-4.99,2.72-9.62,7.71-10.35,4.99-.73,9.62,2.72,10.35,7.71Z"/>
    <path class="st0" d="M182.66,71.5c.67,4.59-2.5,8.85-7.09,9.52-4.59.67-8.85-2.5-9.52-7.09-.67-4.59,2.5-8.85,7.09-9.52,4.59-.67,8.85,2.5,9.52,7.09Z"/>
    <path class="st0" d="M273.92,87.72c.65,4.41-2.41,8.51-6.82,9.16-4.41.64-8.51-2.41-9.16-6.82-.65-4.41,2.41-8.51,6.82-9.16,4.41-.64,8.51,2.41,9.16,6.82Z"/>
    <path class="st0" d="M266.41,133.04c.71,4.83-2.64,9.33-7.47,10.03-4.83.71-9.33-2.64-10.03-7.47-.71-4.83,2.64-9.33,7.47-10.03,4.83-.71,9.33,2.64,10.03,7.47Z"/>
    <path class="st0" d="M285.21,202.72c.47,3.22-1.76,6.22-4.98,6.69-3.22.47-6.22-1.76-6.69-4.98-.47-3.22,1.76-6.22,4.98-6.69,3.22-.47,6.22,1.76,6.69,4.98Z"/>
    <path class="st0" d="M82.63,202.26c.36,2.45-1.34,4.73-3.79,5.09-2.45.36-4.73-1.34-5.09-3.79-.36-2.45,1.34-4.73,3.79-5.09,2.45-.36,4.73,1.34,5.09,3.79Z"/>
    <path class="st0" d="M136.76,264.75c.69,4.75-2.59,9.16-7.34,9.86-4.75.69-9.17-2.59-9.86-7.34-.69-4.75,2.59-9.17,7.34-9.86,4.75-.69,9.16,2.59,9.86,7.35Z"/>
    <path class="st0" d="M161.16,243.65c.75,5.1-2.78,9.84-7.88,10.58-5.1.75-9.84-2.78-10.58-7.88-.75-5.1,2.78-9.84,7.88-10.58,5.1-.75,9.84,2.78,10.58,7.88Z"/>
    <path class="st0" d="M183.08,266.75c.64,4.4-2.4,8.5-6.81,9.14-4.4.64-8.5-2.4-9.14-6.81-.64-4.4,2.4-8.5,6.81-9.14,4.4-.64,8.5,2.4,9.14,6.81Z"/>
    <path class="st0" d="M119.23,234.29c.38,2.62-1.43,5.06-4.05,5.44-2.62.38-5.06-1.43-5.44-4.05-.38-2.62,1.43-5.06,4.05-5.44,2.62-.38,5.06,1.43,5.44,4.05Z"/>
    <path class="st0" d="M193.86,100.28c.42,2.86-1.56,5.51-4.41,5.93-2.85.42-5.51-1.56-5.93-4.41-.42-2.86,1.56-5.51,4.41-5.93,2.85-.42,5.51,1.56,5.93,4.41Z"/>
    <path class="st0" d="M213.8,90.05c.54,3.69-2.02,7.12-5.71,7.66-3.69.54-7.12-2.02-7.66-5.71-.54-3.69,2.02-7.12,5.71-7.66,3.69-.54,7.12,2.02,7.66,5.71Z"/>
    <path class="st0" d="M247.86,107.1c.54,3.72-2.03,7.17-5.74,7.71-3.71.54-7.17-2.03-7.71-5.74-.54-3.72,2.03-7.17,5.74-7.71,3.71-.54,7.17,2.03,7.71,5.74Z"/>
    <path class="st0" d="M256.8,72.21c.28,1.9-1.04,3.66-2.93,3.94-1.9.28-3.66-1.04-3.94-2.93-.28-1.9,1.04-3.66,2.93-3.94,1.9-.28,3.66,1.04,3.94,2.93Z"/>
    <path class="st0" d="M289.06,151.44c.52,3.52-1.92,6.8-5.45,7.31-3.52.51-6.8-1.92-7.31-5.45-.52-3.52,1.92-6.8,5.45-7.31,3.52-.52,6.8,1.92,7.31,5.45Z"/>
    <path class="st0" d="M289.66,176.33c.48,3.3-1.8,6.37-5.1,6.85-3.3.48-6.37-1.8-6.85-5.1-.48-3.3,1.8-6.37,5.1-6.85,3.3-.48,6.37,1.8,6.85,5.1Z"/>
    <path class="st0" d="M111.33,187.9c.59,4.04-2.21,7.8-6.25,8.39-4.04.59-7.79-2.21-8.39-6.25-.59-4.04,2.21-7.8,6.25-8.39,4.04-.59,7.8,2.21,8.39,6.25Z"/>
    <path class="st0" d="M150.57,113.24c.47,3.22-1.76,6.2-4.97,6.67-3.22.47-6.2-1.76-6.67-4.97s1.76-6.2,4.97-6.67c3.22-.47,6.2,1.76,6.67,4.97Z"/>
    <path class="st0" d="M107.85,146.58c.54,3.68-2.01,7.09-5.68,7.63-3.68.54-7.09-2.01-7.63-5.68-.54-3.68,2.01-7.09,5.68-7.63,3.68-.54,7.09,2.01,7.63,5.68Z"/>
    <path class="st0" d="M135.3,79.86c.38,2.57-1.4,4.96-3.98,5.34-2.57.38-4.96-1.4-5.34-3.98-.38-2.57,1.4-4.96,3.98-5.34,2.57-.38,4.96,1.4,5.34,3.98Z"/>
    <path class="st0" d="M118.57,165.04c.49,3.38-1.85,6.52-5.22,7.01-3.38.49-6.52-1.85-7.01-5.22-.49-3.38,1.85-6.52,5.22-7.01,3.38-.49,6.52,1.85,7.01,5.22Z"/>
    <path class="st0" d="M94.09,229.64c.54,3.66-2,7.06-5.66,7.59-3.66.53-7.06-2-7.6-5.66-.53-3.66,2-7.06,5.66-7.6,3.66-.53,7.06,2,7.6,5.66Z"/>
    <path class="st0" d="M208.6,259.71c.29,1.99-1.09,3.84-3.07,4.13-1.99.29-3.84-1.09-4.13-3.07-.29-1.99,1.09-3.84,3.07-4.13,1.99-.29,3.84,1.09,4.13,3.07Z"/>
    <path class="st0" d="M262.01,253.18c.42,2.86-1.56,5.51-4.41,5.93-2.85.42-5.51-1.56-5.93-4.41s1.56-5.51,4.41-5.93c2.85-.42,5.51,1.56,5.93,4.41Z"/>
    <path class="st0" d="M232.41,264.64c.52,3.54-1.93,6.83-5.47,7.34-3.54.52-6.83-1.93-7.34-5.47-.52-3.54,1.93-6.83,5.47-7.34,3.54-.52,6.83,1.93,7.34,5.47Z"/>
    <path class="st0" d="M306.63,188.3c.32,2.18-1.19,4.2-3.37,4.52-2.18.32-4.2-1.19-4.52-3.37-.32-2.18,1.19-4.2,3.37-4.52,2.18-.32,4.2,1.19,4.52,3.37Z"/>
    <path class="st0" d="M291.17,116.97c.3,2.06-1.12,3.97-3.18,4.27-2.06.3-3.97-1.12-4.27-3.18-.3-2.06,1.12-3.97,3.18-4.27,2.06-.3,3.97,1.12,4.27,3.18Z"/>
    <path class="st0" d="M264.86,202.26c.58,4-2.18,7.72-6.18,8.3-4,.58-7.71-2.18-8.3-6.18-.58-4,2.18-7.72,6.18-8.3s7.72,2.18,8.3,6.18Z"/>
    <path class="st0" d="M274.29,227.46c.72,4.95-2.7,9.55-7.65,10.27-4.95.72-9.55-2.7-10.27-7.65-.72-4.95,2.7-9.55,7.65-10.27,4.95-.72,9.55,2.7,10.27,7.65Z"/>
    <path class="st0" d="M241.22,243.17c.55,3.75-2.05,7.23-5.79,7.78-3.75.55-7.23-2.05-7.78-5.79-.55-3.75,2.05-7.23,5.79-7.78,3.75-.55,7.23,2.05,7.78,5.79Z"/>
    <path class="st0" d="M127.94,124.44c.33,2.24-1.22,4.32-3.46,4.64-2.24.33-4.31-1.22-4.64-3.46-.33-2.24,1.22-4.31,3.46-4.64,2.24-.33,4.31,1.22,4.64,3.46Z"/>
    <path class="st0" d="M124.83,98.47c.28,1.92-1.05,3.7-2.96,3.98-1.92.28-3.7-1.05-3.98-2.96-.28-1.92,1.05-3.7,2.96-3.98,1.92-.28,3.7,1.05,3.98,2.96Z"/>
    <path class="st0" d="M125.48,209.34c.58,3.94-2.15,7.61-6.1,8.18-3.94.58-7.61-2.15-8.18-6.1-.58-3.94,2.15-7.61,6.1-8.18,3.94-.58,7.61,2.15,8.18,6.1Z"/>
  </g>
  <g>
    <path class="st0" d="M248.46,34.15c.02.07.05.19.09.36.43,2.48,1.47,6.44,3.11,11.87.35,1.16.89,2.9,1.62,5.22s1.27,4.06,1.62,5.22c.16.51.02.84-.39.98s-1.01.35-1.79.63c-.78.28-1.36.49-1.75.62s-.64.03-.74-.3c-.08-.28-.73-2.73-1.95-7.35-.59-2.24-1.53-5.47-2.81-9.71-.09-.3-.2-.43-.33-.39-.3.1-.75.36-1.34.78s-1.04.69-1.36.79c-.29.1-.46.06-.51-.09s-.1-.4-.17-.73-.12-.57-.17-.73c-.04-.14-.12-.36-.23-.64s-.19-.49-.23-.64c-.05-.17.04-.36.29-.57.64-.56,1.25-1.35,1.84-2.38.03-.05.25-.56.69-1.53.37-.83.59-1.26.66-1.28-.01,0,.55-.05,1.68-.16.41-.08,1.01-.16,1.8-.26.19,0,.32.09.38.29Z"/>
    <path class="st0" d="M370.38,83.59c0,3.48-.99,6.47-2.96,8.98-2.11,2.69-4.8,4.04-8.08,4.04s-5.95-1.35-8.06-4.04c-1.99-2.53-2.98-5.52-2.98-8.98s.99-6.45,2.98-8.94c2.11-2.66,4.79-4,8.06-4s5.97,1.32,8.08,3.97c1.98,2.5,2.96,5.49,2.96,8.96ZM365.7,83.59c0-2.13-.54-3.96-1.61-5.51-1.19-1.7-2.78-2.55-4.75-2.55s-3.55.85-4.73,2.55c-1.05,1.52-1.57,3.35-1.57,5.51s.53,3.97,1.59,5.53c1.19,1.74,2.77,2.61,4.71,2.61s3.45-.89,4.69-2.67c1.11-1.61,1.67-3.44,1.67-5.47Z"/>
    <path class="st0" d="M334.84,28.43c.02.07.04.19.07.37.3,2.5,1.14,6.51,2.5,12.03.29,1.18.74,2.94,1.35,5.3.61,2.36,1.06,4.13,1.35,5.3.13.52-.02.84-.44.95s-1.03.29-1.82.53c-.79.24-1.38.41-1.78.52s-.64,0-.72-.34c-.07-.28-.59-2.76-1.57-7.45-.48-2.27-1.25-5.55-2.31-9.85-.08-.31-.18-.44-.31-.41-.31.08-.77.32-1.38.71-.61.39-1.07.63-1.39.72-.3.08-.46.04-.5-.12s-.08-.41-.13-.73-.09-.57-.13-.73c-.04-.15-.1-.36-.2-.65s-.17-.5-.2-.65c-.04-.17.06-.36.31-.55.67-.52,1.32-1.28,1.96-2.28.03-.05.28-.55.76-1.49.42-.81.66-1.22.72-1.24-.01,0,.55-.02,1.69-.07.41-.05,1.01-.11,1.81-.16.19,0,.31.11.36.31Z"/>
    <path class="st0" d="M302.63,53.34c0,3.41-.97,6.35-2.91,8.82-2.07,2.64-4.71,3.96-7.92,3.96s-5.84-1.32-7.91-3.96c-1.95-2.48-2.93-5.42-2.93-8.82s.98-6.32,2.93-8.78c2.07-2.61,4.7-3.92,7.91-3.92s5.86,1.3,7.92,3.9c1.94,2.45,2.91,5.38,2.91,8.8ZM298.04,53.34c0-2.09-.53-3.89-1.58-5.4-1.17-1.67-2.73-2.5-4.66-2.5s-3.49.83-4.65,2.5c-1.03,1.49-1.54,3.29-1.54,5.4s.52,3.89,1.56,5.42c1.17,1.71,2.71,2.56,4.63,2.56s3.38-.87,4.61-2.62c1.09-1.58,1.64-3.37,1.64-5.36Z"/>
    <path class="st0" d="M326.71,82.93c-.03.06-.08.17-.16.33-1.22,2.12-2.9,5.74-5.06,10.87-.46,1.09-1.14,2.74-2.04,4.95-.9,2.21-1.58,3.86-2.04,4.95-.2.48-.5.64-.9.46s-.97-.42-1.71-.74-1.31-.55-1.68-.72-.49-.41-.36-.72c.11-.26,1.15-2.51,3.11-6.74.95-2.05,2.26-5.08,3.94-9.07.12-.29.12-.46,0-.51-.29-.13-.78-.24-1.48-.32s-1.2-.19-1.49-.32c-.27-.12-.38-.26-.32-.41s.17-.37.33-.65.26-.5.33-.65c.06-.14.13-.35.22-.63s.16-.49.22-.63c.07-.16.26-.24.57-.23.82.02,1.76-.16,2.84-.53.05-.02.54-.24,1.45-.67.79-.36,1.22-.53,1.28-.51-.01,0,.44.33,1.34,1.01.35.22.85.55,1.49,1.01.15.13.18.28.1.47Z"/>
    <path class="st0" d="M358.98,140.59c0,3.48-.99,6.47-2.96,8.98-2.11,2.69-4.8,4.04-8.08,4.04s-5.95-1.35-8.06-4.04c-1.99-2.53-2.98-5.52-2.98-8.98s.99-6.45,2.98-8.94c2.11-2.66,4.79-4,8.06-4s5.97,1.32,8.08,3.97c1.98,2.5,2.96,5.49,2.96,8.96ZM354.3,140.59c0-2.13-.54-3.96-1.61-5.51-1.19-1.7-2.78-2.55-4.75-2.55s-3.55.85-4.73,2.55c-1.05,1.52-1.57,3.35-1.57,5.51s.53,3.97,1.59,5.53c1.19,1.74,2.77,2.61,4.71,2.61s3.45-.89,4.69-2.67c1.11-1.61,1.67-3.44,1.67-5.47Z"/>
    <path class="st0" d="M388.81,46.48c.02.07.04.19.07.37.3,2.5,1.14,6.51,2.5,12.03.29,1.18.74,2.94,1.35,5.3.61,2.36,1.06,4.13,1.35,5.3.13.52-.02.84-.44.95s-1.03.29-1.82.53c-.79.24-1.38.41-1.78.52s-.64,0-.72-.34c-.07-.28-.59-2.76-1.57-7.45-.48-2.27-1.25-5.55-2.31-9.85-.08-.31-.18-.44-.31-.41-.31.08-.77.32-1.38.71-.61.39-1.07.63-1.39.72-.3.08-.46.04-.5-.12s-.08-.41-.13-.73-.09-.57-.13-.73c-.04-.15-.1-.36-.2-.65s-.17-.5-.2-.65c-.04-.17.06-.36.31-.55.67-.52,1.32-1.28,1.96-2.28.03-.05.28-.55.76-1.49.42-.81.66-1.22.72-1.24-.01,0,.55-.02,1.69-.07.41-.05,1.01-.11,1.81-.16.19,0,.31.11.36.31Z"/>
    <path class="st0" d="M393.09,97.64c-.03.06-.08.17-.16.33-1.22,2.12-2.9,5.74-5.06,10.87-.46,1.09-1.14,2.74-2.04,4.95-.9,2.21-1.58,3.86-2.04,4.95-.2.48-.5.64-.9.46s-.97-.42-1.71-.74-1.31-.55-1.68-.72-.49-.41-.36-.72c.11-.26,1.15-2.51,3.11-6.74.95-2.05,2.26-5.08,3.94-9.07.12-.29.12-.46,0-.51-.29-.13-.78-.24-1.48-.32-.7-.08-1.2-.19-1.49-.32-.27-.12-.38-.26-.32-.41s.17-.37.33-.65.26-.5.33-.65c.06-.14.13-.35.22-.63s.16-.49.22-.63c.07-.16.26-.24.57-.23.82.02,1.76-.16,2.84-.53.05-.02.54-.24,1.45-.67.79-.36,1.22-.53,1.28-.51-.01,0,.44.33,1.34,1.01.35.22.85.55,1.49,1.01.15.13.18.28.1.47Z"/>
  </g>
</svg>